<?xml version="1.0" encoding="utf-8"?>
<!-- Generator: Adobe Illustrator 23.0.6, SVG Export Plug-In . SVG Version: 6.00 Build 0)  -->
<svg version="1.1" id="Layer_1" xmlns="http://www.w3.org/2000/svg" xmlns:xlink="http://www.w3.org/1999/xlink" x="0px" y="0px"
	 viewBox="0 0 490 490" style="enable-background:new 0 0 490 490;" xml:space="preserve">
<style type="text/css">
	.st0{fill:#666666;}
</style>
<g>
	<g>
		<path class="st0" d="M435.7,54.3c-7-7.1-18.4-7-25.5,0l-64,64c-79.3-36-163.9-27.2-244.6,25.5C41.5,183,5,232.3,3.5,234.4
			c-4.8,6.6-4.6,15.6,0.5,22c34.2,42,70,74.7,106.6,97.5l-56.3,56.3c-7,7-7,18.4,0,25.5c3.5,3.5,8.1,5.3,12.7,5.3s9.2-1.8,12.7-5.3
			l356-355.9C442.7,72.8,442.7,61.4,435.7,54.3z M200.5,264c-2.6-5.9-3.9-12.3-3.9-19c0-12.9,5-25.1,14.2-34.3
			c14.4-14.4,35.7-17.8,53.3-10.3L200.5,264z M290.7,173.9c-32.7-21-76.8-17.2-105.3,11.3c-16,16-24.7,37.2-24.7,59.7
			c0,16.4,4.7,32.1,13.4,45.6L137,327.6c-32.5-18.8-64.5-46.6-95.6-82.9c13.3-15.6,41.4-45.7,79.9-70.8
			c66.6-43.4,132.9-52.8,197.5-28.1L290.7,173.9z"/>
	</g>
</g>
<g>
	<g>
		<path class="st0" d="M486.1,233.6c-24.7-30.4-50.3-56-76.3-76.3c-7.9-6.1-19.2-4.7-25.4,3.1c-6.1,7.8-4.7,19.1,3.1,25.3
			c20.6,16.1,41.2,36.1,61.2,59.5c-11.8,13.8-34.8,38.6-66,61.3c-60.1,43.7-120.8,59.5-180.3,46.9c-9.7-2.1-19.3,4.2-21.3,13.9
			c-2.1,9.7,4.2,19.3,13.9,21.3c15.5,3.3,31.1,4.9,46.8,4.9c23.6,0,47.4-3.7,71.1-11.1c31.1-9.7,62-25.7,91.9-47.5
			c50.4-36.9,80.5-77.6,81.8-79.3C491.4,249,491.2,240,486.1,233.6z"/>
	</g>
</g>
</svg>
