<?xml version="1.0" encoding="utf-8"?>
<!-- Generator: Adobe Illustrator 23.0.6, SVG Export Plug-In . SVG Version: 6.00 Build 0)  -->
<svg version="1.1" xmlns="http://www.w3.org/2000/svg" xmlns:xlink="http://www.w3.org/1999/xlink" x="0px" y="0px"
	 viewBox="0 0 960 937" style="enable-background:new 0 0 960 937;" xml:space="preserve">
<style type="text/css">
	.st0{display:none;}
	.st1{display:inline;fill:#451000;stroke:#000000;stroke-miterlimit:10;}
	.st2{fill:none;stroke:#B0B2FF;stroke-width:4;stroke-miterlimit:10;}
	.st3{fill:#FFFFFF;}
	.st4{clip-path:url(#SVGID_2_);fill:#FEE199;}
	.st5{clip-path:url(#SVGID_4_);fill:#5D20F4;}
	.st6{clip-path:url(#SVGID_6_);fill:#F9FFD6;}
	.st7{clip-path:url(#SVGID_8_);fill:#F9FFD6;}
	.st8{clip-path:url(#SVGID_10_);fill:#FDBA8C;}
	.st9{clip-path:url(#SVGID_12_);fill:#F9FFD6;}
	.st10{clip-path:url(#SVGID_14_);fill:#F9FFD6;}
	.st11{clip-path:url(#SVGID_16_);fill:#F9FFD6;}
	.st12{clip-path:url(#SVGID_18_);fill:#F9FFD6;}
	.st13{fill:#B0B2FF;}
	.st14{fill:none;stroke:#6479FF;stroke-width:10.8;stroke-miterlimit:10;}
	.st15{clip-path:url(#SVGID_20_);fill:#B0B2FF;}
	.st16{clip-path:url(#SVGID_22_);fill:#6479FF;}
	.st17{clip-path:url(#SVGID_24_);fill:#F9FFD6;}
	.st18{clip-path:url(#SVGID_26_);fill:#9B9698;}
	.st19{clip-path:url(#SVGID_28_);fill:#5D20F4;}
	.st20{clip-path:url(#SVGID_30_);fill:#83677B;}
	.st21{clip-path:url(#SVGID_32_);fill:#F9FFD6;}
	.st22{clip-path:url(#SVGID_34_);fill:#F9FFD6;}
	.st23{clip-path:url(#SVGID_36_);fill:#F9FFD6;}
	.st24{clip-path:url(#SVGID_38_);fill:#F9FFD6;}
	.st25{fill:none;stroke:#6479FF;stroke-width:8.5;stroke-miterlimit:10;}
	.st26{clip-path:url(#SVGID_40_);fill:#B0B2FF;}
	.st27{clip-path:url(#SVGID_42_);fill:#6479FF;}
	.st28{clip-path:url(#SVGID_44_);fill:#F9FFD6;}
</style>
<g id="Layer_2" class="st0">
	<rect x="-115.8" y="-87.9" class="st1" width="1216.7" height="1247"/>
</g>
<g id="Layer_1">
	<g id="dog_1_">
		<g id="helmet_1_">
			<ellipse class="st2" cx="455" cy="294.8" rx="126.5" ry="126.5"/>
			<path class="st3" d="M546.8,332.8"/>
		</g>
		<g id="dog_body_1_">
			<g>
				<g>
					<g>
						<g>
							<g>
								<g>
									<defs>
										<path id="SVGID_1_" d="M245.9,550.2c-38.6,1.2-73.7-23.6-85.8-60.1c-12.2-36.3,1-76.9,32.4-99.1c4.6-1.4,8.8-1,10.1,1
											c1.6,2.4-0.4,8.5-7.2,12.5c-24.2,20-33.4,52.9-22.9,81.4c11.2,31.1,43.2,51.3,77.6,47.5c5.9-8.5,15.4-20.5,29.1-32.7
											c18.3-16.3,35.1-24.3,39.3-26.5c46.2-23.9,71.7-68.8,95.9-104c3.3-4.9,5.9-8.9,7.9-11.7c-7.3-6.6-17.3-17.3-21.3-32.8
											c-4.6-16,0.1-26.1-0.3-43.8c-0.3-12.5-2.9-30.8-14.4-53.1c4.3,2.3,14.1,8.5,20.5,20.5c4,7.3,5.2,14.3,5.5,18.7
											c1.4-1.4,3.5-3.5,6.6-5c4.6-2.3,8.8-2.7,11.1-2.7c-3.9-16.3-7.6-32.7-11.5-49c5.2,3.3,15.6,11.1,22.6,25.5
											c5.3,11.1,6.3,21,6.6,26.6c7.3,4,17.3,10.9,23.2,22.6c6.6,13.4,3.3,23.5,5.3,34.9c2.4,12.8,12.2,29.8,46.2,46.4
											c1.4,2.2,5.8,9.1,3.5,15.6c-3.2,8.5-17.3,14.1-33.6,8.6c-17.4-6.2-34.9-12.2-52.1-18.6c-2.9,21.6-5.5,43.5-8.4,65
											c2.2,33.4,4.5,67,6.6,100.4c0.1,0.7,0.3,1.7,1.2,2.2c0.7,0.4,1.6,0.3,1.9,0.3c3.5-0.6,32.8-12.5,48.7-16.1
											c4.9-1.2,12.1-2.3,14.7,1c1.2,1.6,1,4,0.7,5.6c-5.8,16.1-11.5,32.3-17.1,48.4c-5.9,5.3-9.8,7.2-12.2,5.9
											c-3.7-2-2.7-12.8,3.2-32.3c-21.7,8.5-38.6,14.5-48.4,17.7c-2.6,0.9-7.9,2.4-11.7-0.1c-2.9-2.2-3.6-6-3.9-8.2
											c-2.2-15.4-3.6-38.2-3.9-41.6c-8.6,9.8-17.9,19.2-26.1,29.2c-11.2,13.5-22.5,27.4-26.1,29.2c-9.9,7.2-20.3,14.5-30.2,21.7
											c-4.5,33-8.6,58-11.7,68c-0.7,2.4-2.2,6.8-6,9.5c-5,3.2-10.9,2-12.8,1.6c-10.5-2-39.6-2.7-82.8-2.4
											c-0.4,7.2,0.1,12.8,1,16.7c0.3,2,1,4.3,0.7,7.6s-1.4,9.4-4.2,10.1c-3,0.7-6.9-5.9-9.8-10.7c-5.3-9.1-3.7-10.9-9.1-29.8
											c-0.4-1.6-1.6-5,0.3-7.5c1.3-1.7,3.5-2.2,4.5-2.3c5.2-0.6,36.7-4.9,80.1-10.7c0.3,0,0.9,0,1.4-0.3
											c0.9-0.6,1.3-1.6,1.2-2.9c-1.2-24.2-2.4-48.4-3.6-72.6c-2.7,19.7-5.3,39.8-8.1,59.5c-1,7.3-2,14.8-2.9,22
											c-14.1-2.7-28.4-5.6-43.1-9.1c-15.4-3.5-30.5-7.2-44.9-11.1c0.3,1.6,1.2,4.3,2.2,7.6c2.2,6.3,3.3,7.5,3.9,10.4
											c1.4,6.6-1,15.1-4.6,16c-4.8,1.2-11.1-10.2-13.5-15.6c-0.7-1.6-1.2-2.9-4.2-14.1c-4.5-16.7-4.8-19.7-2.9-21.7
											c1-1,3.3-2.7,9.2-1.7c7.2,1,22.9,3.2,29.8,4c12.1,1.6,29.1,4,41.2,5.6c0.3,0,1.4,0.3,2.4-0.6c1.4-1,1.4-2.7,1.4-2.9
											C243.9,611.8,244.3,599.7,245.9,550.2z"/>
									</defs>
									<clipPath id="SVGID_2_">
										<use xlink:href="#SVGID_1_"  style="overflow:visible;"/>
									</clipPath>
									<path class="st4" d="M352.2,305.3c11.2,33,48,49,63.4,54.6c7.2-9.8,19.9-10.4,25.2-5c4,4,4.6,11.8,1,18.7
										c10.8,16.1,31.1,40.3,59.3,43.8c56.2,7.1,126.2-68.1,116.4-145.6c-9.1-71.3-75.8-121.4-148.9-112.2
										C392.7,169.2,333.2,250.2,352.2,305.3z"/>
								</g>
							</g>
						</g>
					</g>
				</g>
			</g>
			<g>
				<g>
					<g>
						<g>
							<g>
								<g>
									<defs>
										<path id="SVGID_3_" d="M245.9,550.2c-38.6,1.2-73.7-23.6-85.8-60.1c-12.2-36.3,1-76.9,32.4-99.1c4.6-1.4,8.8-1,10.1,1
											c1.6,2.4-0.4,8.5-7.2,12.5c-24.2,20-33.4,52.9-22.9,81.4c11.2,31.1,43.2,51.3,77.6,47.5c5.9-8.5,15.4-20.5,29.1-32.7
											c18.3-16.3,35.1-24.3,39.3-26.5c46.2-23.9,71.7-68.8,95.9-104c3.3-4.9,5.9-8.9,7.9-11.7c-7.3-6.6-17.3-17.3-21.3-32.8
											c-4.6-16,0.1-26.1-0.3-43.8c-0.3-12.5-2.9-30.8-14.4-53.1c4.3,2.3,14.1,8.5,20.5,20.5c4,7.3,5.2,14.3,5.5,18.7
											c1.4-1.4,3.5-3.5,6.6-5c4.6-2.3,8.8-2.7,11.1-2.7c-3.9-16.3-7.6-32.7-11.5-49c5.2,3.3,15.6,11.1,22.6,25.5
											c5.3,11.1,6.3,21,6.6,26.6c7.3,4,17.3,10.9,23.2,22.6c6.6,13.4,3.3,23.5,5.3,34.9c2.4,12.8,12.2,29.8,46.2,46.4
											c1.4,2.2,5.8,9.1,3.5,15.6c-3.2,8.5-17.3,14.1-33.6,8.6c-17.4-6.2-34.9-12.2-52.1-18.6c-2.9,21.6-5.5,43.5-8.4,65
											c2.2,33.4,4.5,67,6.6,100.4c0.1,0.7,0.3,1.7,1.2,2.2c0.7,0.4,1.6,0.3,1.9,0.3c3.5-0.6,32.8-12.5,48.7-16.1
											c4.9-1.2,12.1-2.3,14.7,1c1.2,1.6,1,4,0.7,5.6c-5.8,16.1-11.5,32.3-17.1,48.4c-5.9,5.3-9.8,7.2-12.2,5.9
											c-3.7-2-2.7-12.8,3.2-32.3c-21.7,8.5-38.6,14.5-48.4,17.7c-2.6,0.9-7.9,2.4-11.7-0.1c-2.9-2.2-3.6-6-3.9-8.2
											c-2.2-15.4-3.6-38.2-3.9-41.6c-8.6,9.8-17.9,19.2-26.1,29.2c-11.2,13.5-22.5,27.4-26.1,29.2c-9.9,7.2-20.3,14.5-30.2,21.7
											c-4.5,33-8.6,58-11.7,68c-0.7,2.4-2.2,6.8-6,9.5c-5,3.2-10.9,2-12.8,1.6c-10.5-2-39.6-2.7-82.8-2.4
											c-0.4,7.2,0.1,12.8,1,16.7c0.3,2,1,4.3,0.7,7.6s-1.4,9.4-4.2,10.1c-3,0.7-6.9-5.9-9.8-10.7c-5.3-9.1-3.7-10.9-9.1-29.8
											c-0.4-1.6-1.6-5,0.3-7.5c1.3-1.7,3.5-2.2,4.5-2.3c5.2-0.6,36.7-4.9,80.1-10.7c0.3,0,0.9,0,1.4-0.3
											c0.9-0.6,1.3-1.6,1.2-2.9c-1.2-24.2-2.4-48.4-3.6-72.6c-2.7,19.7-5.3,39.8-8.1,59.5c-1,7.3-2,14.8-2.9,22
											c-14.1-2.7-28.4-5.6-43.1-9.1c-15.4-3.5-30.5-7.2-44.9-11.1c0.3,1.6,1.2,4.3,2.2,7.6c2.2,6.3,3.3,7.5,3.9,10.4
											c1.4,6.6-1,15.1-4.6,16c-4.8,1.2-11.1-10.2-13.5-15.6c-0.7-1.6-1.2-2.9-4.2-14.1c-4.5-16.7-4.8-19.7-2.9-21.7
											c1-1,3.3-2.7,9.2-1.7c7.2,1,22.9,3.2,29.8,4c12.1,1.6,29.1,4,41.2,5.6c0.3,0,1.4,0.3,2.4-0.6c1.4-1,1.4-2.7,1.4-2.9
											C243.9,611.8,244.3,599.7,245.9,550.2z"/>
									</defs>
									<clipPath id="SVGID_4_">
										<use xlink:href="#SVGID_3_"  style="overflow:visible;"/>
									</clipPath>
									<path class="st5" d="M511.5,445.7c-23.6-22.8-47.2-45.6-70.9-68.4c1.9-4.4,3.7-8.8,5.6-13.1l-13.1-12.8l-13.8,4.6
										l-11.2,14.6l-244.3-9.7L72.4,541.7L159.8,765l400.8-92.4L511.5,445.7z"/>
								</g>
							</g>
						</g>
					</g>
				</g>
			</g>
			<g>
				<g>
					<g>
						<g>
							<g>
								<g>
									<defs>
										<path id="SVGID_5_" d="M245.9,550.2c-38.6,1.2-73.7-23.6-85.8-60.1c-12.2-36.3,1-76.9,32.4-99.1c4.6-1.4,8.8-1,10.1,1
											c1.6,2.4-0.4,8.5-7.2,12.5c-24.2,20-33.4,52.9-22.9,81.4c11.2,31.1,43.2,51.3,77.6,47.5c5.9-8.5,15.4-20.5,29.1-32.7
											c18.3-16.3,35.1-24.3,39.3-26.5c46.2-23.9,71.7-68.8,95.9-104c3.3-4.9,5.9-8.9,7.9-11.7c-7.3-6.6-17.3-17.3-21.3-32.8
											c-4.6-16,0.1-26.1-0.3-43.8c-0.3-12.5-2.9-30.8-14.4-53.1c4.3,2.3,14.1,8.5,20.5,20.5c4,7.3,5.2,14.3,5.5,18.7
											c1.4-1.4,3.5-3.5,6.6-5c4.6-2.3,8.8-2.7,11.1-2.7c-3.9-16.3-7.6-32.7-11.5-49c5.2,3.3,15.6,11.1,22.6,25.5
											c5.3,11.1,6.3,21,6.6,26.6c7.3,4,17.3,10.9,23.2,22.6c6.6,13.4,3.3,23.5,5.3,34.9c2.4,12.8,12.2,29.8,46.2,46.4
											c1.4,2.2,5.8,9.1,3.5,15.6c-3.2,8.5-17.3,14.1-33.6,8.6c-17.4-6.2-34.9-12.2-52.1-18.6c-2.9,21.6-5.5,43.5-8.4,65
											c2.2,33.4,4.5,67,6.6,100.4c0.1,0.7,0.3,1.7,1.2,2.2c0.7,0.4,1.6,0.3,1.9,0.3c3.5-0.6,32.8-12.5,48.7-16.1
											c4.9-1.2,12.1-2.3,14.7,1c1.2,1.6,1,4,0.7,5.6c-5.8,16.1-11.5,32.3-17.1,48.4c-5.9,5.3-9.8,7.2-12.2,5.9
											c-3.7-2-2.7-12.8,3.2-32.3c-21.7,8.5-38.6,14.5-48.4,17.7c-2.6,0.9-7.9,2.4-11.7-0.1c-2.9-2.2-3.6-6-3.9-8.2
											c-2.2-15.4-3.6-38.2-3.9-41.6c-8.6,9.8-17.9,19.2-26.1,29.2c-11.2,13.5-22.5,27.4-26.1,29.2c-9.9,7.2-20.3,14.5-30.2,21.7
											c-4.5,33-8.6,58-11.7,68c-0.7,2.4-2.2,6.8-6,9.5c-5,3.2-10.9,2-12.8,1.6c-10.5-2-39.6-2.7-82.8-2.4
											c-0.4,7.2,0.1,12.8,1,16.7c0.3,2,1,4.3,0.7,7.6s-1.4,9.4-4.2,10.1c-3,0.7-6.9-5.9-9.8-10.7c-5.3-9.1-3.7-10.9-9.1-29.8
											c-0.4-1.6-1.6-5,0.3-7.5c1.3-1.7,3.5-2.2,4.5-2.3c5.2-0.6,36.7-4.9,80.1-10.7c0.3,0,0.9,0,1.4-0.3
											c0.9-0.6,1.3-1.6,1.2-2.9c-1.2-24.2-2.4-48.4-3.6-72.6c-2.7,19.7-5.3,39.8-8.1,59.5c-1,7.3-2,14.8-2.9,22
											c-14.1-2.7-28.4-5.6-43.1-9.1c-15.4-3.5-30.5-7.2-44.9-11.1c0.3,1.6,1.2,4.3,2.2,7.6c2.2,6.3,3.3,7.5,3.9,10.4
											c1.4,6.6-1,15.1-4.6,16c-4.8,1.2-11.1-10.2-13.5-15.6c-0.7-1.6-1.2-2.9-4.2-14.1c-4.5-16.7-4.8-19.7-2.9-21.7
											c1-1,3.3-2.7,9.2-1.7c7.2,1,22.9,3.2,29.8,4c12.1,1.6,29.1,4,41.2,5.6c0.3,0,1.4,0.3,2.4-0.6c1.4-1,1.4-2.7,1.4-2.9
											C243.9,611.8,244.3,599.7,245.9,550.2z"/>
									</defs>
									<clipPath id="SVGID_6_">
										<use xlink:href="#SVGID_5_"  style="overflow:visible;"/>
									</clipPath>
									<path class="st6" d="M254.8,544.8c-4.9-2-9.2-1.6-10.4-1.6c-31.1,0.6-60.1-15.1-74.7-41.2c-17.6-31.4-7.2-65.7,2.4-82.8
										c8.6-15.3,19.7-22.8,18.7-24.2c-2.4-2.9-51.1,15.6-65.8,51.8C92.7,526,235.3,616.7,243,612.4c0.3-0.1,3.3-2.2,6.9-1.9
										c0.7,0.1,2.4,0.1,4,1.2c1.6,1.1,2.2,2.2,5.3,5.4c0,0,0.1,0.1,0.1,0.1c0.7,0.9,1.3,1.4,1.6,1.6c0.3-2.6,0.4-5.2,0.7-7.8
										c1.5-13.8,3.4-27.2,5.9-39.9c0.3-1.4,1.9-2,3-1.2c2.2,1.5,4.4,3.1,6.5,4.6c0.5,0.4,0.8,0.9,0.8,1.5
										c0.3,11.7,0.7,23.2,1,34.9c0.2,5.8,0.4,11.7,0.6,17.4c0.1,1.7,2.1,2.5,3.3,1.3c0,0,0.1,0,0.1-0.1
										c5.1-4.4,14.1,0.5,15.5,1.1c0.1,0,0.2,0.1,0.2,0.1c1.9,1.2,3.4,2.5,4.6,3.9c1.1,1.3,3.3,0.6,3.4-1.1
										c1.7-18.6,2.7-33.9,3.2-45c0,0,0.7-8.5-3-18.1c-2-4.8-4-6.6-5.2-7.2c-0.8-0.5-1.8-1-2.1-1.1c-0.1,0-0.2-0.1-0.2-0.1
										c-2.6-0.9-5-0.3-16.8-3.9c-10.2-3-15.4-4.8-19.3-8.1C260.6,548.7,258.7,546.4,254.8,544.8z"/>
								</g>
							</g>
						</g>
					</g>
				</g>
			</g>
			<g>
				<g>
					<g>
						<g>
							<g>
								<g>
									<defs>
										<path id="SVGID_7_" d="M245.9,550.2c-38.6,1.2-73.7-23.6-85.8-60.1c-12.2-36.3,1-76.9,32.4-99.1c4.6-1.4,8.8-1,10.1,1
											c1.6,2.4-0.4,8.5-7.2,12.5c-24.2,20-33.4,52.9-22.9,81.4c11.2,31.1,43.2,51.3,77.6,47.5c5.9-8.5,15.4-20.5,29.1-32.7
											c18.3-16.3,35.1-24.3,39.3-26.5c46.2-23.9,71.7-68.8,95.9-104c3.3-4.9,5.9-8.9,7.9-11.7c-7.3-6.6-17.3-17.3-21.3-32.8
											c-4.6-16,0.1-26.1-0.3-43.8c-0.3-12.5-2.9-30.8-14.4-53.1c4.3,2.3,14.1,8.5,20.5,20.5c4,7.3,5.2,14.3,5.5,18.7
											c1.4-1.4,3.5-3.5,6.6-5c4.6-2.3,8.8-2.7,11.1-2.7c-3.9-16.3-7.6-32.7-11.5-49c5.2,3.3,15.6,11.1,22.6,25.5
											c5.3,11.1,6.3,21,6.6,26.6c7.3,4,17.3,10.9,23.2,22.6c6.6,13.4,3.3,23.5,5.3,34.9c2.4,12.8,12.2,29.8,46.2,46.4
											c1.4,2.2,5.8,9.1,3.5,15.6c-3.2,8.5-17.3,14.1-33.6,8.6c-17.4-6.2-34.9-12.2-52.1-18.6c-2.9,21.6-5.5,43.5-8.4,65
											c2.2,33.4,4.5,67,6.6,100.4c0.1,0.7,0.3,1.7,1.2,2.2c0.7,0.4,1.6,0.3,1.9,0.3c3.5-0.6,32.8-12.5,48.7-16.1
											c4.9-1.2,12.1-2.3,14.7,1c1.2,1.6,1,4,0.7,5.6c-5.8,16.1-11.5,32.3-17.1,48.4c-5.9,5.3-9.8,7.2-12.2,5.9
											c-3.7-2-2.7-12.8,3.2-32.3c-21.7,8.5-38.6,14.5-48.4,17.7c-2.6,0.9-7.9,2.4-11.7-0.1c-2.9-2.2-3.6-6-3.9-8.2
											c-2.2-15.4-3.6-38.2-3.9-41.6c-8.6,9.8-17.9,19.2-26.1,29.2c-11.2,13.5-22.5,27.4-26.1,29.2c-9.9,7.2-20.3,14.5-30.2,21.7
											c-4.5,33-8.6,58-11.7,68c-0.7,2.4-2.2,6.8-6,9.5c-5,3.2-10.9,2-12.8,1.6c-10.5-2-39.6-2.7-82.8-2.4
											c-0.4,7.2,0.1,12.8,1,16.7c0.3,2,1,4.3,0.7,7.6s-1.4,9.4-4.2,10.1c-3,0.7-6.9-5.9-9.8-10.7c-5.3-9.1-3.7-10.9-9.1-29.8
											c-0.4-1.6-1.6-5,0.3-7.5c1.3-1.7,3.5-2.2,4.5-2.3c5.2-0.6,36.7-4.9,80.1-10.7c0.3,0,0.9,0,1.4-0.3
											c0.9-0.6,1.3-1.6,1.2-2.9c-1.2-24.2-2.4-48.4-3.6-72.6c-2.7,19.7-5.3,39.8-8.1,59.5c-1,7.3-2,14.8-2.9,22
											c-14.1-2.7-28.4-5.6-43.1-9.1c-15.4-3.5-30.5-7.2-44.9-11.1c0.3,1.6,1.2,4.3,2.2,7.6c2.2,6.3,3.3,7.5,3.9,10.4
											c1.4,6.6-1,15.1-4.6,16c-4.8,1.2-11.1-10.2-13.5-15.6c-0.7-1.6-1.2-2.9-4.2-14.1c-4.5-16.7-4.8-19.7-2.9-21.7
											c1-1,3.3-2.7,9.2-1.7c7.2,1,22.9,3.2,29.8,4c12.1,1.6,29.1,4,41.2,5.6c0.3,0,1.4,0.3,2.4-0.6c1.4-1,1.4-2.7,1.4-2.9
											C243.9,611.8,244.3,599.7,245.9,550.2z"/>
									</defs>
									<clipPath id="SVGID_8_">
										<use xlink:href="#SVGID_7_"  style="overflow:visible;"/>
									</clipPath>
									<path class="st7" d="M412.4,521.1L412.4,521.1c4.1-4.1,11.1-1.5,11.5,4.3c0.7,9.9,1.5,19.8,2.2,29.8c0.3,4.3,4.6,7.3,8.8,6
										c15.1-4.7,30.3-9.3,45.4-13.9c4.8-1.5,9.6,2.7,8.7,7.6c-3.3,18.5-7.3,28.1-12.1,28.4c-0.9,0-1.7-0.2-2.5-0.7
										c-1.7-0.9-3.5-1.1-5.3-0.6c-13.9,4.3-28.1,8.7-42,13.1c-1.5,0.5-3.1,0.4-4.6-0.2l-7.6-3.1c-2.3-0.9-3.9-3-4.2-5.4
										l-5.8-45.6c-0.1-1.1,0-2.3,0.4-3.3l5.5-14.1C411.2,522.5,411.7,521.8,412.4,521.1z"/>
								</g>
							</g>
						</g>
					</g>
				</g>
			</g>
			<g>
				<g>
					<g>
						<g>
							<g>
								<g>
									<defs>
										<path id="SVGID_9_" d="M245.9,550.2c-38.6,1.2-73.7-23.6-85.8-60.1c-12.2-36.3,1-76.9,32.4-99.1c4.6-1.4,8.8-1,10.1,1
											c1.6,2.4-0.4,8.5-7.2,12.5c-24.2,20-33.4,52.9-22.9,81.4c11.2,31.1,43.2,51.3,77.6,47.5c5.9-8.5,15.4-20.5,29.1-32.7
											c18.3-16.3,35.1-24.3,39.3-26.5c46.2-23.9,71.7-68.8,95.9-104c3.3-4.9,5.9-8.9,7.9-11.7c-7.3-6.6-17.3-17.3-21.3-32.8
											c-4.6-16,0.1-26.1-0.3-43.8c-0.3-12.5-2.9-30.8-14.4-53.1c4.3,2.3,14.1,8.5,20.5,20.5c4,7.3,5.2,14.3,5.5,18.7
											c1.4-1.4,3.5-3.5,6.6-5c4.6-2.3,8.8-2.7,11.1-2.7c-3.9-16.3-7.6-32.7-11.5-49c5.2,3.3,15.6,11.1,22.6,25.5
											c5.3,11.1,6.3,21,6.6,26.6c7.3,4,17.3,10.9,23.2,22.6c6.6,13.4,3.3,23.5,5.3,34.9c2.4,12.8,12.2,29.8,46.2,46.4
											c1.4,2.2,5.8,9.1,3.5,15.6c-3.2,8.5-17.3,14.1-33.6,8.6c-17.4-6.2-34.9-12.2-52.1-18.6c-2.9,21.6-5.5,43.5-8.4,65
											c2.2,33.4,4.5,67,6.6,100.4c0.1,0.7,0.3,1.7,1.2,2.2c0.7,0.4,1.6,0.3,1.9,0.3c3.5-0.6,32.8-12.5,48.7-16.1
											c4.9-1.2,12.1-2.3,14.7,1c1.2,1.6,1,4,0.7,5.6c-5.8,16.1-11.5,32.3-17.1,48.4c-5.9,5.3-9.8,7.2-12.2,5.9
											c-3.7-2-2.7-12.8,3.2-32.3c-21.7,8.5-38.6,14.5-48.4,17.7c-2.6,0.9-7.9,2.4-11.7-0.1c-2.9-2.2-3.6-6-3.9-8.2
											c-2.2-15.4-3.6-38.2-3.9-41.6c-8.6,9.8-17.9,19.2-26.1,29.2c-11.2,13.5-22.5,27.4-26.1,29.2c-9.9,7.2-20.3,14.5-30.2,21.7
											c-4.5,33-8.6,58-11.7,68c-0.7,2.4-2.2,6.8-6,9.5c-5,3.2-10.9,2-12.8,1.6c-10.5-2-39.6-2.7-82.8-2.4
											c-0.4,7.2,0.1,12.8,1,16.7c0.3,2,1,4.3,0.7,7.6s-1.4,9.4-4.2,10.1c-3,0.7-6.9-5.9-9.8-10.7c-5.3-9.1-3.7-10.9-9.1-29.8
											c-0.4-1.6-1.6-5,0.3-7.5c1.3-1.7,3.5-2.2,4.5-2.3c5.2-0.6,36.7-4.9,80.1-10.7c0.3,0,0.9,0,1.4-0.3
											c0.9-0.6,1.3-1.6,1.2-2.9c-1.2-24.2-2.4-48.4-3.6-72.6c-2.7,19.7-5.3,39.8-8.1,59.5c-1,7.3-2,14.8-2.9,22
											c-14.1-2.7-28.4-5.6-43.1-9.1c-15.4-3.5-30.5-7.2-44.9-11.1c0.3,1.6,1.2,4.3,2.2,7.6c2.2,6.3,3.3,7.5,3.9,10.4
											c1.4,6.6-1,15.1-4.6,16c-4.8,1.2-11.1-10.2-13.5-15.6c-0.7-1.6-1.2-2.9-4.2-14.1c-4.5-16.7-4.8-19.7-2.9-21.7
											c1-1,3.3-2.7,9.2-1.7c7.2,1,22.9,3.2,29.8,4c12.1,1.6,29.1,4,41.2,5.6c0.3,0,1.4,0.3,2.4-0.6c1.4-1,1.4-2.7,1.4-2.9
											C243.9,611.8,244.3,599.7,245.9,550.2z"/>
									</defs>
									<clipPath id="SVGID_10_">
										<use xlink:href="#SVGID_9_"  style="overflow:visible;"/>
									</clipPath>
									<path class="st8" d="M521.3,396.6c0-1.8-1-3.5-2.7-4.2c-10.7-4.6-21.2-9.1-32.1-13.9c-13.5-5.9-20.3-12.1-25.6-21
										c-8.5-13.8-1.3-21-7.6-42.5c-2.2-7.9-9.8-33.7-27.5-37.4c-13.3-2.7-25.1,8.4-27.4,10.4c-14.3,13.3-12.9,32.1-12.8,34.3
										c0,0.1,0,0.2,0,0.3c1.8,16.4,14,30.7,30.9,36.2c0.5,0.2,1.1,0.2,1.6,0.2c0,0,0,0,0.1,0c2.3-0.1,4.2-1.9,4.3-4.3
										c0.1-1.4,0.1-2.9,0.2-4.4c0-0.5,0.1-1.1,0.3-1.5c2.9-6.7,10.3-9.4,15.5-6.9c3.9,2,6.5,6.7,5.9,11.9c0,0.2-0.1,0.4-0.1,0.5
										c-1.2,5.4-2.5,10.9-3.6,16.4c-0.3,1.5,0.1,3,1.2,4.1l29.5,29.5c0.8,0.8,1.8,1.3,3,1.3l42.1,2c2.5,0.1,4.7-1.9,4.7-4.4
										L521.3,396.6z"/>
								</g>
							</g>
						</g>
					</g>
				</g>
			</g>
			<g>
				<g>
					<g>
						<g>
							<g>
								<g>
									<defs>
										<path id="SVGID_11_" d="M245.9,550.2c-38.6,1.2-73.7-23.6-85.8-60.1c-12.2-36.3,1-76.9,32.4-99.1c4.6-1.4,8.8-1,10.1,1
											c1.6,2.4-0.4,8.5-7.2,12.5c-24.2,20-33.4,52.9-22.9,81.4c11.2,31.1,43.2,51.3,77.6,47.5c5.9-8.5,15.4-20.5,29.1-32.7
											c18.3-16.3,35.1-24.3,39.3-26.5c46.2-23.9,71.7-68.8,95.9-104c3.3-4.9,5.9-8.9,7.9-11.7c-7.3-6.6-17.3-17.3-21.3-32.8
											c-4.6-16,0.1-26.1-0.3-43.8c-0.3-12.5-2.9-30.8-14.4-53.1c4.3,2.3,14.1,8.5,20.5,20.5c4,7.3,5.2,14.3,5.5,18.7
											c1.4-1.4,3.5-3.5,6.6-5c4.6-2.3,8.8-2.7,11.1-2.7c-3.9-16.3-7.6-32.7-11.5-49c5.2,3.3,15.6,11.1,22.6,25.5
											c5.3,11.1,6.3,21,6.6,26.6c7.3,4,17.3,10.9,23.2,22.6c6.6,13.4,3.3,23.5,5.3,34.9c2.4,12.8,12.2,29.8,46.2,46.4
											c1.4,2.2,5.8,9.1,3.5,15.6c-3.2,8.5-17.3,14.1-33.6,8.6c-17.4-6.2-34.9-12.2-52.1-18.6c-2.9,21.6-5.5,43.5-8.4,65
											c2.2,33.4,4.5,67,6.6,100.4c0.1,0.7,0.3,1.7,1.2,2.2c0.7,0.4,1.6,0.3,1.9,0.3c3.5-0.6,32.8-12.5,48.7-16.1
											c4.9-1.2,12.1-2.3,14.7,1c1.2,1.6,1,4,0.7,5.6c-5.8,16.1-11.5,32.3-17.1,48.4c-5.9,5.3-9.8,7.2-12.2,5.9
											c-3.7-2-2.7-12.8,3.2-32.3c-21.7,8.5-38.6,14.5-48.4,17.7c-2.6,0.9-7.9,2.4-11.7-0.1c-2.9-2.2-3.6-6-3.9-8.2
											c-2.2-15.4-3.6-38.2-3.9-41.6c-8.6,9.8-17.9,19.2-26.1,29.2c-11.2,13.5-22.5,27.4-26.1,29.2c-9.9,7.2-20.3,14.5-30.2,21.7
											c-4.5,33-8.6,58-11.7,68c-0.7,2.4-2.2,6.8-6,9.5c-5,3.2-10.9,2-12.8,1.6c-10.5-2-39.6-2.7-82.8-2.4
											c-0.4,7.2,0.1,12.8,1,16.7c0.3,2,1,4.3,0.7,7.6s-1.4,9.4-4.2,10.1c-3,0.7-6.9-5.9-9.8-10.7c-5.3-9.1-3.7-10.9-9.1-29.8
											c-0.4-1.6-1.6-5,0.3-7.5c1.3-1.7,3.5-2.2,4.5-2.3c5.2-0.6,36.7-4.9,80.1-10.7c0.3,0,0.9,0,1.4-0.3
											c0.9-0.6,1.3-1.6,1.2-2.9c-1.2-24.2-2.4-48.4-3.6-72.6c-2.7,19.7-5.3,39.8-8.1,59.5c-1,7.3-2,14.8-2.9,22
											c-14.1-2.7-28.4-5.6-43.1-9.1c-15.4-3.5-30.5-7.2-44.9-11.1c0.3,1.6,1.2,4.3,2.2,7.6c2.2,6.3,3.3,7.5,3.9,10.4
											c1.4,6.6-1,15.1-4.6,16c-4.8,1.2-11.1-10.2-13.5-15.6c-0.7-1.6-1.2-2.9-4.2-14.1c-4.5-16.7-4.8-19.7-2.9-21.7
											c1-1,3.3-2.7,9.2-1.7c7.2,1,22.9,3.2,29.8,4c12.1,1.6,29.1,4,41.2,5.6c0.3,0,1.4,0.3,2.4-0.6c1.4-1,1.4-2.7,1.4-2.9
											C243.9,611.8,244.3,599.7,245.9,550.2z"/>
									</defs>
									<clipPath id="SVGID_12_">
										<use xlink:href="#SVGID_11_"  style="overflow:visible;"/>
									</clipPath>
									<path class="st9" d="M155.6,625.6v-2.9c0-4.1,4.5-6.7,7.9-4.5c0.5,0.3,1,0.7,1.5,1.1c2,1.6,3,3.6,3.6,4.8
										c9.4,18,12.1,31.7,12.1,31.7c1.6,8.5,1.4,12-0.1,15.1c0,0,0,0.1,0,0.1c-1.8,3.6-6.8,3.8-9,0.5
										c-8.4-12.6-12.6-23.3-13.9-28.7C156,636.3,155.6,630.5,155.6,625.6z"/>
								</g>
							</g>
						</g>
					</g>
				</g>
			</g>
			<g>
				<g>
					<g>
						<g>
							<g>
								<g>
									<defs>
										<path id="SVGID_13_" d="M245.9,550.2c-38.6,1.2-73.7-23.6-85.8-60.1c-12.2-36.3,1-76.9,32.4-99.1c4.6-1.4,8.8-1,10.1,1
											c1.6,2.4-0.4,8.5-7.2,12.5c-24.2,20-33.4,52.9-22.9,81.4c11.2,31.1,43.2,51.3,77.6,47.5c5.9-8.5,15.4-20.5,29.1-32.7
											c18.3-16.3,35.1-24.3,39.3-26.5c46.2-23.9,71.7-68.8,95.9-104c3.3-4.9,5.9-8.9,7.9-11.7c-7.3-6.6-17.3-17.3-21.3-32.8
											c-4.6-16,0.1-26.1-0.3-43.8c-0.3-12.5-2.9-30.8-14.4-53.1c4.3,2.3,14.1,8.5,20.5,20.5c4,7.3,5.2,14.3,5.5,18.7
											c1.4-1.4,3.5-3.5,6.6-5c4.6-2.3,8.8-2.7,11.1-2.7c-3.9-16.3-7.6-32.7-11.5-49c5.2,3.3,15.6,11.1,22.6,25.5
											c5.3,11.1,6.3,21,6.6,26.6c7.3,4,17.3,10.9,23.2,22.6c6.6,13.4,3.3,23.5,5.3,34.9c2.4,12.8,12.2,29.8,46.2,46.4
											c1.4,2.2,5.8,9.1,3.5,15.6c-3.2,8.5-17.3,14.1-33.6,8.6c-17.4-6.2-34.9-12.2-52.1-18.6c-2.9,21.6-5.5,43.5-8.4,65
											c2.2,33.4,4.5,67,6.6,100.4c0.1,0.7,0.3,1.7,1.2,2.2c0.7,0.4,1.6,0.3,1.9,0.3c3.5-0.6,32.8-12.5,48.7-16.1
											c4.9-1.2,12.1-2.3,14.7,1c1.2,1.6,1,4,0.7,5.6c-5.8,16.1-11.5,32.3-17.1,48.4c-5.9,5.3-9.8,7.2-12.2,5.9
											c-3.7-2-2.7-12.8,3.2-32.3c-21.7,8.5-38.6,14.5-48.4,17.7c-2.6,0.9-7.9,2.4-11.7-0.1c-2.9-2.2-3.6-6-3.9-8.2
											c-2.2-15.4-3.6-38.2-3.9-41.6c-8.6,9.8-17.9,19.2-26.1,29.2c-11.2,13.5-22.5,27.4-26.1,29.2c-9.9,7.2-20.3,14.5-30.2,21.7
											c-4.5,33-8.6,58-11.7,68c-0.7,2.4-2.2,6.8-6,9.5c-5,3.2-10.9,2-12.8,1.6c-10.5-2-39.6-2.7-82.8-2.4
											c-0.4,7.2,0.1,12.8,1,16.7c0.3,2,1,4.3,0.7,7.6s-1.4,9.4-4.2,10.1c-3,0.7-6.9-5.9-9.8-10.7c-5.3-9.1-3.7-10.9-9.1-29.8
											c-0.4-1.6-1.6-5,0.3-7.5c1.3-1.7,3.5-2.2,4.5-2.3c5.2-0.6,36.7-4.9,80.1-10.7c0.3,0,0.9,0,1.4-0.3
											c0.9-0.6,1.3-1.6,1.2-2.9c-1.2-24.2-2.4-48.4-3.6-72.6c-2.7,19.7-5.3,39.8-8.1,59.5c-1,7.3-2,14.8-2.9,22
											c-14.1-2.7-28.4-5.6-43.1-9.1c-15.4-3.5-30.5-7.2-44.9-11.1c0.3,1.6,1.2,4.3,2.2,7.6c2.2,6.3,3.3,7.5,3.9,10.4
											c1.4,6.6-1,15.1-4.6,16c-4.8,1.2-11.1-10.2-13.5-15.6c-0.7-1.6-1.2-2.9-4.2-14.1c-4.5-16.7-4.8-19.7-2.9-21.7
											c1-1,3.3-2.7,9.2-1.7c7.2,1,22.9,3.2,29.8,4c12.1,1.6,29.1,4,41.2,5.6c0.3,0,1.4,0.3,2.4-0.6c1.4-1,1.4-2.7,1.4-2.9
											C243.9,611.8,244.3,599.7,245.9,550.2z"/>
									</defs>
									<clipPath id="SVGID_14_">
										<use xlink:href="#SVGID_13_"  style="overflow:visible;"/>
									</clipPath>
									<path class="st10" d="M202.3,669.6c-1-3.9-3.7-6.3-6.8-6.3c-1,0-1.9,0.4-2.6,0.8c-1,0.6-1.6,1.8-1.3,3
										c2.7,14.8,5.5,29.6,8,44.3c0.2,1,0.8,1.8,1.7,2.1l8.6,3.7c1.2,0.5,2.6,0.1,3.4-0.9h0c0.5-0.7,0.7-1.6,0.5-2.5
										C210.1,698.9,206.2,684.3,202.3,669.6z"/>
								</g>
							</g>
						</g>
					</g>
				</g>
			</g>
			<g>
				<g>
					<g>
						<g>
							<g>
								<g>
									<defs>
										<path id="SVGID_15_" d="M245.9,550.2c-38.6,1.2-73.7-23.6-85.8-60.1c-12.2-36.3,1-76.9,32.4-99.1c4.6-1.4,8.8-1,10.1,1
											c1.6,2.4-0.4,8.5-7.2,12.5c-24.2,20-33.4,52.9-22.9,81.4c11.2,31.1,43.2,51.3,77.6,47.5c5.9-8.5,15.4-20.5,29.1-32.7
											c18.3-16.3,35.1-24.3,39.3-26.5c46.2-23.9,71.7-68.8,95.9-104c3.3-4.9,5.9-8.9,7.9-11.7c-7.3-6.6-17.3-17.3-21.3-32.8
											c-4.6-16,0.1-26.1-0.3-43.8c-0.3-12.5-2.9-30.8-14.4-53.1c4.3,2.3,14.1,8.5,20.5,20.5c4,7.3,5.2,14.3,5.5,18.7
											c1.4-1.4,3.5-3.5,6.6-5c4.6-2.3,8.8-2.7,11.1-2.7c-3.9-16.3-7.6-32.7-11.5-49c5.2,3.3,15.6,11.1,22.6,25.5
											c5.3,11.1,6.3,21,6.6,26.6c7.3,4,17.3,10.9,23.2,22.6c6.6,13.4,3.3,23.5,5.3,34.9c2.4,12.8,12.2,29.8,46.2,46.4
											c1.4,2.2,5.8,9.1,3.5,15.6c-3.2,8.5-17.3,14.1-33.6,8.6c-17.4-6.2-34.9-12.2-52.1-18.6c-2.9,21.6-5.5,43.5-8.4,65
											c2.2,33.4,4.5,67,6.6,100.4c0.1,0.7,0.3,1.7,1.2,2.2c0.7,0.4,1.6,0.3,1.9,0.3c3.5-0.6,32.8-12.5,48.7-16.1
											c4.9-1.2,12.1-2.3,14.7,1c1.2,1.6,1,4,0.7,5.6c-5.8,16.1-11.5,32.3-17.1,48.4c-5.9,5.3-9.8,7.2-12.2,5.9
											c-3.7-2-2.7-12.8,3.2-32.3c-21.7,8.5-38.6,14.5-48.4,17.7c-2.6,0.9-7.9,2.4-11.7-0.1c-2.9-2.2-3.6-6-3.9-8.2
											c-2.2-15.4-3.6-38.2-3.9-41.6c-8.6,9.8-17.9,19.2-26.1,29.2c-11.2,13.5-22.5,27.4-26.1,29.2c-9.9,7.2-20.3,14.5-30.2,21.7
											c-4.5,33-8.6,58-11.7,68c-0.7,2.4-2.2,6.8-6,9.5c-5,3.2-10.9,2-12.8,1.6c-10.5-2-39.6-2.7-82.8-2.4
											c-0.4,7.2,0.1,12.8,1,16.7c0.3,2,1,4.3,0.7,7.6s-1.4,9.4-4.2,10.1c-3,0.7-6.9-5.9-9.8-10.7c-5.3-9.1-3.7-10.9-9.1-29.8
											c-0.4-1.6-1.6-5,0.3-7.5c1.3-1.7,3.5-2.2,4.5-2.3c5.2-0.6,36.7-4.9,80.1-10.7c0.3,0,0.9,0,1.4-0.3
											c0.9-0.6,1.3-1.6,1.2-2.9c-1.2-24.2-2.4-48.4-3.6-72.6c-2.7,19.7-5.3,39.8-8.1,59.5c-1,7.3-2,14.8-2.9,22
											c-14.1-2.7-28.4-5.6-43.1-9.1c-15.4-3.5-30.5-7.2-44.9-11.1c0.3,1.6,1.2,4.3,2.2,7.6c2.2,6.3,3.3,7.5,3.9,10.4
											c1.4,6.6-1,15.1-4.6,16c-4.8,1.2-11.1-10.2-13.5-15.6c-0.7-1.6-1.2-2.9-4.2-14.1c-4.5-16.7-4.8-19.7-2.9-21.7
											c1-1,3.3-2.7,9.2-1.7c7.2,1,22.9,3.2,29.8,4c12.1,1.6,29.1,4,41.2,5.6c0.3,0,1.4,0.3,2.4-0.6c1.4-1,1.4-2.7,1.4-2.9
											C243.9,611.8,244.3,599.7,245.9,550.2z"/>
									</defs>
									<clipPath id="SVGID_16_">
										<use xlink:href="#SVGID_15_"  style="overflow:visible;"/>
									</clipPath>
									<path class="st11" d="M263,674.1L263,674.1c0.8-0.6,1.9-0.8,2.9-0.8l43.3,2.5c3.9,0.2,5.8,4.8,3.2,7.8l-2.2,2.4
										c-1,1.1-2.5,1.7-4.1,1.5l-41.1-4.9C260.7,682.1,259.4,676.5,263,674.1z"/>
								</g>
							</g>
						</g>
					</g>
				</g>
			</g>
			<g>
				<g>
					<g>
						<g>
							<g>
								<g>
									<defs>
										<path id="SVGID_17_" d="M245.9,550.2c-38.6,1.2-73.7-23.6-85.8-60.1c-12.2-36.3,1-76.9,32.4-99.1c4.6-1.4,8.8-1,10.1,1
											c1.6,2.4-0.4,8.5-7.2,12.5c-24.2,20-33.4,52.9-22.9,81.4c11.2,31.1,43.2,51.3,77.6,47.5c5.9-8.5,15.4-20.5,29.1-32.7
											c18.3-16.3,35.1-24.3,39.3-26.5c46.2-23.9,71.7-68.8,95.9-104c3.3-4.9,5.9-8.9,7.9-11.7c-7.3-6.6-17.3-17.3-21.3-32.8
											c-4.6-16,0.1-26.1-0.3-43.8c-0.3-12.5-2.9-30.8-14.4-53.1c4.3,2.3,14.1,8.5,20.5,20.5c4,7.3,5.2,14.3,5.5,18.7
											c1.4-1.4,3.5-3.5,6.6-5c4.6-2.3,8.8-2.7,11.1-2.7c-3.9-16.3-7.6-32.7-11.5-49c5.2,3.3,15.6,11.1,22.6,25.5
											c5.3,11.1,6.3,21,6.6,26.6c7.3,4,17.3,10.9,23.2,22.6c6.6,13.4,3.3,23.5,5.3,34.9c2.4,12.8,12.2,29.8,46.2,46.4
											c1.4,2.2,5.8,9.1,3.5,15.6c-3.2,8.5-17.3,14.1-33.6,8.6c-17.4-6.2-34.9-12.2-52.1-18.6c0.1,0.2,0.8,1.2,0.6,2.6
											c-0.2,1.2-1,1.9-1.2,2.1c-0.1,1-0.3,2.1-0.4,3.1c-1.1,8.2-2.1,16.5-3.2,24.7c-1.4,10.8-2.8,21.6-4.2,32.5
											c2.2,33.4,4.5,67,6.6,100.4c0.1,0.7,0.3,1.7,1.2,2.2c0.7,0.4,1.6,0.3,1.9,0.3c3.5-0.6,32.8-12.5,48.7-16.1
											c4.9-1.2,12.1-2.3,14.7,1c1.2,1.6,1,4,0.7,5.6c-5.8,16.1-11.5,32.3-17.1,48.4c-5.9,5.3-9.8,7.2-12.2,5.9
											c-3.7-2-2.7-12.8,3.2-32.3c-21.7,8.5-38.6,14.5-48.4,17.7c-2.6,0.9-7.9,2.4-11.7-0.1c-2.9-2.2-3.6-6-3.9-8.2
											c-2.2-15.4-3.6-38.2-3.9-41.6c-8.6,9.8-17.9,19.2-26.1,29.2c-11.2,13.5-22.5,27.4-26.1,29.2c-9.9,7.2-20.3,14.5-30.2,21.7
											c-4.5,33-8.6,58-11.7,68c-0.7,2.4-2.2,6.8-6,9.5c-5,3.2-10.9,2-12.8,1.6c-10.5-2-39.6-2.7-82.8-2.4
											c-0.4,7.2,0.1,12.8,1,16.7c0.3,2,1,4.3,0.7,7.6c-0.3,3.3-1.4,9.4-4.2,10.1c-3,0.7-6.9-5.9-9.8-10.7
											c-5.3-9.1-3.7-10.9-9.1-29.8c-0.4-1.6-1.6-5,0.3-7.5c1.3-1.7,3.5-2.2,4.5-2.3c5.2-0.6,36.7-4.9,80.1-10.7
											c0.3,0,0.9,0,1.4-0.3c0.9-0.6,1.3-1.6,1.2-2.9c-1.2-24.2-2.4-48.4-3.6-72.6c-2.7,19.7-5.3,39.8-8.1,59.5
											c-1,7.3-2,14.8-2.9,22c-14.1-2.7-28.4-5.6-43.1-9.1c-15.4-3.5-30.5-7.2-44.9-11.1c0.3,1.6,1.2,4.3,2.2,7.6
											c2.2,6.3,3.3,7.5,3.9,10.4c1.4,6.6-1,15.1-4.6,16c-4.8,1.2-11.1-10.2-13.5-15.6c-0.7-1.6-1.2-2.9-4.2-14.1
											c-4.5-16.7-4.8-19.7-2.9-21.7c1-1,3.3-2.7,9.2-1.7c7.2,1,22.9,3.2,29.8,4c12.1,1.6,29.1,4,41.2,5.6c0.3,0,1.4,0.3,2.4-0.6
											c1.4-1,1.4-2.7,1.4-2.9C243.9,611.8,244.3,599.7,245.9,550.2z"/>
									</defs>
									<clipPath id="SVGID_18_">
										<use xlink:href="#SVGID_17_"  style="overflow:visible;"/>
									</clipPath>
									<path class="st12" d="M225.8,644.6l2.4-0.8c0.5-0.2,1-0.2,1.5-0.1c8.2,1.7,16.3,3.4,24.5,5.1c3.3,0.7,3.1,5.4-0.2,5.8
										c-0.1,0-0.1,0-0.2,0c-0.3,0-0.6,0-0.9,0c-9-1.5-17.8-2.9-26.7-4.4C223.1,649.9,222.8,645.6,225.8,644.6z"/>
								</g>
							</g>
						</g>
					</g>
				</g>
			</g>
		</g>
		<g id="helmet_brace_1_">
			<path class="st13" d="M418.4,364.8l-5.2,7.3c-0.7-1.4-2.9-5.3-2-10.7c0.1-0.7,0.9-5.3,4.6-9.4c5.3-5.3,14.1-7.1,21.2-4.2
				c6.3,2.6,10.7,8.5,11.7,13c0.1,0.4,0.1,0.7,0.3,0.9c0.1,0.5,1.9,7.6-2.9,12.5c-2.4,2.4-5.2,3.1-6.5,3.4c0.1-0.5,0.2-1.3,0.2-2.3
				c0.2-3,0.6-7.8-1.9-12.1c-0.6-1.1-1.6-2.8-3.7-4.1c-4.1-2.5-8.5-1.1-9-1C420.3,359.7,418.6,364.2,418.4,364.8z"/>
		</g>
		<g id="dog_details_1_">
			<g id="dog_wire_1_">
				<path class="st14" d="M363.1,215.7c-28.8-4.6-56.9,6.6-71.9,28.7c-16,23.5-15.4,56.7,0,76c26.1,32.7,89.6,18.9,106.9,47.8
					c1.6,2.7,5.9,9.8,4.8,18.9c-1.4,11.8-11.5,19.2-14.7,21.3"/>
			</g>
			<g id="dog_bag_1_">
				<g>
					<g>
						<g>
							<g>
								<g>
									<g>
										<defs>
											<path id="SVGID_19_" d="M415.9,406.7c-0.9-5.3-3.2-9.2-5-11.8c-6-1.4-13.4-2.6-21.7-2.9c-15.7-0.6-28.8,2.3-37.9,5.3
												c-26.6,22.5-53.4,44.9-80.1,67.5c-0.7,2.2-2.6,9.5,1.3,16.1c1,1.6,3.6,5.8,12.7,9.1c14.3,5.5,27.8,3.3,37.3,1.6
												c12-2.2,20.6-5.9,23.8-7.2c19.2-8.4,30.5-19.9,42.3-32C405.9,434.5,418.3,421.8,415.9,406.7z"/>
										</defs>
										<clipPath id="SVGID_20_">
											<use xlink:href="#SVGID_19_"  style="overflow:visible;"/>
										</clipPath>
										<ellipse class="st15" cx="344.1" cy="437.7" rx="83.2" ry="85.4"/>
									</g>
								</g>
							</g>
						</g>
					</g>
				</g>
				<g>
					<g>
						<g>
							<g>
								<g>
									<g>
										<defs>
											<path id="SVGID_21_" d="M415.9,406.7c-0.9-5.3-3.2-9.2-5-11.8c-6-1.4-13.4-2.6-21.7-2.9c-15.7-0.6-28.8,2.3-37.9,5.3
												c-26.6,22.5-53.4,44.9-80.1,67.5c-0.7,2.2-2.6,9.5,1.3,16.1c1,1.6,3.6,5.8,12.7,9.1c14.3,5.5,27.8,3.3,37.3,1.6
												c12-2.2,20.6-5.9,23.8-7.2c19.2-8.4,30.5-19.9,42.3-32C405.9,434.5,418.3,421.8,415.9,406.7z"/>
										</defs>
										<clipPath id="SVGID_22_">
											<use xlink:href="#SVGID_21_"  style="overflow:visible;"/>
										</clipPath>
										<path class="st16" d="M410.8,394.9c-8.4,11.2-19.9,24.8-35.6,38.2c-11.8,10-23.3,17.7-33.3,23.5c-2.4,1.4-3.8,4.2-3.4,6.9
											c1.2,8.2,2.4,16.3,3.7,24.5c0.5,3.4,3.4,5.9,6.8,5.9h6.9c2,0,3.9-0.9,5.2-2.4l55.5-64.3c1.1-1.3,1.7-2.9,1.7-4.6l-0.5-21
											C417.7,397.8,414.6,394.8,410.8,394.9L410.8,394.9L410.8,394.9z"/>
									</g>
								</g>
							</g>
						</g>
					</g>
				</g>
				<g>
					<g>
						<g>
							<g>
								<g>
									<g>
										<defs>
											<path id="SVGID_23_" d="M415.9,406.7c-0.9-5.3-3.2-9.2-5-11.8c-6-1.4-13.4-2.6-21.7-2.9c-15.7-0.6-28.8,2.3-37.9,5.3
												c-26.6,22.5-53.4,44.9-80.1,67.5c-0.7,2.2-2.6,9.5,1.3,16.1c1,1.6,3.6,5.8,12.7,9.1c14.3,5.5,27.8,3.3,37.3,1.6
												c12-2.2,20.6-5.9,23.8-7.2c19.2-8.4,30.5-19.9,42.3-32C405.9,434.5,418.3,421.8,415.9,406.7z"/>
										</defs>
										<clipPath id="SVGID_24_">
											<use xlink:href="#SVGID_23_"  style="overflow:visible;"/>
										</clipPath>
										<path class="st17" d="M346.8,478.5l-4.8-10.6c-2.3-5-8-7.3-13.1-5.2c-13.4,5.4-32,9.9-51.3,4.2c-1.1-0.3-2.2-0.7-3.2-1
											c-2.2-0.7-4.5-0.7-6.7,0.1l0,0c-5.8,2.1-8.4,9-5.5,14.4l10.7,19.9c1.5,2.7,4.1,4.6,7.1,5.2c10.5,1.9,29.4,3.5,49.1-5.8
											c5.8-2.6,10.7-5.7,14.6-8.8C347.5,487.9,348.8,482.8,346.8,478.5z"/>
									</g>
								</g>
							</g>
						</g>
					</g>
				</g>
			</g>
			<g id="dog_plug_1_">
				<path class="st13" d="M374.1,216.6c-0.9,4.8-5.3,8.5-10.7,8.1c-3-0.4-6-1-9.1-1.4c-0.3-0.1-1-0.7-1.4-1.6
					c-0.3-0.9-0.3-1.4-0.3-1.7c1,0,1.7,0.1,2.7,0.1c2.3-0.3,4.2-2,4.8-4c0.6-2.2-0.4-3.9-0.6-4c-0.9-1.4-2-2-2.4-2.2
					c-1.3-0.1-2.7-0.1-4-0.1c0.1-0.3,0.3-1,0.9-1.7c0.9-1,1.7-1.4,2.2-1.4c4-0.1,8.1-0.3,12.1-0.3
					C372.4,207.7,374.8,212.1,374.1,216.6z"/>
			</g>
		</g>
	</g>
	<g id="cat_1_">
		<g id="cat_helmet_1_">
			<ellipse class="st2" cx="674.3" cy="574" rx="87.9" ry="87.9"/>
			<path class="st3" d="M699.8,509.2"/>
		</g>
		<g id="cat_body_1_">
			<g>
				<g>
					<g>
						<g>
							<g>
								<g>
									<defs>
										<path id="SVGID_25_" d="M679.4,740.6c0.7,0.7,4,3.5,18.3-2.6c6.5-2.7,15.8-7.5,26.9-15.8c0.4,6.3,1.3,11.8,2,16
											c1,6.5,2,9.9,4.9,12.4c0.7,0.7,3,2.4,5.2,2c1.6-0.4,3.7-2.3,5.5-12.4c0.7-4.5,2.3-16.6-1.7-38.3c-0.3-1.3,0.3-4.5-1.6-5.9
											c-2-1.4-5.2-0.4-6.5,0c-6.5,2.2-10.2,9.8-34.4,19.4c0-1.2-0.1-2.9-0.3-4.9c-0.7-18.9-1.3-30.1-2.7-37.3
											c-1.4-7.3-5.6-19-19.2-32.1c0.4-0.4,0.4-0.6,0.6-1c7.3-9.8,31.8,6,42.5-3.9c0.4-0.4,2.6-6.3,7.1-17.9
											c1.3-3.9,2.4-6.9,1.6-10.9c-0.4-1.3-1.2-4.9-3.9-7.2c-5.2-4.2-12.4-1.2-16.3-6.2c-0.1-0.1-0.3-0.4-0.3-0.4
											c-1.3-11.5-5.5-15.8-8.4-17.1c0-0.1-0.1-0.1-0.1-0.1l-15.4-5.2c-0.1-0.1-0.4-0.4-0.4-0.4l-18.1-37.7
											c-0.3-0.7-1.3-0.4-1.3,0.1l-6.5,48.7c-0.3,0.6-1,0.9-1.3,0.4l-30.8-30.4c-0.6-0.4-1.4-0.1-1.3,0.7
											c7.6,46.4,11.2,60.2,13,64.2c0.3,0.4,0.3,0.4,0.3,0.4c3.2,7.6,6.5,9.6,9.2,13.7c0.3,0.4,0.1,0.4-0.1,1
											c-1,8.2-13,20.3-31,30.7c-5.6,3.5-9.6,4.9-13,6.3c-7.1,2.4-12.7,3.2-15,3.5c0,0-27.9,3.5-72.6,20c-4,1.4-7.9,3.3-7.9,3.3
											c-0.4,0.3-1.3,0.7-2.2,1c-2.3,1.3-5.6,3-9.9,5.9c-8.9-4.6-18.1-9.1-27.1-13.7c-0.1,0-0.4-0.1-0.4-0.4
											c-10.5-23.8-21-47.7-31.5-71.6c-0.6-0.7-6.2-10.5-16.1-10.7c-0.7-0.1-5.9-0.1-10.2,3c-7.3,5.5-9.1,18.1-4.3,31.3
											c11.7,23.2,23.6,45.8,35.1,69c0.3,0.7,0.7,1.9,2,2.9c1.9,1.9,4,2.2,4.9,2.3c3.9,0.7,20.5,5.5,43.6,11.5
											c0.4,0.1,0.6,0.4,0.6,0.6c2.3,20,7.2,32.4,11.5,40.2s4.8,9.5,6,17.3c1,6.5,0.3,9.2,0.7,15.8c0.4,5.5,4,19.2,5,21.7
											c0.1,0.3,0.4,1,0.1,1.6c-0.4,0.9-1.3,1.2-1.6,1.3c-4.2,1.3-22.8,12.7-26.8,15.3c-4.3,2.7-8.1,5.6-8.1,8.9
											c0,0.9,0.4,1.4,0.4,1.9c4.8,10.7,11.4,19.3,16.3,28.4c0.7,1.3,1.6,3,3.6,4.2c3.7,2.2,8.4,1.2,10.7,0.3
											c0.6-0.7,1.3-2,1.3-3.2c-0.3-2.2-3-3-5.3-5.5c-1.4-1.3-3.2-3.7-4.3-7.3c-0.4-1.9-1-3.6-1.4-5.5c-0.7-2.4-1.4-4.9-2.3-7.2
											c0-0.4,0-1.2,0.3-2c0.4-1.3,1.4-1.9,2.2-2.3c2-1.2,6.6-3.3,13-6c8.9-3,15.1-6.2,17-8.1c0.9-0.9,1.3-1.9,1.3-1.9
											c1.3-2,1.2-4,1-4.8c-0.1-3,0.4-17.6,1.3-37.7c0.4-0.6,0.7-1,1.3-1.3c3.7-3.2,10.2-0.7,10.9-0.4c10.7,21,19,36,21.6,39.6
											c1.7,2.3,3.6,4.2,3.6,4.2c2.2,2.2,3.2,3.3,5.2,4c4.3,1.9,9.1-1,14.1-3.9c2.9-1.9,4.8-3,4.9-4.8c0.1-2.2-3-3.9-3.6-4.2
											c-3,0.4-6,0.7-9.1,1.2c-0.7-0.4-2-1.3-3.3-2.6c0,0-1.9-1.7-3.6-4.2c-2-3.2-9.2-16.6-18-35.4c11.5-3,20.7-6.3,26.6-8.4
											c21.9-8.1,55-20.5,83.2-49.3c5.5-5.6,9.4-10.4,11.5-13.1c-0.1,3-0.1,7.5,0,12.7C677.7,738.2,678.3,739.6,679.4,740.6z"/>
									</defs>
									<clipPath id="SVGID_26_">
										<use xlink:href="#SVGID_25_"  style="overflow:visible;"/>
									</clipPath>
									<path id="SKIN_1_" class="st18" d="M658.8,519.3c61.7,1.5,112.8,107.6,93,129.9c-6.9,7.8-25.5,8.9-72.1-11.9
										c-2.5,1.1-5.1,2.2-7.6,3.3c-0.1-1.1-0.9-9.3-7.4-13.2c-6.9-4.1-17.5-1.8-23.8,6.8c-32.8-33.4-41.2-73.4-25.8-95.6
										C628.8,519,656.9,519.3,658.8,519.3z"/>
								</g>
							</g>
						</g>
					</g>
				</g>
			</g>
			<g>
				<g>
					<g>
						<g>
							<g>
								<g>
									<defs>
										<path id="SVGID_27_" d="M679.4,740.6c0.7,0.7,4,3.5,18.3-2.6c6.5-2.7,15.8-7.5,26.9-15.8c0.4,6.3,1.3,11.8,2,16
											c1,6.5,2,9.9,4.9,12.4c0.7,0.7,3,2.4,5.2,2c1.6-0.4,3.7-2.3,5.5-12.4c0.7-4.5,2.3-16.6-1.7-38.3c-0.3-1.3,0.3-4.5-1.6-5.9
											c-2-1.4-5.2-0.4-6.5,0c-6.5,2.2-10.2,9.8-34.4,19.4c0-1.2-0.1-2.9-0.3-4.9c-0.7-18.9-1.3-30.1-2.7-37.3
											c-1.4-7.3-5.6-19-19.2-32.1c0.4-0.4,0.4-0.6,0.6-1c7.3-9.8,31.8,6,42.5-3.9c0.4-0.4,2.6-6.3,7.1-17.9
											c1.3-3.9,2.4-6.9,1.6-10.9c-0.4-1.3-1.2-4.9-3.9-7.2c-5.2-4.2-12.4-1.2-16.3-6.2c-0.1-0.1-0.3-0.4-0.3-0.4
											c-1.3-11.5-5.5-15.8-8.4-17.1c0-0.1-0.1-0.1-0.1-0.1l-15.4-5.2c-0.1-0.1-0.4-0.4-0.4-0.4l-18.1-37.7
											c-0.3-0.7-1.3-0.4-1.3,0.1l-6.5,48.7c-0.3,0.6-1,0.9-1.3,0.4l-30.8-30.4c-0.6-0.4-1.4-0.1-1.3,0.7
											c7.6,46.4,11.2,60.2,13,64.2c0.3,0.4,0.3,0.4,0.3,0.4c3.2,7.6,6.5,9.6,9.2,13.7c0.3,0.4,0.1,0.4-0.1,1
											c-1,8.2-13,20.3-31,30.7c-5.6,3.5-9.6,4.9-13,6.3c-7.1,2.4-12.7,3.2-15,3.5c0,0-27.9,3.5-72.6,20c-4,1.4-7.9,3.3-7.9,3.3
											c-0.4,0.3-1.3,0.7-2.2,1c-2.3,1.3-5.6,3-9.9,5.9c-8.9-4.6-18.1-9.1-27.1-13.7c-0.1,0-0.4-0.1-0.4-0.4
											c-10.5-23.8-21-47.7-31.5-71.6c-0.6-0.7-6.2-10.5-16.1-10.7c-0.7-0.1-5.9-0.1-10.2,3c-7.3,5.5-9.1,18.1-4.3,31.3
											c11.7,23.2,23.6,45.8,35.1,69c0.3,0.7,0.7,1.9,2,2.9c1.9,1.9,4,2.2,4.9,2.3c3.9,0.7,20.5,5.5,43.6,11.5
											c0.4,0.1,0.6,0.4,0.6,0.6c2.3,20,7.2,32.4,11.5,40.2s4.8,9.5,6,17.3c1,6.5,0.3,9.2,0.7,15.8c0.4,5.5,4,19.2,5,21.7
											c0.1,0.3,0.4,1,0.1,1.6c-0.4,0.9-1.3,1.2-1.6,1.3c-4.2,1.3-22.8,12.7-26.8,15.3c-4.3,2.7-8.1,5.6-8.1,8.9
											c0,0.9,0.4,1.4,0.4,1.9c4.8,10.7,11.4,19.3,16.3,28.4c0.7,1.3,1.6,3,3.6,4.2c3.7,2.2,8.4,1.2,10.7,0.3
											c0.6-0.7,1.3-2,1.3-3.2c-0.3-2.2-3-3-5.3-5.5c-1.4-1.3-3.2-3.7-4.3-7.3c-0.4-1.9-1-3.6-1.4-5.5c-0.7-2.4-1.4-4.9-2.3-7.2
											c0-0.4,0-1.2,0.3-2c0.4-1.3,1.4-1.9,2.2-2.3c2-1.2,6.6-3.3,13-6c8.9-3,15.1-6.2,17-8.1c0.9-0.9,1.3-1.9,1.3-1.9
											c1.3-2,1.2-4,1-4.8c-0.1-3,0.4-17.6,1.3-37.7c0.4-0.6,0.7-1,1.3-1.3c3.7-3.2,10.2-0.7,10.9-0.4c10.7,21,19,36,21.6,39.6
											c1.7,2.3,3.6,4.2,3.6,4.2c2.2,2.2,3.2,3.3,5.2,4c4.3,1.9,9.1-1,14.1-3.9c2.9-1.9,4.8-3,4.9-4.8c0.1-2.2-3-3.9-3.6-4.2
											c-3,0.4-6,0.7-9.1,1.2c-0.7-0.4-2-1.3-3.3-2.6c0,0-1.9-1.7-3.6-4.2c-2-3.2-9.2-16.6-18-35.4c11.5-3,20.7-6.3,26.6-8.4
											c21.9-8.1,55-20.5,83.2-49.3c5.5-5.6,9.4-10.4,11.5-13.1c-0.1,3-0.1,7.5,0,12.7C677.7,738.2,678.3,739.6,679.4,740.6z"/>
									</defs>
									<clipPath id="SVGID_28_">
										<use xlink:href="#SVGID_27_"  style="overflow:visible;"/>
									</clipPath>
									<path id="BLUE_SUIT_1_" class="st19" d="M482,664.4l-37.9-80.9l-72.7,42.9l-5.3,252.3c51.6,22.2,120.5,46.1,204.4,60.5
										c86.8,15,162.5,14.7,219.8,10.4c-5.9-108.9-8.1-178.7-6.8-218.6c0.3-6.5,2.2-24.2-8.5-34.3c-11.7-11.1-32.1-7.3-42.5-4.8
										c-7.3-5.3-15-11.5-22.9-18.6c-9.1-8.2-17-16.3-23.8-23.9l-10.1-7.9l-1-7.5l-25.3-5.9l-53,15.8L482,664.4z"/>
								</g>
							</g>
						</g>
					</g>
				</g>
			</g>
			<g>
				<g>
					<g>
						<g>
							<g>
								<g>
									<defs>
										<path id="SVGID_29_" d="M679.4,740.6c0.7,0.7,4,3.5,18.3-2.6c6.5-2.7,15.8-7.5,26.9-15.8c0.4,6.3,1.3,11.8,2,16
											c1,6.5,2,9.9,4.9,12.4c0.7,0.7,3,2.4,5.2,2c1.6-0.4,3.7-2.3,5.5-12.4c0.7-4.5,2.3-16.6-1.7-38.3c-0.3-1.3,0.3-4.5-1.6-5.9
											c-2-1.4-5.2-0.4-6.5,0c-6.5,2.2-10.2,9.8-34.4,19.4c0-1.2-0.1-2.9-0.3-4.9c-0.7-18.9-1.3-30.1-2.7-37.3
											c-1.4-7.3-5.6-19-19.2-32.1c0.4-0.4,0.4-0.6,0.6-1c7.3-9.8,31.8,6,42.5-3.9c0.4-0.4,2.6-6.3,7.1-17.9
											c1.3-3.9,2.4-6.9,1.6-10.9c-0.4-1.3-1.2-4.9-3.9-7.2c-5.2-4.2-12.4-1.2-16.3-6.2c-0.1-0.1-0.3-0.4-0.3-0.4
											c-1.3-11.5-5.5-15.8-8.4-17.1c0-0.1-0.1-0.1-0.1-0.1l-15.4-5.2c-0.1-0.1-0.4-0.4-0.4-0.4l-18.1-37.7
											c-0.3-0.7-1.3-0.4-1.3,0.1l-6.5,48.7c-0.3,0.6-1,0.9-1.3,0.4l-30.8-30.4c-0.6-0.4-1.4-0.1-1.3,0.7
											c7.6,46.4,11.2,60.2,13,64.2c0.3,0.4,0.3,0.4,0.3,0.4c3.2,7.6,6.5,9.6,9.2,13.7c0.3,0.4,0.1,0.4-0.1,1
											c-1,8.2-13,20.3-31,30.7c-5.6,3.5-9.6,4.9-13,6.3c-7.1,2.4-12.7,3.2-15,3.5c0,0-27.9,3.5-72.6,20c-4,1.4-7.9,3.3-7.9,3.3
											c-0.4,0.3-1.3,0.7-2.2,1c-2.3,1.3-5.6,3-9.9,5.9c-8.9-4.6-18.1-9.1-27.1-13.7c-0.1,0-0.4-0.1-0.4-0.4
											c-10.5-23.8-21-47.7-31.5-71.6c-0.6-0.7-6.2-10.5-16.1-10.7c-0.7-0.1-5.9-0.1-10.2,3c-7.3,5.5-9.1,18.1-4.3,31.3
											c11.7,23.2,23.6,45.8,35.1,69c0.3,0.7,0.7,1.9,2,2.9c1.9,1.9,4,2.2,4.9,2.3c3.9,0.7,20.5,5.5,43.6,11.5
											c0.4,0.1,0.6,0.4,0.6,0.6c2.3,20,7.2,32.4,11.5,40.2s4.8,9.5,6,17.3c1,6.5,0.3,9.2,0.7,15.8c0.4,5.5,4,19.2,5,21.7
											c0.1,0.3,0.4,1,0.1,1.6c-0.4,0.9-1.3,1.2-1.6,1.3c-4.2,1.3-22.8,12.7-26.8,15.3c-4.3,2.7-8.1,5.6-8.1,8.9
											c0,0.9,0.4,1.4,0.4,1.9c4.8,10.7,11.4,19.3,16.3,28.4c0.7,1.3,1.6,3,3.6,4.2c3.7,2.2,8.4,1.2,10.7,0.3
											c0.6-0.7,1.3-2,1.3-3.2c-0.3-2.2-3-3-5.3-5.5c-1.4-1.3-3.2-3.7-4.3-7.3c-0.4-1.9-1-3.6-1.4-5.5c-0.7-2.4-1.4-4.9-2.3-7.2
											c0-0.4,0-1.2,0.3-2c0.4-1.3,1.4-1.9,2.2-2.3c2-1.2,6.6-3.3,13-6c8.9-3,15.1-6.2,17-8.1c0.9-0.9,1.3-1.9,1.3-1.9
											c1.3-2,1.2-4,1-4.8c-0.1-3,0.4-17.6,1.3-37.7c0.4-0.6,0.7-1,1.3-1.3c3.7-3.2,10.2-0.7,10.9-0.4c10.7,21,19,36,21.6,39.6
											c1.7,2.3,3.6,4.2,3.6,4.2c2.2,2.2,3.2,3.3,5.2,4c4.3,1.9,9.1-1,14.1-3.9c2.9-1.9,4.8-3,4.9-4.8c0.1-2.2-3-3.9-3.6-4.2
											c-3,0.4-6,0.7-9.1,1.2c-0.7-0.4-2-1.3-3.3-2.6c0,0-1.9-1.7-3.6-4.2c-2-3.2-9.2-16.6-18-35.4c11.5-3,20.7-6.3,26.6-8.4
											c21.9-8.1,55-20.5,83.2-49.3c5.5-5.6,9.4-10.4,11.5-13.1c-0.1,3-0.1,7.5,0,12.7C677.7,738.2,678.3,739.6,679.4,740.6z"/>
									</defs>
									<clipPath id="SVGID_30_">
										<use xlink:href="#SVGID_29_"  style="overflow:visible;"/>
									</clipPath>
									<path id="SKIN_SHADOW_1_1_" class="st20" d="M714.2,644.2c-9.6-0.4-19.3-0.9-28.9-1.2c-1.2,0-2.5-1.2-3.9-2.4
										c-3.7-3.1-5.5-7.5-5-7.8c0.3-0.2,1.3,1.4,1.9,1.1c1-0.5-0.7-5.5-1.1-9.5c0-0.4-0.1-0.8-0.3-1.2c-2.1-5.2-7.2-8.3-12.6-8.3
										c-5.3,0.1-10.1,3.5-12.1,8.5l-3.8,6.6c-1,1.8-3.1,2.7-5.1,2.2l-3.5-0.8c-1.5-0.3-2.7-1.4-3.2-2.8l-30.6-74.9
										c-1.2-2.8,0.7-6,3.7-6.4l9.1-1.1c2.1-0.3,4,0.9,4.9,2.8l14.1,33.1c0.2,0.5,0.5,0.9,0.8,1.2l4.5,5.2
										c1.6,1.8,4.2,2.1,6.2,0.7l5.9-4.2c1.3-0.9,2-2.4,2-3.9l-1.5-50.9c-0.1-2.4,1.7-4.4,4-4.7h0c2.6-0.3,4.9,1.4,5.2,4
										c0.2,1.3,0.3,2.6,0.6,3.9c0,0.2,0.1,0.4,0.1,0.5c0.7,16.8,2.3,30.2,4,39.6c1.3,7.9,2,11.2,3.5,15
										c1.3,3.6,6.8,17.7,20.6,26.1c6.9,4,8.5,2.9,15.3,7.1c3.7,2.1,8.3,6,12.4,13.3c1.2,2,0.6,4.6-1.3,6
										c-0.9,0.7-1.9,1.4-2.8,2.1C716.4,643.8,715.3,644.2,714.2,644.2z"/>
								</g>
							</g>
						</g>
					</g>
				</g>
			</g>
			<g>
				<g>
					<g>
						<g>
							<g>
								<g>
									<defs>
										<path id="SVGID_31_" d="M679.4,740.6c0.7,0.7,4,3.5,18.3-2.6c6.5-2.7,15.8-7.5,26.9-15.8c0.4,6.3,1.3,11.8,2,16
											c1,6.5,2,9.9,4.9,12.4c0.7,0.7,3,2.4,5.2,2c1.6-0.4,3.7-2.3,5.5-12.4c0.7-4.5,2.3-16.6-1.7-38.3c-0.3-1.3,0.3-4.5-1.6-5.9
											c-2-1.4-5.2-0.4-6.5,0c-6.5,2.2-10.2,9.8-34.4,19.4c0-1.2-0.1-2.9-0.3-4.9c-0.7-18.9-1.3-30.1-2.7-37.3
											c-1.4-7.3-5.6-19-19.2-32.1c0.4-0.4,0.4-0.6,0.6-1c7.3-9.8,31.8,6,42.5-3.9c0.4-0.4,2.6-6.3,7.1-17.9
											c1.3-3.9,2.4-6.9,1.6-10.9c-0.4-1.3-1.2-4.9-3.9-7.2c-5.2-4.2-12.4-1.2-16.3-6.2c-0.1-0.1-0.3-0.4-0.3-0.4
											c-1.3-11.5-5.5-15.8-8.4-17.1c0-0.1-0.1-0.1-0.1-0.1l-15.4-5.2c-0.1-0.1-0.4-0.4-0.4-0.4l-18.1-37.7
											c-0.3-0.7-1.3-0.4-1.3,0.1l-6.5,48.7c-0.3,0.6-1,0.9-1.3,0.4l-30.8-30.4c-0.6-0.4-1.4-0.1-1.3,0.7
											c7.6,46.4,11.2,60.2,13,64.2c0.3,0.4,0.3,0.4,0.3,0.4c3.2,7.6,6.5,9.6,9.2,13.7c0.3,0.4,0.1,0.4-0.1,1
											c-1,8.2-13,20.3-31,30.7c-5.6,3.5-9.6,4.9-13,6.3c-7.1,2.4-12.7,3.2-15,3.5c0,0-27.9,3.5-72.6,20c-4,1.4-7.9,3.3-7.9,3.3
											c-0.4,0.3-1.3,0.7-2.2,1c-2.3,1.3-5.6,3-9.9,5.9c-8.9-4.6-18.1-9.1-27.1-13.7c-0.1,0-0.4-0.1-0.4-0.4
											c-10.5-23.8-21-47.7-31.5-71.6c-0.6-0.7-6.2-10.5-16.1-10.7c-0.7-0.1-5.9-0.1-10.2,3c-7.3,5.5-9.1,18.1-4.3,31.3
											c11.7,23.2,23.6,45.8,35.1,69c0.3,0.7,0.7,1.9,2,2.9c1.9,1.9,4,2.2,4.9,2.3c3.9,0.7,20.5,5.5,43.6,11.5
											c0.4,0.1,0.6,0.4,0.6,0.6c2.3,20,7.2,32.4,11.5,40.2s4.8,9.5,6,17.3c1,6.5,0.3,9.2,0.7,15.8c0.4,5.5,4,19.2,5,21.7
											c0.1,0.3,0.4,1,0.1,1.6c-0.4,0.9-1.3,1.2-1.6,1.3c-4.2,1.3-22.8,12.7-26.8,15.3c-4.3,2.7-8.1,5.6-8.1,8.9
											c0,0.9,0.4,1.4,0.4,1.9c4.8,10.7,11.4,19.3,16.3,28.4c0.7,1.3,1.6,3,3.6,4.2c3.7,2.2,8.4,1.2,10.7,0.3
											c0.6-0.7,1.3-2,1.3-3.2c-0.3-2.2-3-3-5.3-5.5c-1.4-1.3-3.2-3.7-4.3-7.3c-0.4-1.9-1-3.6-1.4-5.5c-0.7-2.4-1.4-4.9-2.3-7.2
											c0-0.4,0-1.2,0.3-2c0.4-1.3,1.4-1.9,2.2-2.3c2-1.2,6.6-3.3,13-6c8.9-3,15.1-6.2,17-8.1c0.9-0.9,1.3-1.9,1.3-1.9
											c1.3-2,1.2-4,1-4.8c-0.1-3,0.4-17.6,1.3-37.7c0.4-0.6,0.7-1,1.3-1.3c3.7-3.2,10.2-0.7,10.9-0.4c10.7,21,19,36,21.6,39.6
											c1.7,2.3,3.6,4.2,3.6,4.2c2.2,2.2,3.2,3.3,5.2,4c4.3,1.9,9.1-1,14.1-3.9c2.9-1.9,4.8-3,4.9-4.8c0.1-2.2-3-3.9-3.6-4.2
											c-3,0.4-6,0.7-9.1,1.2c-0.7-0.4-2-1.3-3.3-2.6c0,0-1.9-1.7-3.6-4.2c-2-3.2-9.2-16.6-18-35.4c11.5-3,20.7-6.3,26.6-8.4
											c21.9-8.1,55-20.5,83.2-49.3c5.5-5.6,9.4-10.4,11.5-13.1c-0.1,3-0.1,7.5,0,12.7C677.7,738.2,678.3,739.6,679.4,740.6z"/>
									</defs>
									<clipPath id="SVGID_32_">
										<use xlink:href="#SVGID_31_"  style="overflow:visible;"/>
									</clipPath>
									<path id="HL_4_1_" class="st21" d="M681.6,747.4c-2.1-5.4-5-11.8-8.7-18.9c-0.7-1.3-0.7-2.9,0-4.2
										c1.9-3.8,3.7-7.6,5.6-11.4c2.1-4.3,8.5-3,8.8,1.8c0,0.1,0,0.1,0,0.2c0.7,11.5,1.9,13.8,3.3,15.4c2.6,3,5.8,3,17.6,4.9
										c13.4,2.2,20.2,3.2,20.6,5.2c0.3,1,0.4,3.6-22.8,15.8c-8.6,4.6-12.8,5.8-15.3,5.9c-1.7,0-3.2-1-4-2.5
										C685.8,758,684.4,754.7,681.6,747.4z"/>
								</g>
							</g>
						</g>
					</g>
				</g>
			</g>
			<g>
				<g>
					<g>
						<g>
							<g>
								<g>
									<defs>
										<path id="SVGID_33_" d="M679.4,740.6c0.7,0.7,4,3.5,18.3-2.6c6.5-2.7,15.8-7.5,26.9-15.8c0.4,6.3,1.3,11.8,2,16
											c1,6.5,2,9.9,4.9,12.4c0.7,0.7,3,2.4,5.2,2c1.6-0.4,3.7-2.3,5.5-12.4c0.7-4.5,2.3-16.6-1.7-38.3c-0.3-1.3,0.3-4.5-1.6-5.9
											c-2-1.4-5.2-0.4-6.5,0c-6.5,2.2-10.2,9.8-34.4,19.4c0-1.2-0.1-2.9-0.3-4.9c-0.7-18.9-1.3-30.1-2.7-37.3
											c-1.4-7.3-5.6-19-19.2-32.1c0.4-0.4,0.4-0.6,0.6-1c7.3-9.8,31.8,6,42.5-3.9c0.4-0.4,2.6-6.3,7.1-17.9
											c1.3-3.9,2.4-6.9,1.6-10.9c-0.4-1.3-1.2-4.9-3.9-7.2c-5.2-4.2-12.4-1.2-16.3-6.2c-0.1-0.1-0.3-0.4-0.3-0.4
											c-1.3-11.5-5.5-15.8-8.4-17.1c0-0.1-0.1-0.1-0.1-0.1l-15.4-5.2c-0.1-0.1-0.4-0.4-0.4-0.4l-18.1-37.7
											c-0.3-0.7-1.3-0.4-1.3,0.1l-6.5,48.7c-0.3,0.6-1,0.9-1.3,0.4l-30.8-30.4c-0.6-0.4-1.4-0.1-1.3,0.7
											c7.6,46.4,11.2,60.2,13,64.2c0.3,0.4,0.3,0.4,0.3,0.4c3.2,7.6,6.5,9.6,9.2,13.7c0.3,0.4,0.1,0.4-0.1,1
											c-1,8.2-13,20.3-31,30.7c-5.6,3.5-9.6,4.9-13,6.3c-7.1,2.4-12.7,3.2-15,3.5c0,0-27.9,3.5-72.6,20c-4,1.4-7.9,3.3-7.9,3.3
											c-0.4,0.3-1.3,0.7-2.2,1c-2.3,1.3-5.6,3-9.9,5.9c-8.9-4.6-18.1-9.1-27.1-13.7c-0.1,0-0.4-0.1-0.4-0.4
											c-10.5-23.8-21-47.7-31.5-71.6c-0.6-0.7-6.2-10.5-16.1-10.7c-0.7-0.1-5.9-0.1-10.2,3c-7.3,5.5-9.1,18.1-4.3,31.3
											c11.7,23.2,23.6,45.8,35.1,69c0.3,0.7,0.7,1.9,2,2.9c1.9,1.9,4,2.2,4.9,2.3c3.9,0.7,20.5,5.5,43.6,11.5
											c0.4,0.1,0.6,0.4,0.6,0.6c2.3,20,7.2,32.4,11.5,40.2s4.8,9.5,6,17.3c1,6.5,0.3,9.2,0.7,15.8c0.4,5.5,4,19.2,5,21.7
											c0.1,0.3,0.4,1,0.1,1.6c-0.4,0.9-1.3,1.2-1.6,1.3c-4.2,1.3-22.8,12.7-26.8,15.3c-4.3,2.7-8.1,5.6-8.1,8.9
											c0,0.9,0.4,1.4,0.4,1.9c4.8,10.7,11.4,19.3,16.3,28.4c0.7,1.3,1.6,3,3.6,4.2c3.7,2.2,8.4,1.2,10.7,0.3
											c0.6-0.7,1.3-2,1.3-3.2c-0.3-2.2-3-3-5.3-5.5c-1.4-1.3-3.2-3.7-4.3-7.3c-0.4-1.9-1-3.6-1.4-5.5c-0.7-2.4-1.4-4.9-2.3-7.2
											c0-0.4,0-1.2,0.3-2c0.4-1.3,1.4-1.9,2.2-2.3c2-1.2,6.6-3.3,13-6c8.9-3,15.1-6.2,17-8.1c0.9-0.9,1.3-1.9,1.3-1.9
											c1.3-2,1.2-4,1-4.8c-0.1-3,0.4-17.6,1.3-37.7c0.4-0.6,0.7-1,1.3-1.3c3.7-3.2,10.2-0.7,10.9-0.4c10.7,21,19,36,21.6,39.6
											c1.7,2.3,3.6,4.2,3.6,4.2c2.2,2.2,3.2,3.3,5.2,4c4.3,1.9,9.1-1,14.1-3.9c2.9-1.9,4.8-3,4.9-4.8c0.1-2.2-3-3.9-3.6-4.2
											c-3,0.4-6,0.7-9.1,1.2c-0.7-0.4-2-1.3-3.3-2.6c0,0-1.9-1.7-3.6-4.2c-2-3.2-9.2-16.6-18-35.4c11.5-3,20.7-6.3,26.6-8.4
											c21.9-8.1,55-20.5,83.2-49.3c5.5-5.6,9.4-10.4,11.5-13.1c-0.1,3-0.1,7.5,0,12.7C677.7,738.2,678.3,739.6,679.4,740.6z"/>
									</defs>
									<clipPath id="SVGID_34_">
										<use xlink:href="#SVGID_33_"  style="overflow:visible;"/>
									</clipPath>
									<path id="HL_3_1_" class="st22" d="M726.2,719.7c0,0,0.1-0.1,0.1-0.1c4-4.1,11-1.5,11.4,4.2c1.7,22.1,0.1,28.4-2.4,28.9
										c-1.4,0.4-4-1.3-5.5-2.6c-3-2.4-3.9-5.8-4-7.2c-0.5-5.8-1-11.7-1.6-17.8C724.1,723.1,724.8,721.2,726.2,719.7z"/>
								</g>
							</g>
						</g>
					</g>
				</g>
			</g>
			<g>
				<g>
					<g>
						<g>
							<g>
								<g>
									<defs>
										<path id="SVGID_35_" d="M679.4,740.6c0.7,0.7,4,3.5,18.3-2.6c6.5-2.7,15.8-7.5,26.9-15.8c0.4,6.3,1.3,11.8,2,16
											c1,6.5,2,9.9,4.9,12.4c0.7,0.7,3,2.4,5.2,2c1.6-0.4,3.7-2.3,5.5-12.4c0.7-4.5,2.3-16.6-1.7-38.3c-0.3-1.3,0.3-4.5-1.6-5.9
											c-2-1.4-5.2-0.4-6.5,0c-6.5,2.2-10.2,9.8-34.4,19.4c0-1.2-0.1-2.9-0.3-4.9c-0.7-18.9-1.3-30.1-2.7-37.3
											c-1.4-7.3-5.6-19-19.2-32.1c0.4-0.4,0.4-0.6,0.6-1c7.3-9.8,31.8,6,42.5-3.9c0.4-0.4,2.6-6.3,7.1-17.9
											c1.3-3.9,2.4-6.9,1.6-10.9c-0.4-1.3-1.2-4.9-3.9-7.2c-5.2-4.2-12.4-1.2-16.3-6.2c-0.1-0.1-0.3-0.4-0.3-0.4
											c-1.3-11.5-5.5-15.8-8.4-17.1c0-0.1-0.1-0.1-0.1-0.1l-15.4-5.2c-0.1-0.1-0.4-0.4-0.4-0.4l-18.1-37.7
											c-0.3-0.7-1.3-0.4-1.3,0.1l-6.5,48.7c-0.3,0.6-1,0.9-1.3,0.4l-30.8-30.4c-0.6-0.4-1.4-0.1-1.3,0.7
											c7.6,46.4,11.2,60.2,13,64.2c0.3,0.4,0.3,0.4,0.3,0.4c3.2,7.6,6.5,9.6,9.2,13.7c0.3,0.4,0.1,0.4-0.1,1
											c-1,8.2-13,20.3-31,30.7c-5.6,3.5-9.6,4.9-13,6.3c-7.1,2.4-12.7,3.2-15,3.5c0,0-27.9,3.5-72.6,20c-4,1.4-7.9,3.3-7.9,3.3
											c-0.4,0.3-1.3,0.7-2.2,1c-2.3,1.3-5.6,3-9.9,5.9c-8.9-4.6-18.1-9.1-27.1-13.7c-0.1,0-0.4-0.1-0.4-0.4
											c-10.5-23.8-21-47.7-31.5-71.6c-0.6-0.7-6.2-10.5-16.1-10.7c-0.7-0.1-5.9-0.1-10.2,3c-7.3,5.5-9.1,18.1-4.3,31.3
											c11.7,23.2,23.6,45.8,35.1,69c0.3,0.7,0.7,1.9,2,2.9c1.9,1.9,4,2.2,4.9,2.3c3.9,0.7,20.5,5.5,43.6,11.5
											c0.4,0.1,0.6,0.4,0.6,0.6c2.3,20,7.2,32.4,11.5,40.2s4.8,9.5,6,17.3c1,6.5,0.3,9.2,0.7,15.8c0.4,5.5,4,19.2,5,21.7
											c0.1,0.3,0.4,1,0.1,1.6c-0.4,0.9-1.3,1.2-1.6,1.3c-4.2,1.3-22.8,12.7-26.8,15.3c-4.3,2.7-8.1,5.6-8.1,8.9
											c0,0.9,0.4,1.4,0.4,1.9c4.8,10.7,11.4,19.3,16.3,28.4c0.7,1.3,1.6,3,3.6,4.2c3.7,2.2,8.4,1.2,10.7,0.3
											c0.6-0.7,1.3-2,1.3-3.2c-0.3-2.2-3-3-5.3-5.5c-1.4-1.3-3.2-3.7-4.3-7.3c-0.4-1.9-1-3.6-1.4-5.5c-0.7-2.4-1.4-4.9-2.3-7.2
											c0-0.4,0-1.2,0.3-2c0.4-1.3,1.4-1.9,2.2-2.3c2-1.2,6.6-3.3,13-6c8.9-3,15.1-6.2,17-8.1c0.9-0.9,1.3-1.9,1.3-1.9
											c1.3-2,1.2-4,1-4.8c-0.1-3,0.4-17.6,1.3-37.7c0.4-0.6,0.7-1,1.3-1.3c3.7-3.2,10.2-0.7,10.9-0.4c10.7,21,19,36,21.6,39.6
											c1.7,2.3,3.6,4.2,3.6,4.2c2.2,2.2,3.2,3.3,5.2,4c4.3,1.9,9.1-1,14.1-3.9c2.9-1.9,4.8-3,4.9-4.8c0.1-2.2-3-3.9-3.6-4.2
											c-3,0.4-6,0.7-9.1,1.2c-0.7-0.4-2-1.3-3.3-2.6c0,0-1.9-1.7-3.6-4.2c-2-3.2-9.2-16.6-18-35.4c11.5-3,20.7-6.3,26.6-8.4
											c21.9-8.1,55-20.5,83.2-49.3c5.5-5.6,9.4-10.4,11.5-13.1c-0.1,3-0.1,7.5,0,12.7C677.7,738.2,678.3,739.6,679.4,740.6z"/>
									</defs>
									<clipPath id="SVGID_36_">
										<use xlink:href="#SVGID_35_"  style="overflow:visible;"/>
									</clipPath>
									<path id="HL_2_1_" class="st23" d="M538.2,789.7c4.5-0.7,8.9-1.3,13.4-2.2c4.3,12.1,11.4,27.1,23.6,41.5
										c2.9,3.2,5.6,6.3,8.4,8.9c0.7,2,1.3,3.9,2.2,5.9l-15.4,2L538.2,789.7z"/>
								</g>
							</g>
						</g>
					</g>
				</g>
			</g>
			<g>
				<g>
					<g>
						<g>
							<g>
								<g>
									<defs>
										<path id="SVGID_37_" d="M679.4,740.6c0.7,0.7,4,3.5,18.3-2.6c6.5-2.7,15.8-7.5,26.9-15.8c0.4,6.3,1.3,11.8,2,16
											c1,6.5,2,9.9,4.9,12.4c0.7,0.7,3,2.4,5.2,2c1.6-0.4,3.7-2.3,5.5-12.4c0.7-4.5,2.3-16.6-1.7-38.3c-0.3-1.3,0.3-4.5-1.6-5.9
											c-2-1.4-5.2-0.4-6.5,0c-6.5,2.2-10.2,9.8-34.4,19.4c0-1.2-0.1-2.9-0.3-4.9c-0.7-18.9-1.3-30.1-2.7-37.3
											c-1.4-7.3-5.6-19-19.2-32.1c0.4-0.4,0.4-0.6,0.6-1c7.3-9.8,31.8,6,42.5-3.9c0.4-0.4,2.6-6.3,7.1-17.9
											c1.3-3.9,2.4-6.9,1.6-10.9c-0.4-1.3-1.2-4.9-3.9-7.2c-5.2-4.2-12.4-1.2-16.3-6.2c-0.1-0.1-0.3-0.4-0.3-0.4
											c-1.3-11.5-5.5-15.8-8.4-17.1c0-0.1-0.1-0.1-0.1-0.1l-15.4-5.2c-0.1-0.1-0.4-0.4-0.4-0.4l-18.1-37.7
											c-0.3-0.7-1.3-0.4-1.3,0.1l-6.5,48.7c-0.3,0.6-1,0.9-1.3,0.4l-30.8-30.4c-0.6-0.4-1.4-0.1-1.3,0.7
											c7.6,46.4,11.2,60.2,13,64.2c0.3,0.4,0.3,0.4,0.3,0.4c3.2,7.6,6.5,9.6,9.2,13.7c0.3,0.4,0.1,0.4-0.1,1
											c-1,8.2-13,20.3-31,30.7c-5.6,3.5-9.6,4.9-13,6.3c-7.1,2.4-12.7,3.2-15,3.5c0,0-27.9,3.5-72.6,20c-4,1.4-7.9,3.3-7.9,3.3
											c-0.4,0.3-1.3,0.7-2.2,1c-2.3,1.3-5.6,3-9.9,5.9c-8.9-4.6-18.1-9.1-27.1-13.7c-0.1,0-0.4-0.1-0.4-0.4
											c-10.5-23.8-21-47.7-31.5-71.6c-0.6-0.7-6.2-10.5-16.1-10.7c-0.7-0.1-5.9-0.1-10.2,3c-7.3,5.5-9.1,18.1-4.3,31.3
											c11.7,23.2,23.6,45.8,35.1,69c0.3,0.7,0.7,1.9,2,2.9c1.9,1.9,4,2.2,4.9,2.3c3.9,0.7,20.5,5.5,43.6,11.5
											c0.4,0.1,0.6,0.4,0.6,0.6c2.3,20,7.2,32.4,11.5,40.2c4.3,7.8,4.8,9.5,6,17.3c1,6.5,0.3,9.2,0.7,15.8
											c0.4,5.5,4,19.2,5,21.7c0.1,0.3,0.4,1,0.1,1.6c-0.4,0.9-1.3,1.2-1.6,1.3c-4.2,1.3-22.8,12.7-26.8,15.3
											c-4.3,2.7-8.1,5.6-8.1,8.9c0,0.9,0.4,1.4,0.4,1.9c4.8,10.7,11.4,19.3,16.3,28.4c0.7,1.3,1.6,3,3.6,4.2
											c3.7,2.2,8.4,1.2,10.7,0.3c0.6-0.7,1.3-2,1.3-3.2c-0.3-2.2-3-3-5.3-5.5c-1.4-1.3-3.2-3.7-4.3-7.3c-0.4-1.9-1-3.6-1.4-5.5
											c-0.7-2.4-1.4-4.9-2.3-7.2c0-0.4,0-1.2,0.3-2c0.4-1.3,1.4-1.9,2.2-2.3c2-1.2,6.6-3.3,13-6c8.9-3,15.1-6.2,17-8.1
											c0.9-0.9,1.3-1.9,1.3-1.9c1.3-2,1.2-4,1-4.8c-0.1-3,0.4-17.6,1.3-37.7c0.4-0.6,0.7-1,1.3-1.3c3.7-3.2,10.2-0.7,10.9-0.4
											c10.7,21,19,36,21.6,39.6c1.7,2.3,3.6,4.2,3.6,4.2c2.2,2.2,3.2,3.3,5.2,4c4.3,1.9,9.1-1,14.1-3.9c2.9-1.9,4.8-3,4.9-4.8
											c0.1-2.2-3-3.9-3.6-4.2c-3,0.4-6,0.7-9.1,1.2c-0.7-0.4-2-1.3-3.3-2.6c0,0-1.9-1.7-3.6-4.2c-2-3.2-9.2-16.6-18-35.4
											c11.5-3,20.7-6.3,26.6-8.4c21.9-8.1,55-20.5,83.2-49.3c5.5-5.6,9.4-10.4,11.5-13.1c-0.1,3-0.1,7.5,0,12.7
											C677.7,738.2,678.3,739.6,679.4,740.6z"/>
									</defs>
									<clipPath id="SVGID_38_">
										<use xlink:href="#SVGID_37_"  style="overflow:visible;"/>
									</clipPath>
									<path id="HL_1_1_" class="st24" d="M397.4,624.8c1.3-3.2,5.2-12.4,10.7-12.7c5.5-0.1,9.6,8.4,12,13.3
										c22.3,47,23,75.9,41.6,84.1c1.3,0.6,9.1,3,24.3,7.9c8.5,2.6,13,4,16.4,8.4c2.2,2.6,2.6,4.6,4.8,15.4
										c4,20.5,3.9,21.3,5.5,25.8c4.3,10.9,7.8,8.9,9.8,17.6c1.7,7.1-0.4,15.3-1,26.1c-0.4,9.6,0.7,13-2.3,17.3
										c-1.9,2.6-4.2,3.9-6.3,5c-18.9,10.2-24.5,8.9-27.1,14.1c-3.5,7.2,3.5,17.7,9.1,26.5c1.7,2.6,3.9,4.6,3.9,4.6
										c0.6,0.4,1.3,1.3,3.5,2.6c5.3,3.6,6.5,3.5,7.2,4.8c0.7,1.4,0.4,3.9-3.9,8.6c-39.5-6.5-78.8-13.3-118.1-19.6l5.2-224.2
										C394.1,642,395.9,633.3,397.4,624.8z"/>
								</g>
							</g>
						</g>
					</g>
				</g>
			</g>
		</g>
		<path id="NECK_BRACE_1_" class="st13" d="M657.2,635.4c7.4,0.1,13.3,3,17,5.5c2.9,1.9,6.8,0.3,7.6-3.4c0-0.1,0-0.1,0-0.2
			c0.7-3.4-0.9-7.6-3.8-10.1c-0.3-0.2-0.5-0.4-0.8-0.5c-6.1-3.2-11.1-4.4-14.7-4.8c-5.5-0.8-12.1,0-19.2,2.7c-3.2,1.2-5.5,4.4-5.5,8
			c0,0,0,0.1,0,0.1c0,3.9,3.6,6.6,6.9,5.3C647.7,636.7,652,635.4,657.2,635.4z"/>
		<path id="cat_wire_1_" class="st25" d="M623.9,623.8c1.4-1.3,10.5-8.9,10.2-20.7c-0.1-11.5-8.8-21-17.7-24.2
			c-12.2-4.3-18,5.8-35.9,3.3c-3.5-0.4-14.3-2.2-23.5-10.5c-1.4-1.3-15.8-15.1-12.7-34.1c2.9-16.9,18-28.8,33.6-31.3
			c22.2-3.3,37.3,14.1,38.2,15.1"/>
		<g id="cat_bag_1_">
			<g>
				<g>
					<g>
						<g>
							<g>
								<g>
									<defs>
										<path id="SVGID_39_" d="M649.5,639.4c0.4-0.4,4.8-5.5,3.2-12.2c-1.4-6.9-7.8-9.6-8.2-9.8c-4.9-1-10.2-1.7-16-2.2
											c-18.3-1.3-33.8,1.7-45.4,5c-8.1,5.2-16.4,10.5-25.2,15.7c-13.7,8.2-27.1,15.3-39.8,21.6c-0.9,2.3-6,16.3,0.9,24.9
											c3.9,4.8,9.8,5.9,15.1,6.5c9.8,1.3,28.8,2.2,57.5-4c10.4-5.6,22.5-13.3,35-23.6C635.7,653.9,643.2,646.3,649.5,639.4z"/>
									</defs>
									<clipPath id="SVGID_40_">
										<use xlink:href="#SVGID_39_"  style="overflow:visible;"/>
									</clipPath>
									<polygon class="st26" points="586.3,600.1 507.5,665.4 531.8,675.4 593.9,675.4 653.1,626.1 653.1,604.1 									"/>
								</g>
							</g>
						</g>
					</g>
				</g>
			</g>
			<g>
				<g>
					<g>
						<g>
							<g>
								<g>
									<defs>
										<path id="SVGID_41_" d="M649.5,639.4c0.4-0.4,4.8-5.5,3.2-12.2c-1.4-6.9-7.8-9.6-8.2-9.8c-4.9-1-10.2-1.7-16-2.2
											c-18.3-1.3-33.8,1.7-45.4,5c-8.1,5.2-16.4,10.5-25.2,15.7c-13.7,8.2-27.1,15.3-39.8,21.6c-0.9,2.3-6,16.3,0.9,24.9
											c3.9,4.8,9.8,5.9,15.1,6.5c9.8,1.3,28.8,2.2,57.5-4c10.4-5.6,22.5-13.3,35-23.6C635.7,653.9,643.2,646.3,649.5,639.4z"/>
									</defs>
									<clipPath id="SVGID_42_">
										<use xlink:href="#SVGID_41_"  style="overflow:visible;"/>
									</clipPath>
									<path class="st27" d="M651.9,616.9c-1.1,0-2.2,0.4-3.1,1.2c-12.8,12-28.8,24.7-48.5,36.1c-5.5,3.1-10.8,6-16,8.4
										c-1.8,0.8-2.8,2.7-2.5,4.7c0.6,4.4,1.6,6.3,1.3,9.8c-0.6,6.2-9.8,8.5-9.3,11.2c0.3,1.6,3.6,3,15,3.3l9.2,0.2
										c1.2,0,2.3-0.4,3.1-1.2l53.7-48.9c0.9-0.8,1.5-2,1.5-3.3l0.1-17.1C656.4,618.9,654.4,616.9,651.9,616.9z"/>
								</g>
							</g>
						</g>
					</g>
				</g>
			</g>
			<g>
				<g>
					<g>
						<g>
							<g>
								<g>
									<defs>
										<path id="SVGID_43_" d="M649.5,639.4c0.4-0.4,4.8-5.5,3.2-12.2c-1.4-6.9-7.8-9.6-8.2-9.8c-4.9-1-10.2-1.7-16-2.2
											c-18.3-1.3-33.8,1.7-45.4,5c-8.1,5.2-16.4,10.5-25.2,15.7c-13.7,8.2-27.1,15.3-39.8,21.6c-0.9,2.3-6,16.3,0.9,24.9
											c3.9,4.8,9.8,5.9,15.1,6.5c9.5,1.3,27.7,2.1,55-3.5c1.7-0.4,3.4-1,5-1.9c9.8-5.5,21-12.8,32.6-22.3
											C635.7,653.9,643.2,646.3,649.5,639.4z"/>
									</defs>
									<clipPath id="SVGID_44_">
										<use xlink:href="#SVGID_43_"  style="overflow:visible;"/>
									</clipPath>
									<path class="st28" d="M584.7,671.6L584.7,671.6c-2.1-4.3-6.8-6.9-11.6-6.2c-4.4,0.6-8.3,0.9-11.3,1
										c-18.4,1.3-32,2-43.1-5.9c-0.7-0.5-1.3-0.9-1.9-1.4c-4.2-3.4-10.1-3.5-14.2-0.1c-2.4,1.9-4.6,4.5-5.5,7.7
										c-2.8,9.7,5.4,23.9,22.4,29.9c1.8,0.6,3.7,0.7,5.6,0.4c7.4-1.3,25-4.5,51.4-9.2C583.9,686.5,588,678.4,584.7,671.6z"/>
								</g>
							</g>
						</g>
					</g>
				</g>
			</g>
		</g>
		<path id="cat_details_1_" class="st13" d="M609.4,510.5c1.3,1.3,1.9,3,1.3,4.5c-0.7,1.9-3,2.9-5,2.2c-0.1,0.4-0.3,1.4,0.1,2.6
			c0.4,1.3,1.2,2.2,1.4,2.4c2.6,1.6,5.2,3.3,7.8,4.9c0.9,0.1,2.3,0.3,4-0.3c4.5-1.4,5.6-6.5,5.8-7.2c0.6-2.7-0.1-5-0.6-6.2
			c-3.5-1.9-6.8-3.9-10.2-5.6c-0.7,0.1-1.7,0.4-2.7,1C610.5,509.6,609.9,510,609.4,510.5z"/>
	</g>
</g>
</svg>
