<?xml version="1.0" encoding="utf-8"?>
<!-- Generator: Adobe Illustrator 23.0.6, SVG Export Plug-In . SVG Version: 6.00 Build 0)  -->
<svg version="1.1" xmlns="http://www.w3.org/2000/svg" xmlns:xlink="http://www.w3.org/1999/xlink" x="0px" y="0px"
	 viewBox="0 0 1874.1 3170.8" style="enable-background:new 0 0 1874.1 3170.8;" xml:space="preserve">
<style type="text/css">
	.st0{display:none;}
	.st1{display:inline;fill:url(#SVGID_1_);}
	.st2{display:inline;}
	.st3{fill:#FF9F94;}
	.st4{fill:#FFAAB7;}
	.st5{fill:#897FFF;}
	.st6{fill:#FFA89B;}
	.st7{fill:#FFD3B1;}
	.st8{fill:#F0C6FF;}
	.st9{fill:#FFFFFF;}
	.st10{display:inline;fill:url(#SVGID_2_);}
	.st11{display:inline;fill:url(#SVGID_3_);}
	.st12{display:inline;fill:url(#SVGID_4_);}
	.st13{display:inline;fill:url(#SVGID_5_);}
	.st14{display:inline;fill:#B5F0FF;}
	.st15{display:inline;fill:#FFCBDA;}
	.st16{display:inline;fill:url(#SVGID_6_);}
	.st17{display:inline;fill:url(#SVGID_7_);}
	.st18{display:none;fill:#FFFB92;}
	.st19{display:none;fill:#E19D00;}
	.st20{fill:url(#SVGID_8_);}
	.st21{fill:url(#SVGID_9_);}
	.st22{fill:url(#SVGID_10_);}
	.st23{fill:url(#SVGID_11_);}
	.st24{fill:#3A2D22;}
	.st25{fill:url(#SVGID_12_);}
	.st26{fill:url(#SVGID_13_);}
	.st27{clip-path:url(#SVGID_16_);fill:url(#SVGID_17_);}
	.st28{clip-path:url(#SVGID_16_);fill:#3A2D22;}
	.st29{fill:url(#SVGID_18_);}
	.st30{fill:#FF8428;}
	.st31{fill:url(#SVGID_19_);}
	.st32{fill:url(#SVGID_20_);}
	.st33{fill:#FFFB92;}
	.st34{fill:#E19D00;}
	.st35{fill:url(#SVGID_21_);}
	.st36{fill:url(#SVGID_22_);}
	.st37{fill:url(#SVGID_23_);}
	.st38{fill:url(#SVGID_24_);}
	.st39{fill:url(#SVGID_25_);}
	.st40{fill:url(#SVGID_26_);}
	.st41{clip-path:url(#SVGID_29_);fill:url(#SVGID_30_);}
	.st42{clip-path:url(#SVGID_29_);fill:#3A2D22;}
	.st43{fill:url(#SVGID_31_);}
	.st44{fill:url(#SVGID_32_);}
	.st45{fill:url(#SVGID_33_);}
</style>
<g id="Layer_1" class="st0">
	
		<linearGradient id="SVGID_1_" gradientUnits="userSpaceOnUse" x1="918.8807" y1="-5031.6509" x2="918.8807" y2="3879.3745" gradientTransform="matrix(1 0 0 1 0 2464)">
		<stop  offset="7.634041e-02" style="stop-color:#8200B9"/>
		<stop  offset="0.1247" style="stop-color:#7C06B7"/>
		<stop  offset="0.1871" style="stop-color:#6D16B2"/>
		<stop  offset="0.2571" style="stop-color:#5330AA"/>
		<stop  offset="0.3328" style="stop-color:#2F559F"/>
		<stop  offset="0.4122" style="stop-color:#018491"/>
		<stop  offset="0.4133" style="stop-color:#008591"/>
		<stop  offset="0.7215" style="stop-color:#8DB5DC"/>
		<stop  offset="0.7485" style="stop-color:#A4BCBB"/>
		<stop  offset="0.7872" style="stop-color:#BFC493"/>
		<stop  offset="0.8269" style="stop-color:#D6CC71"/>
		<stop  offset="0.8675" style="stop-color:#E8D157"/>
		<stop  offset="0.9091" style="stop-color:#F5D545"/>
		<stop  offset="0.9523" style="stop-color:#FDD73A"/>
		<stop  offset="1" style="stop-color:#FFD836"/>
	</linearGradient>
	<ellipse class="st1" cx="918.9" cy="1414.6" rx="1547.5" ry="2275.5"/>
	<g id="stars" class="st2">
		<circle class="st3" cx="1511.5" cy="1049" r="3.9"/>
		<circle class="st4" cx="1372.8" cy="1192.3" r="3.9"/>
		<circle class="st5" cx="1349.6" cy="878.2" r="3.9"/>
		<ellipse class="st3" cx="1569.6" cy="857.6" rx="2" ry="2"/>
		<ellipse class="st6" cx="1650.1" cy="848.9" rx="2" ry="2"/>
		<circle class="st7" cx="1314.4" cy="668.6" r="3.9"/>
		<circle class="st5" cx="1659.4" cy="1075.2" r="3.9"/>
		<ellipse class="st8" cx="1560.5" cy="751.5" rx="2" ry="2"/>
		<circle class="st4" cx="1187.1" cy="614.7" r="3.9"/>
		<circle class="st6" cx="1526.4" cy="735.1" r="3.9"/>
		<circle class="st4" cx="1582.2" cy="533.4" r="3.9"/>
		<circle class="st4" cx="1722.1" cy="634.7" r="3.9"/>
		
			<ellipse transform="matrix(0.9995 -3.209673e-02 3.209673e-02 0.9995 -8.0795 50.0989)" class="st5" cx="1556.4" cy="276.7" rx="3.9" ry="3.9"/>
		
			<ellipse transform="matrix(0.9995 -3.209679e-02 3.209679e-02 0.9995 -7.315 45.3286)" class="st3" cx="1408.2" cy="250.5" rx="3.9" ry="3.9"/>
		
			<ellipse transform="matrix(0.9995 -3.209679e-02 3.209679e-02 0.9995 -7.4801 35.8407)" class="st7" cx="1112.6" cy="250.9" rx="3.9" ry="3.9"/>
		<ellipse class="st8" cx="1358.1" cy="633" rx="2" ry="2"/>
		<ellipse class="st4" cx="1444.8" cy="739.2" rx="2" ry="2"/>
		<ellipse class="st5" cx="1141.9" cy="731.4" rx="2" ry="2"/>
		<ellipse class="st6" cx="1096" cy="158.2" rx="2" ry="2"/>
		<ellipse class="st7" cx="1286.5" cy="78.9" rx="2" ry="2"/>
		<ellipse class="st8" cx="1228" cy="148" rx="2" ry="2"/>
		<ellipse class="st3" cx="1469.3" cy="240.8" rx="2" ry="2"/>
		<ellipse class="st6" cx="1394.6" cy="209.6" rx="2" ry="2"/>
		
			<ellipse transform="matrix(0.9992 -3.917167e-02 3.917167e-02 0.9992 -3.527 58.9935)" class="st6" cx="1503.7" cy="119.5" rx="3.9" ry="3.9"/>
		<ellipse class="st3" cx="1035.9" cy="298.5" rx="2" ry="2"/>
		<path class="st3" d="M976.1,247.5c1.1,0,2,0.9,2,2s-0.9,2-2,2s-2-0.9-2-2S975,247.5,976.1,247.5z"/>
		<circle class="st8" cx="930.4" cy="345.7" r="2"/>
		<ellipse class="st8" cx="1546.6" cy="539.5" rx="2" ry="2"/>
		<ellipse class="st4" cx="1521.7" cy="404.6" rx="2" ry="2"/>
		<polygon class="st9" points="1628.7,564.8 1631.3,569.9 1636.9,570.8 1632.8,574.8 1633.9,580.4 1628.8,577.8 1623.7,580.5 
			1624.7,574.8 1620.5,570.9 1626.2,570 		"/>
		<polygon class="st9" points="1666.9,326 1669.4,331.1 1675.2,331.9 1671.1,335.9 1672.1,341.6 1666.9,338.9 1661.9,341.6 
			1662.8,336 1658.7,332 1664.4,331.1 		"/>
		<polygon class="st9" points="1453.1,596.1 1455.7,601.2 1461.3,601.9 1457.3,606 1458.3,611.6 1453.2,609 1448.2,611.7 
			1449.1,606 1445,602 1450.7,601.2 		"/>
		<polygon class="st9" points="1110.5,921 1113.1,926.1 1118.8,927 1114.7,930.9 1115.7,936.6 1110.6,933.9 1105.6,936.6 
			1106.5,931 1102.4,927.1 1108,926.1 		"/>
		<ellipse class="st8" cx="1426.1" cy="338.2" rx="2" ry="2"/>
		<circle class="st4" cx="1030.5" cy="1227.7" r="3.2"/>
		<circle class="st4" cx="1252.9" cy="1100.7" r="3.2"/>
		<circle class="st6" cx="955.5" cy="977.8" r="1.6"/>
		<ellipse class="st3" cx="1019.9" cy="965.6" rx="1.6" ry="1.6"/>
		<circle class="st5" cx="1104.9" cy="898.8" r="3.2"/>
		<circle class="st4" cx="1156.9" cy="683.2" r="3.2"/>
		<circle class="st3" cx="1054.4" cy="807.6" r="3.2"/>
		<circle class="st5" cx="933.4" cy="796" r="3.2"/>
		<circle class="st5" cx="788.3" cy="947.5" r="3.2"/>
		<circle class="st5" cx="895.2" cy="1012.6" r="1.6"/>
		<circle class="st6" cx="1355.6" cy="1462.8" r="1.6"/>
		<circle class="st7" cx="1207.2" cy="1538.9" r="1.6"/>
		<circle class="st3" cx="1395" cy="1345.9" r="1.6"/>
		<circle class="st8" cx="1477" cy="1300.9" r="1.6"/>
		<circle class="st6" cx="1496.5" cy="1158.7" r="1.6"/>
		<polygon class="st9" points="1274.9,91.7 1270.6,95.4 1271.2,101.1 1266.3,98.2 1261.1,100.4 1262.5,94.9 1258.6,90.7 
			1264.2,90.2 1267.1,85.2 1269.3,90.5 		"/>
		<polygon class="st9" points="1352.9,276.1 1348.6,279.9 1349.2,285.6 1344.4,282.6 1339.2,285 1340.4,279.4 1336.6,275.2 
			1342.2,274.8 1345.1,269.7 1347.4,275 		"/>
		
			<ellipse transform="matrix(2.885945e-02 -0.9996 0.9996 2.885945e-02 -1316.3979 1918.5513)" class="st3" cx="329.2" cy="1636.8" rx="3.9" ry="3.9"/>
		<path class="st8" d="M172,1991.9c-1,0.5-2.2,0.3-2.7-0.7s-0.3-2.2,0.7-2.7s2.2-0.3,2.7,0.7S172.9,1991.4,172,1991.9z"/>
		
			<ellipse transform="matrix(2.885937e-02 -0.9996 0.9996 2.885937e-02 -1076.4858 1778.2754)" class="st4" cx="376.9" cy="1443.1" rx="3.9" ry="3.9"/>
		<ellipse class="st5" cx="738.5" cy="1604.7" rx="3.9" ry="3.9"/>
		<ellipse class="st3" cx="374.8" cy="1831.5" rx="2" ry="2"/>
		<ellipse class="st6" cx="309.6" cy="1879.5" rx="2" ry="2"/>
		<ellipse class="st7" cx="874.3" cy="1768.3" rx="3.9" ry="3.9"/>
		
			<ellipse transform="matrix(2.885942e-02 -0.9996 0.9996 2.885942e-02 -1505.3511 1827.7028)" class="st5" cx="187.9" cy="1688.6" rx="3.9" ry="3.9"/>
		<ellipse class="st7" cx="142" cy="1904.6" rx="2" ry="2"/>
		<ellipse class="st8" cx="436" cy="1918.6" rx="2" ry="2"/>
		<ellipse class="st4" cx="1011.4" cy="1751" rx="3.9" ry="3.9"/>
		<ellipse class="st6" cx="473.8" cy="1915.7" rx="3.9" ry="3.9"/>
		<ellipse class="st4" cx="710.6" cy="2019.8" rx="3.9" ry="3.9"/>
		
			<ellipse transform="matrix(0.9999 -1.565207e-02 1.565207e-02 0.9999 -32.8392 5.8121)" class="st4" cx="354.9" cy="2100.9" rx="3.9" ry="3.9"/>
		
			<ellipse transform="matrix(0.8645 -0.5026 0.5026 0.8645 -1003.3049 735.1987)" class="st5" cx="861.9" cy="2228.4" rx="3.9" ry="3.9"/>
		<ellipse class="st3" cx="1003.3" cy="2176.8" rx="3.9" ry="3.9"/>
		<ellipse class="st7" cx="1258.6" cy="2028" rx="3.9" ry="3.9"/>
		<ellipse class="st8" cx="854.4" cy="1821" rx="2" ry="2"/>
		<ellipse class="st4" cx="726.1" cy="1772.7" rx="2" ry="2"/>
		<circle class="st5" cx="991.8" cy="1627.3" r="2"/>
		<circle class="st6" cx="1319.6" cy="2099.8" r="2"/>
		<ellipse class="st7" cx="1194.5" cy="2264.1" rx="2" ry="2"/>
		<ellipse class="st8" cx="1210.5" cy="2174.8" rx="2" ry="2"/>
		<ellipse class="st3" cx="955.3" cy="2215.9" rx="2" ry="2"/>
		<ellipse class="st6" cx="1035.6" cy="2205.3" rx="2" ry="2"/>
		
			<ellipse transform="matrix(0.8634 -0.5045 0.5045 0.8634 -1044.8798 817.04)" class="st6" cx="986.4" cy="2338.1" rx="3.9" ry="3.9"/>
		<ellipse class="st3" cx="1301" cy="1948.4" rx="2" ry="2"/>
		<circle class="st3" cx="1377.2" cy="1960.7" r="2"/>
		<ellipse class="st8" cx="1368.4" cy="1854.5" rx="2" ry="2"/>
		<ellipse class="st8" cx="738.4" cy="1996.6" rx="2" ry="2"/>
		<ellipse class="st4" cx="827.6" cy="2100.7" rx="2" ry="2"/>
		<polygon class="st9" points="470.8,2114.3 466,2111.2 460.7,2113.3 462.3,2107.7 458.5,2103.4 464.2,2103.1 467.3,2098.3 
			469.3,2103.7 474.8,2105 470.5,2108.6 		"/>
		<polygon class="st9" points="741.6,2241.6 736.9,2238.4 731.5,2240.7 733,2235.1 729.3,2230.8 735,2230.5 738,2225.6 
			740.1,2230.9 745.6,2232.4 741.2,2235.9 		"/>
		<polygon class="st9" points="790.7,1900.7 785.9,1897.6 780.7,1899.8 782.1,1894.2 778.4,1889.8 784.2,1889.6 787.1,1884.7 
			789.2,1890 794.7,1891.4 790.3,1895 		"/>
		<polygon class="st9" points="923.7,1447.6 918.9,1444.5 913.5,1446.6 915.1,1441.1 911.4,1436.7 917.1,1436.4 920.1,1431.6 
			922.2,1437 927.6,1438.3 923.3,1442 		"/>
		<ellipse class="st8" cx="943.6" cy="2110.1" rx="2" ry="2"/>
		<ellipse class="st4" cx="838.7" cy="1142.4" rx="3.2" ry="3.2"/>
		<ellipse class="st4" cx="710.2" cy="1363.8" rx="3.2" ry="3.2"/>
		<ellipse class="st6" cx="1029.1" cy="1320.6" rx="1.6" ry="1.6"/>
		<ellipse class="st3" cx="979.5" cy="1363.5" rx="1.6" ry="1.6"/>
		<ellipse class="st5" cx="939.7" cy="1464.1" rx="3.2" ry="3.2"/>
		<ellipse class="st4" cx="1003" cy="1676.6" rx="3.2" ry="3.2"/>
		<ellipse class="st3" cx="1029.2" cy="1517.5" rx="3.2" ry="3.2"/>
		<ellipse class="st5" cx="1139.6" cy="1466.7" rx="3.2" ry="3.2"/>
		<ellipse class="st5" cx="1188.9" cy="1262.8" rx="3.2" ry="3.2"/>
		<ellipse class="st5" cx="1063.8" cy="1260.3" rx="1.6" ry="1.6"/>
		
			<ellipse transform="matrix(0.8591 -0.5118 0.5118 0.8591 -502.2482 380.3236)" class="st6" cx="439.6" cy="1102.3" rx="1.6" ry="1.6"/>
		<ellipse class="st7" cx="529.6" cy="962" rx="1.6" ry="1.6"/>
		<path class="st3" d="M463.4,1221.8c0.8-0.5,1.8-0.2,2.2,0.6c0.5,0.8,0.2,1.8-0.6,2.2c-0.8,0.5-1.8,0.2-2.2-0.6
			C462.4,1223.3,462.7,1222.3,463.4,1221.8z"/>
		
			<ellipse transform="matrix(0.8591 -0.5118 0.5118 0.8591 -608.4012 396.5544)" class="st8" cx="416" cy="1303.2" rx="1.6" ry="1.6"/>
		
			<ellipse transform="matrix(0.8586 -0.5126 0.5126 0.8586 -746.0753 364.0319)" class="st6" cx="286.9" cy="1534.6" rx="1.6" ry="1.6"/>
		<polygon class="st9" points="1198.2,2247.3 1200.1,2241.9 1196.7,2237.3 1202.4,2237.3 1205.7,2232.7 1207.4,2238.3 
			1212.8,2239.9 1208.2,2243.2 1208.2,2248.9 1203.6,2245.5 		"/>
		<polygon class="st9" points="1038.1,2126.9 1039.9,2121.5 1036.6,2116.9 1042.2,2117 1045.5,2112.4 1047.2,2117.8 1052.6,2119.5 
			1048,2122.8 1048.1,2128.6 1043.5,2125.1 		"/>
		<ellipse class="st3" cx="677.9" cy="145.4" rx="2" ry="2"/>
		<ellipse class="st6" cx="632.6" cy="78.2" rx="2" ry="2"/>
		<ellipse class="st7" cx="629.8" cy="459.3" rx="3.9" ry="3.9"/>
		<ellipse class="st8" cx="588.2" cy="203" rx="2" ry="2"/>
		<ellipse class="st4" cx="641.6" cy="597" rx="3.9" ry="3.9"/>
		
			<ellipse transform="matrix(0.9995 -3.209702e-02 3.209702e-02 0.9995 -7.4222 19.0516)" class="st6" cx="589.7" cy="240.7" rx="3.9" ry="3.9"/>
		<circle class="st4" cx="385.2" cy="285.5" r="3.9"/>
		<circle class="st4" cx="409.6" cy="114.5" r="3.9"/>
		<ellipse class="st5" cx="170.4" cy="428.4" rx="3.9" ry="3.9"/>
		
			<ellipse transform="matrix(0.8453 -0.5342 0.5342 0.8453 -271.8132 203.9194)" class="st3" cx="216.3" cy="571.4" rx="3.9" ry="3.9"/>
		<ellipse class="st7" cx="354.6" cy="832.7" rx="3.9" ry="3.9"/>
		<circle class="st8" cx="578" cy="437.3" r="2"/>
		<circle class="st4" cx="631.4" cy="311" r="2"/>
		<circle class="st6" cx="280.3" cy="890.7" r="2"/>
		<ellipse class="st7" cx="121.3" cy="759.1" rx="2" ry="2"/>
		<ellipse class="st8" cx="209.7" cy="778.6" rx="2" ry="2"/>
		<ellipse class="st3" cx="179.2" cy="521.9" rx="2" ry="2"/>
		<ellipse class="st6" cx="186.5" cy="602.6" rx="2" ry="2"/>
		
			<ellipse transform="matrix(0.8308 -0.5566 0.5566 0.8308 -295.6307 123.787)" class="st6" cx="55.8" cy="548.1" rx="3.9" ry="3.9"/>
		<ellipse class="st3" cx="432.3" cy="878.3" rx="2" ry="2"/>
		<circle class="st3" cx="417" cy="954" r="2"/>
		<ellipse class="st8" cx="523.5" cy="949.5" rx="2" ry="2"/>
		<circle class="st8" cx="407.3" cy="314.2" r="2"/>
		<circle class="st4" cx="299.6" cy="399.2" r="2"/>
		<polygon class="st9" points="391.3,229.6 394.7,225 392.8,219.7 398.3,221.4 402.7,217.9 402.8,223.6 407.5,226.8 402.1,228.6 
			400.6,234.2 397.1,229.6 		"/>
		<polygon class="st9" points="162.3,307.4 165.6,302.8 163.6,297.3 169.2,299.1 173.7,295.6 173.7,301.3 178.5,304.5 173.1,306.3 
			171.4,311.8 168,307.2 		"/>
		<polygon class="st9" points="500.9,370.4 504.2,365.8 502.3,360.4 507.7,362.1 512.3,358.6 512.3,364.3 517.1,367.5 511.6,369.3 
			510,374.8 506.6,370.2 		"/>
		<circle class="st8" cx="285.4" cy="514.6" r="2"/>
		<ellipse class="st4" cx="716.2" cy="591.7" rx="3.2" ry="3.2"/>
		<polygon class="st9" points="138,763.4 143.2,765.5 148,762.3 147.7,768 152.1,771.5 146.6,772.9 144.7,778.3 141.6,773.6 
			136,773.4 139.6,768.9 		"/>
		<polygon class="st9" points="264.8,608.4 270.1,610.4 274.8,607.2 274.5,612.9 279,616.4 273.5,617.9 271.6,623.2 268.5,618.4 
			262.7,618.3 266.3,613.8 		"/>
		<path class="st8" d="M1708.7,2207.4c-0.7-0.8-0.6-2.1,0.3-2.8c0.8-0.7,2.1-0.6,2.8,0.3c0.7,0.8,0.6,2.1-0.3,2.8
			S1709.4,2208.2,1708.7,2207.4z"/>
		<circle class="st3" cx="1490.4" cy="2342" r="2"/>
		<circle class="st6" cx="1558" cy="2297.5" r="2"/>
		<circle class="st7" cx="1640" cy="2149.1" r="2"/>
		<circle class="st8" cx="1550.8" cy="2429.7" r="2"/>
		
			<ellipse transform="matrix(0.9999 -1.335038e-02 1.335038e-02 0.9999 -32.7582 20.7092)" class="st6" cx="1534.8" cy="2464" rx="3.9" ry="3.9"/>
		
			<ellipse transform="matrix(0.9999 -1.335037e-02 1.335037e-02 0.9999 -32.1129 23.574)" class="st4" cx="1749.7" cy="2417.1" rx="3.9" ry="3.9"/>
		<circle class="st4" cx="1312.9" cy="2650.7" r="2"/>
		<polygon class="st9" points="1716.7,2528.1 1711.8,2531 1712.5,2525.3 1708.2,2521.5 1713.9,2520.4 1716,2515.2 1718.8,2520.2 
			1724.6,2520.6 1720.8,2524.8 1722,2530.4 		"/>
		<path class="st8" d="M1013.8,2683.5c1-0.5,2.2-0.2,2.7,0.8s0.2,2.2-0.8,2.7s-2.2,0.2-2.7-0.8
			C1012.5,2685.3,1012.8,2684.1,1013.8,2683.5z"/>
		
			<ellipse transform="matrix(0.9999 -1.567523e-02 1.567523e-02 0.9999 -41.3345 7.7888)" class="st4" cx="476.2" cy="2640.7" rx="3.9" ry="3.9"/>
		
			<ellipse transform="matrix(0.9999 -1.335037e-02 1.335037e-02 0.9999 -34.2291 11.3641)" class="st4" cx="834.1" cy="2569.5" rx="3.9" ry="3.9"/>
		
			<ellipse transform="matrix(0.8822 -0.4709 0.4709 0.8822 -1104.0316 441.8032)" class="st5" cx="330.9" cy="2427.2" rx="3.9" ry="3.9"/>
		
			<ellipse transform="matrix(0.8822 -0.4709 0.4709 0.8822 -1143.1903 380.2953)" class="st3" cx="188.4" cy="2474.7" rx="3.9" ry="3.9"/>
		<ellipse class="st3" cx="237.5" cy="2437.1" rx="2" ry="2"/>
		<ellipse class="st6" cx="156.8" cy="2445.3" rx="2" ry="2"/>
		
			<ellipse transform="matrix(0.9141 -0.4055 0.4055 0.9141 -920.3546 283.7393)" class="st6" cx="209.5" cy="2314.2" rx="3.9" ry="3.9"/>
		<ellipse class="st8" cx="447.8" cy="2662.7" rx="2" ry="2"/>
		<ellipse class="st4" cx="361.5" cy="2556" rx="2" ry="2"/>
		<polygon class="st9" points="718.6,2552.7 723.3,2556 728.6,2554.1 727,2559.5 730.6,2563.9 724.8,2564.1 721.6,2568.8 
			719.8,2563.5 714.3,2562 718.8,2558.4 		"/>
		<polygon class="st9" points="451.6,2417.7 456.2,2420.9 461.7,2418.9 460,2424.4 463.6,2428.9 457.8,2429 454.7,2433.8 
			452.7,2428.4 447.3,2426.8 451.8,2423.4 		"/>
		<ellipse class="st8" cx="245.9" cy="2543.5" rx="2" ry="2"/>
		<polygon class="st9" points="151.9,2523.7 150,2529.1 153.1,2533.8 147.5,2533.6 144.1,2538.1 142.4,2532.7 137.1,2530.7 
			141.9,2527.7 141.9,2521.8 146.4,2525.4 		"/>
		
			<ellipse transform="matrix(0.5369 -0.8436 0.8436 0.5369 -1853.7924 1727.9391)" class="st4" cx="647.1" cy="2552.6" rx="3.9" ry="3.9"/>
		
			<ellipse transform="matrix(8.918757e-02 -0.996 0.996 8.918757e-02 -1496.4817 2893.8882)" class="st4" cx="834.1" cy="2265.2" rx="3.2" ry="3.2"/>
		
			<ellipse transform="matrix(0.2895 -0.9572 0.9572 0.2895 -1840.2971 2045.4895)" class="st6" cx="457.7" cy="2262.4" rx="1.6" ry="1.6"/>
		
			<ellipse transform="matrix(0.2897 -0.9571 0.9571 0.2897 -1835.9619 2192.1694)" class="st3" cx="559" cy="2333.1" rx="1.6" ry="1.6"/>
		
			<ellipse transform="matrix(0.2897 -0.9571 0.9571 0.2897 -1908.8444 2276.3904)" class="st8" cx="579.3" cy="2424.3" rx="1.6" ry="1.6"/>
		<circle class="st7" cx="1742.8" cy="1479.4" r="3.9"/>
		<circle class="st4" cx="1615.5" cy="1425.6" r="3.9"/>
		<circle class="st5" cx="1570.3" cy="1542.2" r="2"/>
		<polygon class="st9" points="1538.9,1731.9 1541.4,1737 1547.2,1737.8 1543.1,1741.8 1544.1,1747.4 1539,1744.8 1534,1747.5 
			1534.8,1741.8 1530.8,1737.9 1536.4,1737 		"/>
		<circle class="st3" cx="1448.3" cy="1776.5" r="1.6"/>
		<circle class="st5" cx="1533.3" cy="1709.6" r="3.2"/>
		<circle class="st4" cx="1585.3" cy="1494" r="3.2"/>
		<circle class="st3" cx="1482.8" cy="1618.4" r="3.2"/>
		<circle class="st5" cx="1361.8" cy="1606.8" r="3.2"/>
	</g>
	<g id="Layer_4" class="st2">
	</g>
	<linearGradient id="SVGID_2_" gradientUnits="userSpaceOnUse" x1="2426.6768" y1="1514.869" x2="659.3907" y2="1514.869">
		<stop  offset="0" style="stop-color:#FFCC8A"/>
		<stop  offset="0.9722" style="stop-color:#FFFB92"/>
	</linearGradient>
	<path class="st10" d="M2061.3,1514.9v4.9c0,35.9-29.1,65-65,65h-33.1c-35.9,0-65,29.1-65,65v12.7c0,35.9-29.1,65-65,65h-665.5
		c-35.9,0-65-29.1-65-65v-17.6c0-35.9,29.1-65,65-65h328.9c35.9,0,65-29.1,65-65v0c0-35.9-29.1-65-65-65h-44.5
		c-35.9,0-65-29.1-65-65v-17.6c0-35.9,29.1-65,65-65h828.5c35.9,0,65,29.1,65,65v17.6c0,35.9-29.1,65-65,65h-154.4
		C2090.4,1449.9,2061.3,1479,2061.3,1514.9z"/>
	<linearGradient id="SVGID_3_" gradientUnits="userSpaceOnUse" x1="-475.2714" y1="1064.1133" x2="993.1021" y2="1064.1133">
		<stop  offset="0" style="stop-color:#FFCC8A"/>
		<stop  offset="0.9722" style="stop-color:#FFFB92"/>
	</linearGradient>
	<path class="st11" d="M371.2,1059.6v-8.1c0-50.2-40.7-90.9-90.9-90.9h-49.8c-50.2,0-90.9-40.7-90.9-90.9v0
		c0-50.2-40.7-90.9-90.9-90.9h-611.9c-50.2,0-90.9,40.7-90.9,90.9v17.1c0,50.2,40.7,90.9,90.9,90.9h190c50.2,0,90.9,40.7,90.9,90.9
		v0c0,50.2,40.7,90.9,90.9,90.9h125.2c50.2,0,90.9,40.7,90.9,90.9v8.1c0,50.2,40.7,90.9,90.9,90.9H469c50.2,0,90.9-40.7,90.9-90.9
		v-17.1c0-50.2-40.7-90.9-90.9-90.9h-6.9C411.9,1150.5,371.2,1109.8,371.2,1059.6z"/>
	<linearGradient id="SVGID_4_" gradientUnits="userSpaceOnUse" x1="1858.5646" y1="2387.0786" x2="-2111.2693" y2="2387.0786">
		<stop  offset="0" style="stop-color:#FFCC8A"/>
		<stop  offset="0.9722" style="stop-color:#FFFB92"/>
	</linearGradient>
	<path class="st12" d="M739.9,2333.7c0-27.5-22.3-49.8-49.8-49.8H354.9l0,0H-45.7c-27.5,0-49.8,22.3-49.8,49.8l0,0
		c0,27.5-22.3,49.8-49.8,49.8h-54.5c-27.5,0-49.8,22.3-49.8,49.8v7.2c0,27.5,22.3,49.8,49.8,49.8H91.2h73.9h142.2
		c27.5,0,49.8-22.3,49.8-49.8v0c0-27.5,22.3-49.8,49.8-49.8h283.4c27.5,0,49.8-22.3,49.8-49.8V2333.7z"/>
	<g id="clouds_front" class="st2">
	</g>
	<linearGradient id="SVGID_5_" gradientUnits="userSpaceOnUse" x1="796.4868" y1="2470.78" x2="2262.1079" y2="2470.78">
		<stop  offset="0" style="stop-color:#FFCC8A"/>
		<stop  offset="0.9722" style="stop-color:#FFFB92"/>
	</linearGradient>
	<path class="st13" d="M1955.2,2500.2h-74.9c-25.3,0-45.8-20.5-45.8-45.8v0c0-25.3-20.5-45.8-45.8-45.8h-113.1
		c-25.3,0-45.8-20.5-45.8-45.8v-21.5c0-25.3-20.5-45.8-45.8-45.8h-142.9c-25.3,0-45.8-20.5-45.8-45.8v-6.9
		c0-25.3-20.5-45.8-45.8-45.8h-76.3c-25.3,0-45.8,20.5-45.8,45.8v6.9c0,25.3-20.5,45.8-45.8,45.8h-11.8c-25.3,0-45.8,20.5-45.8,45.8
		v21.5c0,25.3,20.5,45.8,45.8,45.8h113.1c25.3,0,45.8,20.5,45.8,45.8v0.7c0,25.3,20.5,45.8,45.8,45.8h254.3
		c25.3,0,45.8,20.5,45.8,45.8v27.4c0,25.3-20.5,45.8-45.8,45.8h-69.5c-25.3,0-45.8,20.5-45.8,45.8v32.9c0,25.3,20.5,45.8,45.8,45.8
		h204.2c25.3,0,45.8-20.5,45.8-45.8v-28.2c0-25.3,20.5-45.8,45.8-45.8h100.1c25.3,0,45.8-20.5,45.8-45.8V2546
		C2001,2520.7,1980.5,2500.2,1955.2,2500.2z"/>
	<path class="st14" d="M1168.1,249.1v-9c0-29.4-23.8-53.2-53.2-53.2H844.1c-29.4,0-53.2-23.8-53.2-53.2v-6.4
		c0-29.4,23.8-53.2,53.2-53.2h81.2c29.4,0,53.2-23.8,53.2-53.2v-7.4c0-29.4,23.8-53.2,53.2-53.2h83.2c29.4,0,53.2-23.8,53.2-53.2
		v-12.4c0-29.4-23.8-53.2-53.2-53.2H819.3c-29.4,0-53.2,23.8-53.2,53.2v7.4c0,29.4-23.8,53.2-53.2,53.2h0
		c-29.4,0-53.2,23.8-53.2,53.2v6.4c0,29.4-23.8,53.2-53.2,53.2h-52.6c-29.4,0-53.2,23.8-53.2,53.2v12.4c0,29.4,23.8,53.2,53.2,53.2
		h68.6c29.4,0,53.2,23.8,53.2,53.2v12.4c0,29.4,23.8,53.2,53.2,53.2h97.7c29.4,0,53.2,23.8,53.2,53.2v9c0,29.4,23.8,53.2,53.2,53.2
		h386c29.4,0,53.2-23.8,53.2-53.2v-12.4c0-29.4-23.8-53.2-53.2-53.2h-97.7C1191.9,302.3,1168.1,278.5,1168.1,249.1z"/>
	<path class="st14" d="M1976.5,211.3h-128.3c-32.6,0-59,26.4-59,59v0c0,32.6-26.4,59-59,59H1609c-32.6,0-59,26.4-59,59v0.9
		c0,32.6,26.4,59,59,59h218.4c32.6,0,59-26.4,59-59v0c0-32.6,26.4-59,59-59h31.2c32.6,0,59-26.4,59-59v-0.9
		C2035.4,237.7,2009,211.3,1976.5,211.3z"/>
	<path class="st15" d="M375.6,462.5v-0.8c0-41.2-33.4-74.5-74.5-74.5h-88.9c-41.2,0-74.5-33.4-74.5-74.5v0
		c0-41.2-33.4-74.5-74.5-74.5H-83.2c-41.2,0-74.5-33.4-74.5-74.5v-32.4c0-41.2,33.4-74.5,74.5-74.5h257.1
		c41.2,0,74.5-33.4,74.5-74.5v-2.6c0-41.2,33.4-74.5,74.5-74.5h86.9c41.2,0,74.5-33.4,74.5-74.5v-5.2c0-41.2-33.4-74.5-74.5-74.5
		H3.4c-41.2,0-74.5,33.4-74.5,74.5v2.6c0,41.2-33.4,74.5-74.5,74.5h-12h-158.5c-41.2,0-74.5,33.4-74.5,74.5v79.7v107
		c0,41.2-33.4,74.5-74.5,74.5h-88.8c-41.2,0-74.5,33.4-74.5,74.5v5.2c0,41.2,33.4,74.5,74.5,74.5h215.9c41.2,0,74.5,33.4,74.5,74.5
		v0c0,41.2,33.4,74.5,74.5,74.5H88.2c41.2,0,74.5,33.4,74.5,74.5v25.6c0,41.2,33.4,74.5,74.5,74.5h372.5c41.2,0,74.5-33.4,74.5-74.5
		v-30c0-41.2-33.4-74.5-74.5-74.5H450.2C409,537,375.6,503.7,375.6,462.5z"/>
	<linearGradient id="SVGID_6_" gradientUnits="userSpaceOnUse" x1="1162.4089" y1="1766.3872" x2="-1249.2465" y2="1766.3872">
		<stop  offset="0" style="stop-color:#FFCC8A"/>
		<stop  offset="0.9722" style="stop-color:#FFFB92"/>
	</linearGradient>
	<path class="st16" d="M331.4,1641.6H-27.1c-32.9,0-59.5,26.7-59.5,59.5v0c0,32.9-26.7,59.5-59.5,59.5H-230
		c-32.9,0-59.5,26.7-59.5,59.5v11.5c0,32.9,26.7,59.5,59.5,59.5h358.4c32.9,0,59.5-26.7,59.5-59.5v0c0-32.9,26.7-59.5,59.5-59.5
		h83.8c32.9,0,59.5-26.7,59.5-59.5v-11.5C390.9,1668.2,364.2,1641.6,331.4,1641.6z"/>
	<path class="st15" d="M1838.4,886.2h288.2c44,0,79.6-35.6,79.6-79.6v0c0-44-35.6-79.6-79.6-79.6h-288.2c-44,0-79.6,35.6-79.6,79.6
		v0C1758.9,850.6,1794.5,886.2,1838.4,886.2z"/>
</g>
<g id="Layer_8" class="st0">
	<linearGradient id="SVGID_7_" gradientUnits="userSpaceOnUse" x1="464.9061" y1="1456.8121" x2="464.9061" y2="4049.4109">
		<stop  offset="0" style="stop-color:#FFCC8A"/>
		<stop  offset="0.9722" style="stop-color:#FFFB92"/>
	</linearGradient>
	<path class="st17" d="M1016.4,2940.1v-8c0-58.7-47.6-106.3-106.3-106.3h-54.1c-58.7,0-106.3-47.6-106.3-106.3v-20.8
		c0-58.7-47.6-106.3-106.3-106.3H-445.5c-58.7,0-106.3,47.6-106.3,106.3v28.7c0,58.7,47.6,106.3,106.3,106.3H92.6
		c58.7,0,106.3,47.6,106.3,106.3l0,0c0,58.7-47.6,106.3-106.3,106.3H19.8c-58.7,0-106.3,47.6-106.3,106.3v28.7
		c0,58.7,47.6,106.3,106.3,106.3h1355.5c58.7,0,106.3-47.6,106.3-106.3v-28.7c0-58.7-47.6-106.3-106.3-106.3h-252.6
		C1064,3046.4,1016.4,2998.8,1016.4,2940.1z"/>
</g>
<g id="Layer_9">
	<g id="Layer_10">
	</g>
	<g id="Layer_3">
	</g>
</g>
<g id="Layer_16">
	<path class="st18" d="M1078.6,881.8l-4.3-1.9c-38.7-17.2-56.1-62.5-39-101.2l1.9-4.3c17.2-38.7,62.5-56.1,101.2-39l4.3,1.9
		c38.7,17.2,56.1,62.5,39,101.2l-1.9,4.3C1162.7,881.6,1117.4,899,1078.6,881.8z"/>
	<path class="st18" d="M443.9,2308.4l-2.6-1.2c-23.6-10.5-34.2-38-23.7-61.6l644.2-1450.1c10.5-23.6,38-34.2,61.6-23.7l2.6,1.2
		c23.6,10.5,34.2,38,23.7,61.6L505.5,2284.7C495.1,2308.2,467.5,2318.8,443.9,2308.4z"/>
	<path class="st19" d="M1142,823.5c8.2-18.5-0.1-40.1-18.6-48.3l0,0c-18.5-8.2-40.1,0.1-48.3,18.6v0c0,0.1-0.1,0.2-0.1,0.3l0,0
		l-20.1,45.3c-0.1,0.1-0.1,0.3-0.2,0.4L985.7,995c-1.7,3.8-0.9,7.8,1.7,9l0.1,0.1c2.6,1.2,6.1-1,7.8-4.8l46.4-104.5
		c1.7-3.8,5.2-5.9,7.8-4.8l0.1,0c2.6,1.2,3.4,5.2,1.7,9l-25.8,58c-1.7,3.8-0.9,7.8,1.7,9l0.1,0.1c2.6,1.2,6.1-1,7.8-4.8l11.3-25.4
		c1.7-3.8,5.2-5.9,7.8-4.8s6.1-1,7.8-4.8l8.4-18.9c1.7-3.8,5.2-5.9,7.8-4.8l0.1,0c2.6,1.2,3.4,5.2,1.7,9l-9.6,21.6
		c-1.7,3.8-0.9,7.8,1.7,9l0.1,0c2.6,1.2,3.4,5.2,1.7,9l-10,22.6c-1.7,3.8-0.9,7.8,1.7,9l0.1,0.1c2.6,1.2,6.1-1,7.8-4.8l38.9-87.5
		l0,0l29.7-66.9l0,0C1141.9,823.7,1142,823.6,1142,823.5L1142,823.5z"/>
	
		<linearGradient id="SVGID_8_" gradientUnits="userSpaceOnUse" x1="-713.9723" y1="286.9758" x2="-180.4498" y2="286.9758" gradientTransform="matrix(0.9131 0.4078 -0.4078 0.9131 1401.5515 1111.032)">
		<stop  offset="0.1666" style="stop-color:#6A6BFF"/>
		<stop  offset="0.2353" style="stop-color:#6E72EB"/>
		<stop  offset="0.3749" style="stop-color:#7985B9"/>
		<stop  offset="0.4571" style="stop-color:#809198"/>
		<stop  offset="0.6024" style="stop-color:#A7C598"/>
	</linearGradient>
	<path class="st20" d="M839.5,1314.8l-54.5-24.3c-13.1-5.9-12.3-33.7,1.2-61l71.1-143.4c10.1-20.3,26.6-32.3,37.4-27.5l44.4,19.8
		c10.7,4.8,12.8,25.1,4.4,46.2l-59.3,148.6C872.9,1301.5,852.7,1320.7,839.5,1314.8z"/>
	
		<linearGradient id="SVGID_9_" gradientUnits="userSpaceOnUse" x1="-573.9471" y1="286.9758" x2="-40.4246" y2="286.9758" gradientTransform="matrix(0.9131 0.4078 -0.4078 0.9131 1401.5515 1111.032)">
		<stop  offset="0.1666" style="stop-color:#6A6BFF"/>
		<stop  offset="0.2353" style="stop-color:#6E72EB"/>
		<stop  offset="0.3749" style="stop-color:#7985B9"/>
		<stop  offset="0.4571" style="stop-color:#809198"/>
		<stop  offset="0.6024" style="stop-color:#A7C598"/>
	</linearGradient>
	<path class="st21" d="M967.4,1371.9l-54.5-24.3c-13.1-5.9-12.3-33.7,1.2-61l71.1-143.4c10.1-20.3,26.6-32.3,37.4-27.5l44.4,19.8
		c10.7,4.8,12.8,25.1,4.4,46.2l-59.3,148.6C1000.7,1358.6,980.5,1377.8,967.4,1371.9z"/>
	
		<linearGradient id="SVGID_10_" gradientUnits="userSpaceOnUse" x1="-453.5342" y1="460.3054" x2="-453.5342" y2="195.2047" gradientTransform="matrix(0.9131 0.4078 -0.4078 0.9131 1401.5515 1111.032)">
		<stop  offset="0.1666" style="stop-color:#3E3124"/>
		<stop  offset="0.2082" style="stop-color:#524214"/>
		<stop  offset="0.2507" style="stop-color:#6A5800"/>
		<stop  offset="0.2583" style="stop-color:#615006"/>
		<stop  offset="0.2785" style="stop-color:#504013"/>
		<stop  offset="0.3032" style="stop-color:#43351B"/>
		<stop  offset="0.3363" style="stop-color:#3C2F21"/>
		<stop  offset="0.4144" style="stop-color:#3A2D22"/>
	</linearGradient>
	<path class="st22" d="M839.4,1330.6l-54.5-24.3c-13.1-5.9-11.2-36.4,3.8-66.9l78.5-159.9c11.1-22.6,28.5-36.5,39.2-31.7l44.4,19.8
		c10.7,4.8,12,27,2.6,50.4l-66.7,165.2C874,1314.7,852.6,1336.5,839.4,1330.6z"/>
	
		<linearGradient id="SVGID_11_" gradientUnits="userSpaceOnUse" x1="-326.2386" y1="464.3997" x2="-326.2386" y2="199.299" gradientTransform="matrix(0.9131 0.4078 -0.4078 0.9131 1401.5515 1111.032)">
		<stop  offset="0.1666" style="stop-color:#3E3124"/>
		<stop  offset="0.2082" style="stop-color:#524214"/>
		<stop  offset="0.2507" style="stop-color:#6A5800"/>
		<stop  offset="0.2583" style="stop-color:#615006"/>
		<stop  offset="0.2785" style="stop-color:#504013"/>
		<stop  offset="0.3032" style="stop-color:#43351B"/>
		<stop  offset="0.3363" style="stop-color:#3C2F21"/>
		<stop  offset="0.4144" style="stop-color:#3A2D22"/>
	</linearGradient>
	<path class="st23" d="M955.7,1382.6l-54.5-24.3c-13.1-5.9-11.2-36.4,3.8-66.9l78.5-159.9c11.1-22.6,28.5-36.5,39.2-31.7l44.4,19.8
		c10.7,4.8,12,27,2.6,50.4l-66.7,165.2C990.2,1366.6,968.8,1388.4,955.7,1382.6z"/>
	<path class="st24" d="M1061.2,665.5l36.6,16.3c2.3,1,5.3-0.2,6.6-2.7l49.6-93.3c2.1-3.9-3-7.3-6.4-4.4l-86.7,76.2
		C1058.1,660.2,1058.2,664.2,1061.2,665.5z"/>
	<path class="st24" d="M1248.5,749.2l-36.6-16.3c-2.3-1-3.4-4.1-2.4-6.8l36.4-99.2c1.5-4.1,7.5-2.6,7.5,1.9l1.1,115.4
		C1254.5,747.9,1251.5,750.5,1248.5,749.2z"/>
	
		<linearGradient id="SVGID_12_" gradientUnits="userSpaceOnUse" x1="-997.1265" y1="-542.0453" x2="-18.71" y2="-321.2222" gradientTransform="matrix(0.9131 0.4078 -0.4078 0.9131 1401.5515 1111.032)">
		<stop  offset="0.1666" style="stop-color:#3F648C"/>
		<stop  offset="0.4289" style="stop-color:#41668C"/>
		<stop  offset="0.5792" style="stop-color:#4A6E8D"/>
		<stop  offset="0.7011" style="stop-color:#587B8F"/>
		<stop  offset="0.8078" style="stop-color:#6B8D91"/>
		<stop  offset="0.904" style="stop-color:#85A594"/>
		<stop  offset="0.9924" style="stop-color:#A4C298"/>
		<stop  offset="1" style="stop-color:#A7C598"/>
	</linearGradient>
	<path class="st25" d="M1194.3,619L1194.3,619c-85.7-38.3,5.1-77,20.3-77.7l4.7-0.2c2.6-0.1,6.1,0.8,8.9,2.1v0
		c2.8,1.2,5.8,3.2,7.5,5.3l2.9,3.6C1248.2,563.8,1280,657.3,1194.3,619z"/>
	
		<linearGradient id="SVGID_13_" gradientUnits="userSpaceOnUse" x1="-671.3093" y1="-321.2766" x2="-36.6929" y2="-321.2766" gradientTransform="matrix(0.9131 0.4078 -0.4078 0.9131 1401.5515 1111.032)">
		<stop  offset="0.1666" style="stop-color:#6A6BFF"/>
		<stop  offset="0.2353" style="stop-color:#6E72EB"/>
		<stop  offset="0.3749" style="stop-color:#7985B9"/>
		<stop  offset="0.4571" style="stop-color:#809198"/>
		<stop  offset="0.6024" style="stop-color:#A7C598"/>
	</linearGradient>
	<path class="st26" d="M1176.5,746.3l-65.2-29.1c-15.7-7-20.8-26.9-11.7-43.7l47.7-88c6.8-12.5,22.4-17.6,35.3-11.8l53.1,23.7
		c12.8,5.7,19.5,20.8,14.7,34.2l-33.7,94.3C1210.4,743.9,1192.2,753.3,1176.5,746.3z"/>
	<path class="st24" d="M1173.1,781.8l-85.9-38.3c-10-4.5-14.5-16.2-10-26.2l8.5-19.1c4.5-10,16.2-14.5,26.2-10l85.9,38.3
		c10,4.5,14.5,16.2,10,26.2l-8.5,19.1C1194.8,781.8,1183.1,786.3,1173.1,781.8z"/>
	<g>
		<defs>
			<path id="SVGID_14_" d="M1056.3,1097l136.4-325.2c4.9-11.7-0.4-25.2-11.8-30.3l-68.8-30.7c-11.4-5.1-25,0-30.5,11.4l-151.2,318.6
				c-7,14.9-2.1,31.8,11.1,37.7c-13.2-5.9-29.7,1.6-37,16.9l-217.9,459.3c-10,21-5.4,44,10.3,51l94.7,42.3
				c15.7,7,35.8-4.9,44.9-26.4l196.6-468.8c6.5-15.6,1.1-32.9-12.1-38.8h0C1034.1,1119.8,1050,1112.1,1056.3,1097z"/>
		</defs>
		
			<linearGradient id="SVGID_15_" gradientUnits="userSpaceOnUse" x1="-660.8079" y1="245.7521" x2="-26.1956" y2="245.7521" gradientTransform="matrix(0.9131 0.4078 -0.4078 0.9131 1401.5515 1111.032)">
			<stop  offset="0.1666" style="stop-color:#6A6BFF"/>
			<stop  offset="0.2261" style="stop-color:#6E72EB"/>
			<stop  offset="0.3469" style="stop-color:#7985B9"/>
			<stop  offset="0.4181" style="stop-color:#809198"/>
			<stop  offset="0.6703" style="stop-color:#A7C598"/>
		</linearGradient>
		<use xlink:href="#SVGID_14_"  style="overflow:visible;fill:url(#SVGID_15_);"/>
		<clipPath id="SVGID_16_">
			<use xlink:href="#SVGID_14_"  style="overflow:visible;"/>
		</clipPath>
		
			<linearGradient id="SVGID_17_" gradientUnits="userSpaceOnUse" x1="-485.3923" y1="533.037" x2="-294.3816" y2="533.037" gradientTransform="matrix(0.9131 0.4078 -0.4078 0.9131 1401.5515 1111.032)">
			<stop  offset="0.1666" style="stop-color:#3F648C"/>
			<stop  offset="0.4289" style="stop-color:#41668C"/>
			<stop  offset="0.5792" style="stop-color:#4A6E8D"/>
			<stop  offset="0.7011" style="stop-color:#587B8F"/>
			<stop  offset="0.8078" style="stop-color:#6B8D91"/>
			<stop  offset="0.904" style="stop-color:#85A594"/>
			<stop  offset="0.9924" style="stop-color:#A4C298"/>
			<stop  offset="1" style="stop-color:#A7C598"/>
		</linearGradient>
		<path class="st27" d="M819.3,1680.6L654,1606.8c-11.2-5,38.9-87.3,86.1-149.6l171-225.5c0.5-0.7,1.6-0.9,2.5-0.6l12.3,5.5
			c0.8,0.4,1.4,1.3,1.2,2.2l-53.8,277.9C858.3,1593.4,830.6,1685.6,819.3,1680.6z"/>
		<path class="st28" d="M654.6,2049.4l-165.3-73.8c-11.2-5,2.1-44.4,26.7-83.1l258.8-407.4c2-3.2,5.9-4.6,8.8-3.3l42.4,18.9
			c2.9,1.3,4.4,5.2,3.4,8.8l-130.7,464.6C686.3,2018.2,665.8,2054.4,654.6,2049.4z"/>
	</g>
	<g>
		<path class="st24" d="M854.7,1762.2l-72-32.2c-6.6-2.9-9.9-9.8-7.4-15.3l73.2-163.8c5-11.1,24.6-5.7,24.5,6.8l-1.2,196
			C871.7,1761.6,862.9,1765.9,854.7,1762.2z"/>
		<path class="st24" d="M731.1,1498.6l-73.2,163.8c-2.5,5.5-9.8,7.6-16.3,4.7l-72-32.2c-8.3-3.7-10.9-13.2-5.1-18.4l145.2-131.7
			C718.9,1476.5,736.1,1487.4,731.1,1498.6z"/>
	</g>
	
		<radialGradient id="SVGID_18_" cx="-520.3516" cy="231.2947" r="497.5295" gradientTransform="matrix(0.6457 0.2884 -0.2126 0.476 1065.7584 1809.1915)" gradientUnits="userSpaceOnUse">
		<stop  offset="0" style="stop-color:#FFFB92"/>
		<stop  offset="2.081001e-02" style="stop-color:#F7EF8A"/>
		<stop  offset="0.1255" style="stop-color:#D2B866"/>
		<stop  offset="0.231" style="stop-color:#B28947"/>
		<stop  offset="0.335" style="stop-color:#98622D"/>
		<stop  offset="0.4374" style="stop-color:#844419"/>
		<stop  offset="0.5376" style="stop-color:#762E0B"/>
		<stop  offset="0.6346" style="stop-color:#6D2103"/>
		<stop  offset="0.7249" style="stop-color:#6A1D00"/>
	</radialGradient>
	<path class="st29" d="M642.3,1942.8l-65.4-29.2c-69.7-31.2-101-112.9-69.9-182.7l29.2-65.4c31.2-69.7,112.9-101,182.7-69.9
		l65.4,29.2c69.7,31.2,101,112.9,69.9,182.7l-29.2,65.4C793.8,1942.7,712,1973.9,642.3,1942.8z"/>
	<path class="st30" d="M655.1,1929l-76.4-34.1c-57.5-25.7-83.3-93.1-57.6-150.6l17-38.1c25.7-57.5,93.1-83.3,150.6-57.6l76.4,34.1
		c57.5,25.7,83.3,93.1,57.6,150.6l-17,38.1C780,1928.9,712.6,1954.6,655.1,1929z"/>
	
		<linearGradient id="SVGID_19_" gradientUnits="userSpaceOnUse" x1="-389.8864" y1="383.6508" x2="-389.8864" y2="-13.6588" gradientTransform="matrix(0.9131 0.4078 -0.4078 0.9131 1401.5515 1111.032)">
		<stop  offset="0.1666" style="stop-color:#3E3124"/>
		<stop  offset="0.2082" style="stop-color:#524214"/>
		<stop  offset="0.2507" style="stop-color:#6A5800"/>
		<stop  offset="0.2583" style="stop-color:#615006"/>
		<stop  offset="0.2785" style="stop-color:#504013"/>
		<stop  offset="0.3032" style="stop-color:#43351B"/>
		<stop  offset="0.3363" style="stop-color:#3C2F21"/>
		<stop  offset="0.4144" style="stop-color:#3A2D22"/>
	</linearGradient>
	<path class="st31" d="M954.9,1242.5l-65.2-29.1c-15.7-7-13.3-43.5,4.5-80l93.9-191.3c13.3-27.1,34.1-43.7,46.9-37.9l53.1,23.7
		c12.8,5.7,14.4,32.3,3.1,60.2l-79.8,197.6C996.2,1223.4,970.6,1249.5,954.9,1242.5z"/>
	
		<linearGradient id="SVGID_20_" gradientUnits="userSpaceOnUse" x1="-643.9597" y1="110.1763" x2="-110.4372" y2="110.1763" gradientTransform="matrix(0.9131 0.4078 -0.4078 0.9131 1401.5515 1111.032)">
		<stop  offset="0.1666" style="stop-color:#6A6BFF"/>
		<stop  offset="0.2353" style="stop-color:#6E72EB"/>
		<stop  offset="0.3749" style="stop-color:#7985B9"/>
		<stop  offset="0.4571" style="stop-color:#809198"/>
		<stop  offset="0.6024" style="stop-color:#A7C598"/>
	</linearGradient>
	<path class="st32" d="M969.6,1195.2l-54.5-24.3c-13.1-5.9-11.2-36.4,3.8-66.9l78.5-159.9c11.1-22.6,28.5-36.5,39.2-31.7l44.4,19.8
		c10.7,4.8,12,27,2.6,50.4l-66.7,165.2C1004.2,1179.2,982.8,1201,969.6,1195.2z"/>
	<path class="st33" d="M573.4,2025.7l-9.1-4c-80.9-35.9-117.4-130.7-81.4-211.6l4-9.1c35.9-80.9,130.7-117.4,211.6-81.4l9.1,4
		c80.9,35.9,117.4,130.7,81.4,211.6l-4,9.1C749,2025.1,654.3,2061.6,573.4,2025.7z"/>
	<path class="st33" d="M-752.8,5008.1l-6.8-3c-48.9-21.7-70.9-78.9-49.2-127.8L538.4,1844.6c21.7-48.9,78.9-70.9,127.8-49.2l6.8,3
		c48.9,21.7,70.9,78.9,49.2,127.8L-625,4958.9C-646.7,5007.8-704,5029.8-752.8,5008.1z"/>
	<path class="st34" d="M705.9,1903.7c17.2-38.6-0.2-83.8-38.9-101l0,0c-38.6-17.2-83.8,0.2-101,38.9l0,0c-0.1,0.2-0.2,0.5-0.3,0.7
		l0,0l-42.1,94.7c-0.2,0.3-0.3,0.6-0.5,0.9l-144,324.2c-3.5,7.9-2,16.4,3.5,18.8l0.3,0.1c5.5,2.4,12.8-2,16.3-10l97.1-218.5
		c3.5-7.9,10.8-12.4,16.3-10l0.2,0.1c5.5,2.4,7,10.8,3.5,18.8l-53.9,121.3c-3.5,7.9-2,16.4,3.5,18.8l0.3,0.1c5.5,2.4,12.8-2,16.3-10
		l23.6-53.1c3.5-7.9,10.8-12.4,16.3-10c5.5,2.4,12.8-2,16.3-10l17.5-39.4c3.5-7.9,10.8-12.4,16.3-10l0.2,0.1
		c5.5,2.4,7,10.8,3.5,18.8l-20.1,45.2c-3.5,7.9-2,16.4,3.5,18.8l0.2,0.1c5.5,2.4,7,10.8,3.5,18.8l-21,47.3c-3.5,7.9-2,16.4,3.5,18.8
		l0.3,0.1c5.5,2.4,12.8-2,16.3-10l81.2-182.8l0,0l62.1-139.8l0,0C705.6,1904.1,705.8,1903.9,705.9,1903.7L705.9,1903.7z"/>
</g>
<g id="Layer_12" class="st0">
	<g id="Layer_13" class="st2">
		<path class="st33" d="M-5522.7-1278.4L-5522.7-1278.4c-61.7,0-111.8-50.1-111.8-111.8v0c0-61.7,50.1-111.8,111.8-111.8h0
			c61.7,0,111.8,50.1,111.8,111.8v0C-5410.9-1328.4-5460.9-1278.4-5522.7-1278.4z"/>
		<path class="st33" d="M-5522.7,929.4L-5522.7,929.4c-37.6,0-68-30.5-68-68l0-2239.6c0-37.6,30.5-68,68-68l0,0
			c37.6,0,68,30.5,68,68l0,2239.6C-5454.6,899-5485.1,929.4-5522.7,929.4z"/>
		<path class="st34" d="M-5470.9-1390.2c0-28.6-23.2-51.8-51.8-51.8h0c-28.6,0-51.8,23.2-51.8,51.8v0c0,0.2,0,0.3,0,0.5h0v70.1
			c0,0.2,0,0.5,0,0.7v240c0,5.9,3.3,10.7,7.3,10.7h0.2c4,0,7.3-4.8,7.3-10.7v-161.7c0-5.9,3.3-10.7,7.3-10.7h0.1
			c4,0,7.3,4.8,7.3,10.7v89.8c0,5.9,3.3,10.7,7.3,10.7h0.2c4,0,7.3-4.8,7.3-10.7v-39.3c0-5.9,3.3-10.7,7.3-10.7s7.3-4.8,7.3-10.7
			v-29.2c0-5.9,3.3-10.7,7.3-10.7h0.1c4,0,7.3,4.8,7.3,10.7v33.5c0,5.9,3.3,10.7,7.3,10.7h0.1c4,0,7.3,4.8,7.3,10.7v35
			c0,5.9,3.3,10.7,7.3,10.7h0.2c4,0,7.3-4.8,7.3-10.7l0-135.3h0v-103.5h0C-5470.9-1389.8-5470.9-1390-5470.9-1390.2L-5470.9-1390.2z
			"/>
	</g>
	<g id="Layer_15" class="st2">
		
			<linearGradient id="SVGID_21_" gradientUnits="userSpaceOnUse" x1="-5982.0015" y1="-758.1967" x2="-5227.5791" y2="-758.1967" gradientTransform="matrix(1 2.002405e-03 -2.001748e-03 1 -0.3753 6.3666)">
			<stop  offset="0.1666" style="stop-color:#6A6BFF"/>
			<stop  offset="0.2353" style="stop-color:#6E72EB"/>
			<stop  offset="0.3749" style="stop-color:#7985B9"/>
			<stop  offset="0.4571" style="stop-color:#809198"/>
			<stop  offset="0.6024" style="stop-color:#A7C598"/>
		</linearGradient>
		<path class="st35" d="M-5579.8-581.6l-84.4-0.2c-20.3,0-35.3-36.5-33.5-79.6l9.5-226.1c1.4-32,15.9-57.1,32.5-57l68.8,0.1
			c16.6,0,31,25.1,32.2,57.2l8.6,226.1C-5544.3-618-5559.4-581.6-5579.8-581.6z"/>
		
			<linearGradient id="SVGID_22_" gradientUnits="userSpaceOnUse" x1="-5784" y1="-758.1967" x2="-5029.5781" y2="-758.1967" gradientTransform="matrix(1 2.002405e-03 -2.001748e-03 1 -0.3753 6.3666)">
			<stop  offset="0.1666" style="stop-color:#6A6BFF"/>
			<stop  offset="0.2353" style="stop-color:#6E72EB"/>
			<stop  offset="0.3749" style="stop-color:#7985B9"/>
			<stop  offset="0.4571" style="stop-color:#809198"/>
			<stop  offset="0.6024" style="stop-color:#A7C598"/>
		</linearGradient>
		<path class="st36" d="M-5381.8-581.3l-84.4-0.2c-20.3,0-35.3-36.5-33.5-79.6l9.5-226.1c1.4-32,15.9-57.1,32.5-57l68.8,0.1
			c16.6,0,31,25.1,32.2,57.2l8.6,226.1C-5346.3-617.6-5361.4-581.2-5381.8-581.3z"/>
		
			<linearGradient id="SVGID_23_" gradientUnits="userSpaceOnUse" x1="-5613.7314" y1="-513.1017" x2="-5613.7314" y2="-887.9647" gradientTransform="matrix(1 2.002405e-03 -2.001748e-03 1 -0.3753 6.3666)">
			<stop  offset="0.1666" style="stop-color:#3E3124"/>
			<stop  offset="0.2082" style="stop-color:#524214"/>
			<stop  offset="0.2507" style="stop-color:#6A5800"/>
			<stop  offset="0.2583" style="stop-color:#615006"/>
			<stop  offset="0.2785" style="stop-color:#504013"/>
			<stop  offset="0.3032" style="stop-color:#43351B"/>
			<stop  offset="0.3363" style="stop-color:#3C2F21"/>
			<stop  offset="0.4144" style="stop-color:#3A2D22"/>
		</linearGradient>
		<path class="st37" d="M-5570.8-561.1l-84.4-0.2c-20.3,0-35.3-40.6-33.5-88.6l9.6-251.7c1.4-35.6,15.9-63.5,32.5-63.5l68.8,0.1
			c16.6,0,31,28,32.2,63.6l8.6,251.7C-5535.4-601.5-5550.5-561-5570.8-561.1z"/>
		
			<linearGradient id="SVGID_24_" gradientUnits="userSpaceOnUse" x1="-5433.7305" y1="-507.3122" x2="-5433.7305" y2="-882.1752" gradientTransform="matrix(1 2.002405e-03 -2.001748e-03 1 -0.3753 6.3666)">
			<stop  offset="0.1666" style="stop-color:#3E3124"/>
			<stop  offset="0.2082" style="stop-color:#524214"/>
			<stop  offset="0.2507" style="stop-color:#6A5800"/>
			<stop  offset="0.2583" style="stop-color:#615006"/>
			<stop  offset="0.2785" style="stop-color:#504013"/>
			<stop  offset="0.3032" style="stop-color:#43351B"/>
			<stop  offset="0.3363" style="stop-color:#3C2F21"/>
			<stop  offset="0.4144" style="stop-color:#3A2D22"/>
		</linearGradient>
		<path class="st38" d="M-5390.8-560.7l-84.4-0.2c-20.3,0-35.3-40.6-33.5-88.6l9.6-251.7c1.4-35.6,15.9-63.5,32.5-63.5l68.8,0.1
			c16.6,0,31,28,32.2,63.6l8.6,251.7C-5355.3-601.2-5370.5-560.7-5390.8-560.7z"/>
		<path class="st24" d="M-5666.1-1547.9l56.7,0.1c3.6,0,6.7-3.3,7-7.3l10.6-149c0.4-6.2-8.1-7.7-10.8-2l-68.3,148.3
			C-5673.1-1553-5670.6-1547.9-5666.1-1547.9z"/>
		<path class="st24" d="M-5375.9-1547.3l-56.7-0.1c-3.6,0-6.7-3.3-7-7.4l-10-149c-0.4-6.2,8.2-7.7,10.8-1.9l67.7,148.6
			C-5368.9-1552.4-5371.4-1547.3-5375.9-1547.3z"/>
		
			<linearGradient id="SVGID_25_" gradientUnits="userSpaceOnUse" x1="-6382.3926" y1="-1930.4656" x2="-4998.873" y2="-1618.2129" gradientTransform="matrix(1 2.002405e-03 -2.001748e-03 1 -0.3753 6.3666)">
			<stop  offset="0.1666" style="stop-color:#3F648C"/>
			<stop  offset="0.4289" style="stop-color:#41668C"/>
			<stop  offset="0.5792" style="stop-color:#4A6E8D"/>
			<stop  offset="0.7011" style="stop-color:#587B8F"/>
			<stop  offset="0.8078" style="stop-color:#6B8D91"/>
			<stop  offset="0.904" style="stop-color:#85A594"/>
			<stop  offset="0.9924" style="stop-color:#A4C298"/>
			<stop  offset="1" style="stop-color:#A7C598"/>
		</linearGradient>
		<path class="st39" d="M-5520.7-1684.5L-5520.7-1684.5c-132.8-0.3-37.6-102.4-18.3-112.1l5.9-3c3.3-1.6,8.4-2.5,12.7-2.5l0,0
			c4.3,0,9.4,0.8,12.7,2.5l5.9,3C-5482.7-1786.7-5388-1684.2-5520.7-1684.5z"/>
		
			<linearGradient id="SVGID_26_" gradientUnits="userSpaceOnUse" x1="-5921.6743" y1="-1618.2899" x2="-5024.3013" y2="-1618.2899" gradientTransform="matrix(1 2.002405e-03 -2.001748e-03 1 -0.3753 6.3666)">
			<stop  offset="0.1666" style="stop-color:#6A6BFF"/>
			<stop  offset="0.2353" style="stop-color:#6E72EB"/>
			<stop  offset="0.3749" style="stop-color:#7985B9"/>
			<stop  offset="0.4571" style="stop-color:#809198"/>
			<stop  offset="0.6024" style="stop-color:#A7C598"/>
		</linearGradient>
		<path class="st40" d="M-5470.6-1509.7l-100.9-0.2c-24.3,0-42.3-22.8-40.2-49.7l11.1-141.1c1.6-20,18.9-35.6,38.8-35.6l82.3,0.2
			c19.9,0,37.1,15.7,38.6,35.7l10.6,141.1C-5428.3-1532.3-5446.3-1509.6-5470.6-1509.7z"/>
		<path class="st24" d="M-5446.5-1461.8l-149.4-0.3c-11,0-19.8-8.9-19.8-19.9l0.1-45.9c0-11,8.9-19.8,19.9-19.8l149.4,0.3
			c11,0,19.8,8.9,19.8,19.9l-0.1,45.9C-5426.6-1470.7-5435.5-1461.8-5446.5-1461.8z"/>
		<g>
			<defs>
				<path id="SVGID_27_" d="M-5424.6-987.6l-10.5-498.6c-0.4-17.9-15-32.3-32.7-32.4l-106.5-0.2c-17.7,0-32.4,14.3-32.8,32.2
					l-12.5,498.5c-0.6,23.2,15.5,42.3,35.9,42.3c-20.4,0-37.5,19.1-38.1,43l-18,718.6c-0.8,32.9,18.2,60,42.6,60l146.6,0.3
					c24.3,0,43.5-26.9,42.8-59.9l-15.1-718.7c-0.5-23.9-17.5-43.2-37.9-43.2l0,0C-5440.3-945.3-5424.2-964.3-5424.6-987.6z"/>
			</defs>
			
				<linearGradient id="SVGID_28_" gradientUnits="userSpaceOnUse" x1="-5906.8247" y1="-816.4886" x2="-5009.4575" y2="-816.4886" gradientTransform="matrix(1 2.002405e-03 -2.001748e-03 1 -0.3753 6.3666)">
				<stop  offset="0.1666" style="stop-color:#6A6BFF"/>
				<stop  offset="0.2261" style="stop-color:#6E72EB"/>
				<stop  offset="0.3469" style="stop-color:#7985B9"/>
				<stop  offset="0.4181" style="stop-color:#809198"/>
				<stop  offset="0.6703" style="stop-color:#A7C598"/>
			</linearGradient>
			<use xlink:href="#SVGID_27_"  style="overflow:visible;fill:url(#SVGID_28_);"/>
			<clipPath id="SVGID_29_">
				<use xlink:href="#SVGID_27_"  style="overflow:visible;"/>
			</clipPath>
			
				<linearGradient id="SVGID_30_" gradientUnits="userSpaceOnUse" x1="-5658.7798" y1="-410.2563" x2="-5388.6831" y2="-410.2563" gradientTransform="matrix(1 2.002405e-03 -2.001748e-03 1 -0.3753 6.3666)">
				<stop  offset="0.1666" style="stop-color:#3F648C"/>
				<stop  offset="0.4289" style="stop-color:#41668C"/>
				<stop  offset="0.5792" style="stop-color:#4A6E8D"/>
				<stop  offset="0.7011" style="stop-color:#587B8F"/>
				<stop  offset="0.8078" style="stop-color:#6B8D91"/>
				<stop  offset="0.904" style="stop-color:#85A594"/>
				<stop  offset="0.9924" style="stop-color:#A4C298"/>
				<stop  offset="1" style="stop-color:#A7C598"/>
			</linearGradient>
			<path class="st41" d="M-5395.9-97.3l-256-0.5c-17.4,0,0.2-135.1,25.5-242.7l91.5-389.6c0.3-1.2,1.6-2.2,2.8-2.2l19,0
				c1.3,0,2.6,0.9,2.8,2.2l89.9,390C-5395.6-232.4-5378.5-97.3-5395.9-97.3z"/>
			<path class="st42" d="M-5397.1,473.9l-256-0.5c-17.4,0-22.8-58.7-13.2-122.8l100.6-675c0.8-5.3,5-9.4,9.5-9.4l65.6,0.1
				c4.5,0,8.7,4.1,9.4,9.4l97.9,675.4C-5374,415.3-5379.7,473.9-5397.1,473.9z"/>
		</g>
		<g>
			<path class="st24" d="M-5303.4-12.1l-111.5-0.2c-10.2,0-18.4-7-18.3-15.5l0.5-253.7c0-17.2,28.6-21.5,35.6-5.3l111,253.9
				C-5281.7-22.8-5290.6-12.1-5303.4-12.1z"/>
			<path class="st24" d="M-5614.4-281.9l-0.5,253.7c0,8.5-8.3,15.4-18.4,15.4l-111.5-0.2c-12.8,0-21.7-10.8-17.2-20.8l112-253.5
				C-5642.9-303.5-5614.4-299.1-5614.4-281.9z"/>
		</g>
		
			<radialGradient id="SVGID_31_" cx="-5523.7329" cy="101.5354" r="497.5298" gradientTransform="matrix(1 2.002405e-03 -1.475502e-03 0.7371 -0.4287 33.0595)" gradientUnits="userSpaceOnUse">
			<stop  offset="0" style="stop-color:#FFFB92"/>
			<stop  offset="2.081001e-02" style="stop-color:#F7EF8A"/>
			<stop  offset="0.1255" style="stop-color:#D2B866"/>
			<stop  offset="0.231" style="stop-color:#B28947"/>
			<stop  offset="0.335" style="stop-color:#98622D"/>
			<stop  offset="0.4374" style="stop-color:#844419"/>
			<stop  offset="0.5376" style="stop-color:#762E0B"/>
			<stop  offset="0.6346" style="stop-color:#6D2103"/>
			<stop  offset="0.7249" style="stop-color:#6A1D00"/>
		</radialGradient>
		<path class="st43" d="M-5416.9,343.3l-215.8-0.4c-76.4-0.2-138.2-62.2-138-138.6l0.4-215.8c0.2-76.4,62.2-138.2,138.6-138
			l215.8,0.4c76.4,0.2,138.2,62.2,138,138.6l-0.4,215.8C-5278.5,281.6-5340.5,343.4-5416.9,343.3z"/>
		<path class="st30" d="M-5418.4,318l-212.8-0.4c-62.9-0.1-113.9-51.3-113.8-114.2l0.3-153.4c0.1-62.9,51.3-113.9,114.2-113.8
			l212.8,0.4c62.9,0.1,113.9,51.3,113.8,114.2l-0.3,153.4C-5304.3,267.2-5355.4,318.2-5418.4,318z"/>
		
			<linearGradient id="SVGID_32_" gradientUnits="userSpaceOnUse" x1="-5523.731" y1="-621.4944" x2="-5523.731" y2="-1183.306" gradientTransform="matrix(1 2.002405e-03 -2.001748e-03 1 -0.3753 6.3666)">
			<stop  offset="0.1666" style="stop-color:#3E3124"/>
			<stop  offset="0.2082" style="stop-color:#524214"/>
			<stop  offset="0.2507" style="stop-color:#6A5800"/>
			<stop  offset="0.2583" style="stop-color:#615006"/>
			<stop  offset="0.2785" style="stop-color:#504013"/>
			<stop  offset="0.3032" style="stop-color:#43351B"/>
			<stop  offset="0.3363" style="stop-color:#3C2F21"/>
			<stop  offset="0.4144" style="stop-color:#3A2D22"/>
		</linearGradient>
		<path class="st44" d="M-5472.2-741.3l-100.9-0.2c-24.3,0-42.2-48.6-40-106l11.5-301.1c1.6-42.6,19-76,38.8-75.9l82.3,0.2
			c19.9,0,37.1,33.5,38.5,76.1l10.3,301.1C-5429.8-789.7-5447.8-741.2-5472.2-741.3z"/>
		
			<linearGradient id="SVGID_33_" gradientUnits="userSpaceOnUse" x1="-5883.0005" y1="-1008.1982" x2="-5128.5786" y2="-1008.1982" gradientTransform="matrix(1 2.002405e-03 -2.001748e-03 1 -0.3753 6.3666)">
			<stop  offset="0.1666" style="stop-color:#6A6BFF"/>
			<stop  offset="0.2353" style="stop-color:#6E72EB"/>
			<stop  offset="0.3749" style="stop-color:#7985B9"/>
			<stop  offset="0.4571" style="stop-color:#809198"/>
			<stop  offset="0.6024" style="stop-color:#A7C598"/>
		</linearGradient>
		<path class="st45" d="M-5480.3-810.9l-84.4-0.2c-20.3,0-35.3-40.6-33.5-88.6l9.6-251.7c1.4-35.6,15.9-63.5,32.5-63.5l68.8,0.1
			c16.6,0,31,28,32.2,63.6l8.6,251.7C-5444.9-851.4-5460-810.9-5480.3-810.9z"/>
	</g>
	<g id="Layer_14" class="st2">
		<path class="st33" d="M-5500.6,489.8l-44.1,0c-116.9,0-211.6-94.8-211.6-211.6V234c0-116.9,94.8-211.6,211.6-211.6l44.1,0
			c116.9,0,211.6,94.8,211.6,211.6v44.1C-5289,395-5383.7,489.8-5500.6,489.8z"/>
		<path class="st33" d="M-5477.3,5105.3l-90.7,0c-53.5,0-96.8-43.4-96.8-96.8l0-4772.6c0-53.5,43.4-96.8,96.8-96.8l90.7,0
			c53.5,0,96.8,43.4,96.8,96.8l0,4772.6C-5380.5,5061.9-5423.8,5105.3-5477.3,5105.3z"/>
		<path class="st34" d="M-5414.5,256.1c0-59.7-48.4-108.2-108.2-108.2l0,0c-59.7,0-108.2,48.4-108.2,108.2v0c0,0.4,0,0.7,0,1.1h0
			v146.6c0,0.5-0.1,1-0.1,1.5v501.7c0,12.3,6.9,22.3,15.3,22.3h0.4c8.5,0,15.3-10,15.3-22.3V568.8c0-12.3,6.9-22.3,15.3-22.3h0.3
			c8.5,0,15.3,10,15.3,22.3v187.7c0,12.3,6.9,22.3,15.3,22.3h0.4c8.5,0,15.3-10,15.3-22.3v-82.2c0-12.3,6.9-22.3,15.3-22.3
			c8.5,0,15.3-10,15.3-22.3v-61c0-12.3,6.9-22.3,15.3-22.3h0.2c8.5,0,15.3,10,15.3,22.3v70c0,12.3,6.9,22.3,15.3,22.3h0.3
			c8.5,0,15.3,10,15.3,22.3v73.2c0,12.3,6.9,22.3,15.3,22.3h0.4c8.5,0,15.3-10,15.3-22.3V473.5h0.1V257.1h0
			C-5414.5,256.8-5414.5,256.4-5414.5,256.1L-5414.5,256.1z"/>
	</g>
</g>
</svg>
