<?xml version="1.0" encoding="utf-8"?>
<!-- Generator: Adobe Illustrator 23.0.6, SVG Export Plug-In . SVG Version: 6.00 Build 0)  -->
<svg version="1.1" xmlns="http://www.w3.org/2000/svg" xmlns:xlink="http://www.w3.org/1999/xlink" x="0px" y="0px"
	 viewBox="0 0 1874.1 3170.8" style="enable-background:new 0 0 1874.1 3170.8;" xml:space="preserve">
<style type="text/css">
	.st0{fill:url(#SVGID_1_);}
	.st1{fill:#FF9F94;}
	.st2{fill:#FFAAB7;}
	.st3{fill:#897FFF;}
	.st4{fill:#FFA89B;}
	.st5{fill:#FFD3B1;}
	.st6{fill:#F0C6FF;}
	.st7{fill:#FFFFFF;}
	.st8{display:none;}
	.st9{display:inline;fill:#B9FFFE;}
	.st10{display:inline;fill:#98C6FF;}
	.st11{display:inline;fill:#3A2D22;}
	.st12{display:inline;fill:url(#SVGID_2_);}
	.st13{display:inline;fill:url(#SVGID_3_);}
	.st14{display:inline;fill:url(#SVGID_4_);}
	.st15{display:inline;fill:url(#SVGID_5_);}
	.st16{display:inline;fill:url(#SVGID_6_);}
	.st17{display:inline;fill:url(#SVGID_7_);}
	.st18{display:inline;}
	.st19{clip-path:url(#SVGID_10_);fill:url(#SVGID_11_);}
	.st20{clip-path:url(#SVGID_10_);fill:#3A2D22;}
	.st21{fill:#3A2D22;}
	.st22{display:inline;fill:url(#SVGID_12_);}
	.st23{display:inline;fill:#FF8428;}
	.st24{display:inline;fill:url(#SVGID_13_);}
	.st25{display:inline;fill:url(#SVGID_14_);}
	.st26{display:inline;fill:#FFFB92;}
	.st27{display:inline;fill:#E19D00;}
	.st28{display:inline;fill:url(#SVGID_15_);}
	.st29{display:inline;fill:url(#SVGID_16_);}
	.st30{display:inline;fill:url(#SVGID_17_);}
	.st31{display:inline;fill:url(#SVGID_18_);}
	.st32{display:inline;fill:url(#SVGID_19_);}
	.st33{display:inline;fill:url(#SVGID_20_);}
	.st34{clip-path:url(#SVGID_23_);fill:url(#SVGID_24_);}
	.st35{clip-path:url(#SVGID_23_);fill:#3A2D22;}
	.st36{display:inline;fill:url(#SVGID_25_);}
	.st37{display:inline;fill:url(#SVGID_26_);}
	.st38{display:inline;fill:url(#SVGID_27_);}
</style>
<g id="Layer_1">
	
		<linearGradient id="SVGID_1_" gradientUnits="userSpaceOnUse" x1="918.9" y1="8201.251" x2="918.9" y2="-709.7745" gradientTransform="matrix(1 0 0 -1 0 5633.6001)">
		<stop  offset="7.634041e-02" style="stop-color:#8200B9"/>
		<stop  offset="0.1661" style="stop-color:#7D05B8"/>
		<stop  offset="0.2681" style="stop-color:#7012B3"/>
		<stop  offset="0.376" style="stop-color:#5A29AD"/>
		<stop  offset="0.4882" style="stop-color:#3B49A3"/>
		<stop  offset="0.6024" style="stop-color:#137197"/>
		<stop  offset="0.6508" style="stop-color:#008591"/>
		<stop  offset="0.8794" style="stop-color:#8DB5DC"/>
	</linearGradient>
	<ellipse class="st0" cx="918.9" cy="1414.6" rx="1547.5" ry="2275.5"/>
	<g id="stars">
		<circle class="st1" cx="1511.5" cy="1049" r="3.9"/>
		<circle class="st2" cx="1372.8" cy="1192.3" r="3.9"/>
		<circle class="st3" cx="1349.6" cy="878.2" r="3.9"/>
		<ellipse class="st1" cx="1569.6" cy="857.6" rx="2" ry="2"/>
		<ellipse class="st4" cx="1650.1" cy="848.9" rx="2" ry="2"/>
		<circle class="st5" cx="1314.4" cy="668.6" r="3.9"/>
		<circle class="st3" cx="1659.4" cy="1075.2" r="3.9"/>
		<ellipse class="st6" cx="1560.5" cy="751.5" rx="2" ry="2"/>
		<circle class="st2" cx="1187.1" cy="614.7" r="3.9"/>
		<circle class="st4" cx="1526.4" cy="735.1" r="3.9"/>
		<circle class="st2" cx="1582.2" cy="533.4" r="3.9"/>
		<circle class="st2" cx="1722.1" cy="634.7" r="3.9"/>
		
			<ellipse transform="matrix(0.9995 -3.209673e-02 3.209673e-02 0.9995 -8.0795 50.0989)" class="st3" cx="1556.4" cy="276.7" rx="3.9" ry="3.9"/>
		
			<ellipse transform="matrix(0.9995 -3.209679e-02 3.209679e-02 0.9995 -7.315 45.3286)" class="st1" cx="1408.2" cy="250.5" rx="3.9" ry="3.9"/>
		
			<ellipse transform="matrix(0.9995 -3.209679e-02 3.209679e-02 0.9995 -7.4801 35.8407)" class="st5" cx="1112.6" cy="250.9" rx="3.9" ry="3.9"/>
		<ellipse class="st6" cx="1358.1" cy="633" rx="2" ry="2"/>
		<ellipse class="st2" cx="1444.8" cy="739.2" rx="2" ry="2"/>
		<ellipse class="st3" cx="1141.9" cy="731.4" rx="2" ry="2"/>
		<ellipse class="st4" cx="1096" cy="158.2" rx="2" ry="2"/>
		<ellipse class="st5" cx="1286.5" cy="78.9" rx="2" ry="2"/>
		<ellipse class="st6" cx="1228" cy="148" rx="2" ry="2"/>
		<ellipse class="st1" cx="1469.3" cy="240.8" rx="2" ry="2"/>
		<ellipse class="st4" cx="1394.6" cy="209.6" rx="2" ry="2"/>
		
			<ellipse transform="matrix(0.9992 -3.917167e-02 3.917167e-02 0.9992 -3.527 58.9935)" class="st4" cx="1503.7" cy="119.5" rx="3.9" ry="3.9"/>
		<ellipse class="st1" cx="1035.9" cy="298.5" rx="2" ry="2"/>
		<path class="st1" d="M976.1,247.5c1.1,0,2,0.9,2,2s-0.9,2-2,2s-2-0.9-2-2S975,247.5,976.1,247.5z"/>
		<circle class="st6" cx="930.4" cy="345.7" r="2"/>
		<ellipse class="st6" cx="1546.6" cy="539.5" rx="2" ry="2"/>
		<ellipse class="st2" cx="1521.7" cy="404.6" rx="2" ry="2"/>
		<polygon class="st7" points="1628.7,564.8 1631.3,569.9 1636.9,570.8 1632.8,574.8 1633.9,580.4 1628.8,577.8 1623.7,580.5 
			1624.7,574.8 1620.5,570.9 1626.2,570 		"/>
		<polygon class="st7" points="1666.9,326 1669.4,331.1 1675.2,331.9 1671.1,335.9 1672.1,341.6 1666.9,338.9 1661.9,341.6 
			1662.8,336 1658.7,332 1664.4,331.1 		"/>
		<polygon class="st7" points="1453.1,596.1 1455.7,601.2 1461.3,601.9 1457.3,606 1458.3,611.6 1453.2,609 1448.2,611.7 
			1449.1,606 1445,602 1450.7,601.2 		"/>
		<polygon class="st7" points="1110.5,921 1113.1,926.1 1118.8,927 1114.7,930.9 1115.7,936.6 1110.6,933.9 1105.6,936.6 
			1106.5,931 1102.4,927.1 1108,926.1 		"/>
		<ellipse class="st6" cx="1426.1" cy="338.2" rx="2" ry="2"/>
		<circle class="st2" cx="1030.5" cy="1227.7" r="3.2"/>
		<circle class="st2" cx="1252.9" cy="1100.7" r="3.2"/>
		<circle class="st4" cx="955.5" cy="977.8" r="1.6"/>
		<ellipse class="st1" cx="1019.9" cy="965.6" rx="1.6" ry="1.6"/>
		<circle class="st3" cx="1104.9" cy="898.8" r="3.2"/>
		<circle class="st2" cx="1156.9" cy="683.2" r="3.2"/>
		<circle class="st1" cx="1054.4" cy="807.6" r="3.2"/>
		<circle class="st3" cx="933.4" cy="796" r="3.2"/>
		<circle class="st3" cx="788.3" cy="947.5" r="3.2"/>
		<circle class="st3" cx="895.2" cy="1012.6" r="1.6"/>
		<circle class="st4" cx="1355.6" cy="1462.8" r="1.6"/>
		<circle class="st5" cx="1207.2" cy="1538.9" r="1.6"/>
		<circle class="st1" cx="1395" cy="1345.9" r="1.6"/>
		<circle class="st6" cx="1477" cy="1300.9" r="1.6"/>
		<circle class="st4" cx="1496.5" cy="1158.7" r="1.6"/>
		<polygon class="st7" points="1274.9,91.7 1270.6,95.4 1271.2,101.1 1266.3,98.2 1261.1,100.4 1262.5,94.9 1258.6,90.7 
			1264.2,90.2 1267.1,85.2 1269.3,90.5 		"/>
		<polygon class="st7" points="1352.9,276.1 1348.6,279.9 1349.2,285.6 1344.4,282.6 1339.2,285 1340.4,279.4 1336.6,275.2 
			1342.2,274.8 1345.1,269.7 1347.4,275 		"/>
		
			<ellipse transform="matrix(2.885945e-02 -0.9996 0.9996 2.885945e-02 -1316.3979 1918.5513)" class="st1" cx="329.2" cy="1636.8" rx="3.9" ry="3.9"/>
		<path class="st6" d="M172,1991.9c-1,0.5-2.2,0.3-2.7-0.7s-0.3-2.2,0.7-2.7s2.2-0.3,2.7,0.7S172.9,1991.4,172,1991.9z"/>
		
			<ellipse transform="matrix(2.885937e-02 -0.9996 0.9996 2.885937e-02 -1076.4858 1778.2754)" class="st2" cx="376.9" cy="1443.1" rx="3.9" ry="3.9"/>
		<ellipse class="st3" cx="738.5" cy="1604.7" rx="3.9" ry="3.9"/>
		<ellipse class="st1" cx="374.8" cy="1831.5" rx="2" ry="2"/>
		<ellipse class="st4" cx="309.6" cy="1879.5" rx="2" ry="2"/>
		<ellipse class="st5" cx="874.3" cy="1768.3" rx="3.9" ry="3.9"/>
		
			<ellipse transform="matrix(2.885942e-02 -0.9996 0.9996 2.885942e-02 -1505.3511 1827.7028)" class="st3" cx="187.9" cy="1688.6" rx="3.9" ry="3.9"/>
		<ellipse class="st5" cx="142" cy="1904.6" rx="2" ry="2"/>
		<ellipse class="st6" cx="436" cy="1918.6" rx="2" ry="2"/>
		<ellipse class="st2" cx="1011.4" cy="1751" rx="3.9" ry="3.9"/>
		<ellipse class="st4" cx="473.8" cy="1915.7" rx="3.9" ry="3.9"/>
		<ellipse class="st2" cx="710.6" cy="2019.8" rx="3.9" ry="3.9"/>
		
			<ellipse transform="matrix(0.9999 -1.565207e-02 1.565207e-02 0.9999 -32.8392 5.8121)" class="st2" cx="354.9" cy="2100.9" rx="3.9" ry="3.9"/>
		
			<ellipse transform="matrix(0.8645 -0.5026 0.5026 0.8645 -1003.3049 735.1987)" class="st3" cx="861.9" cy="2228.4" rx="3.9" ry="3.9"/>
		<ellipse class="st1" cx="1003.3" cy="2176.8" rx="3.9" ry="3.9"/>
		<ellipse class="st5" cx="1258.6" cy="2028" rx="3.9" ry="3.9"/>
		<ellipse class="st6" cx="854.4" cy="1821" rx="2" ry="2"/>
		<ellipse class="st2" cx="726.1" cy="1772.7" rx="2" ry="2"/>
		<circle class="st3" cx="991.8" cy="1627.3" r="2"/>
		<circle class="st4" cx="1319.6" cy="2099.8" r="2"/>
		<ellipse class="st5" cx="1194.5" cy="2264.1" rx="2" ry="2"/>
		<ellipse class="st6" cx="1210.5" cy="2174.8" rx="2" ry="2"/>
		<ellipse class="st1" cx="955.3" cy="2215.9" rx="2" ry="2"/>
		<ellipse class="st4" cx="1035.6" cy="2205.3" rx="2" ry="2"/>
		
			<ellipse transform="matrix(0.8634 -0.5045 0.5045 0.8634 -1044.8798 817.04)" class="st4" cx="986.4" cy="2338.1" rx="3.9" ry="3.9"/>
		<ellipse class="st1" cx="1301" cy="1948.4" rx="2" ry="2"/>
		<circle class="st1" cx="1377.2" cy="1960.7" r="2"/>
		<ellipse class="st6" cx="1368.4" cy="1854.5" rx="2" ry="2"/>
		<ellipse class="st6" cx="738.4" cy="1996.6" rx="2" ry="2"/>
		<ellipse class="st2" cx="827.6" cy="2100.7" rx="2" ry="2"/>
		<polygon class="st7" points="470.8,2114.3 466,2111.2 460.7,2113.3 462.3,2107.7 458.5,2103.4 464.2,2103.1 467.3,2098.3 
			469.3,2103.7 474.8,2105 470.5,2108.6 		"/>
		<polygon class="st7" points="741.6,2241.6 736.9,2238.4 731.5,2240.7 733,2235.1 729.3,2230.8 735,2230.5 738,2225.6 
			740.1,2230.9 745.6,2232.4 741.2,2235.9 		"/>
		<polygon class="st7" points="790.7,1900.7 785.9,1897.6 780.7,1899.8 782.1,1894.2 778.4,1889.8 784.2,1889.6 787.1,1884.7 
			789.2,1890 794.7,1891.4 790.3,1895 		"/>
		<polygon class="st7" points="923.7,1447.6 918.9,1444.5 913.5,1446.6 915.1,1441.1 911.4,1436.7 917.1,1436.4 920.1,1431.6 
			922.2,1437 927.6,1438.3 923.3,1442 		"/>
		<ellipse class="st6" cx="943.6" cy="2110.1" rx="2" ry="2"/>
		<ellipse class="st2" cx="838.7" cy="1142.4" rx="3.2" ry="3.2"/>
		<ellipse class="st2" cx="710.2" cy="1363.8" rx="3.2" ry="3.2"/>
		<ellipse class="st4" cx="1029.1" cy="1320.6" rx="1.6" ry="1.6"/>
		<ellipse class="st1" cx="979.5" cy="1363.5" rx="1.6" ry="1.6"/>
		<ellipse class="st3" cx="939.7" cy="1464.1" rx="3.2" ry="3.2"/>
		<ellipse class="st2" cx="1003" cy="1676.6" rx="3.2" ry="3.2"/>
		<ellipse class="st1" cx="1029.2" cy="1517.5" rx="3.2" ry="3.2"/>
		<ellipse class="st3" cx="1139.6" cy="1466.7" rx="3.2" ry="3.2"/>
		<ellipse class="st3" cx="1188.9" cy="1262.8" rx="3.2" ry="3.2"/>
		<ellipse class="st3" cx="1063.8" cy="1260.3" rx="1.6" ry="1.6"/>
		
			<ellipse transform="matrix(0.8591 -0.5118 0.5118 0.8591 -502.2482 380.3236)" class="st4" cx="439.6" cy="1102.3" rx="1.6" ry="1.6"/>
		<ellipse class="st5" cx="529.6" cy="962" rx="1.6" ry="1.6"/>
		<path class="st1" d="M463.4,1221.8c0.8-0.5,1.8-0.2,2.2,0.6c0.5,0.8,0.2,1.8-0.6,2.2c-0.8,0.5-1.8,0.2-2.2-0.6
			C462.4,1223.3,462.7,1222.3,463.4,1221.8z"/>
		
			<ellipse transform="matrix(0.8591 -0.5118 0.5118 0.8591 -608.4012 396.5544)" class="st6" cx="416" cy="1303.2" rx="1.6" ry="1.6"/>
		
			<ellipse transform="matrix(0.8586 -0.5126 0.5126 0.8586 -746.0753 364.0319)" class="st4" cx="286.9" cy="1534.6" rx="1.6" ry="1.6"/>
		<polygon class="st7" points="1198.2,2247.3 1200.1,2241.9 1196.7,2237.3 1202.4,2237.3 1205.7,2232.7 1207.4,2238.3 
			1212.8,2239.9 1208.2,2243.2 1208.2,2248.9 1203.6,2245.5 		"/>
		<polygon class="st7" points="1038.1,2126.9 1039.9,2121.5 1036.6,2116.9 1042.2,2117 1045.5,2112.4 1047.2,2117.8 1052.6,2119.5 
			1048,2122.8 1048.1,2128.6 1043.5,2125.1 		"/>
		<ellipse class="st1" cx="677.9" cy="145.4" rx="2" ry="2"/>
		<ellipse class="st4" cx="632.6" cy="78.2" rx="2" ry="2"/>
		<ellipse class="st5" cx="629.8" cy="459.3" rx="3.9" ry="3.9"/>
		<ellipse class="st6" cx="588.2" cy="203" rx="2" ry="2"/>
		<ellipse class="st2" cx="641.6" cy="597" rx="3.9" ry="3.9"/>
		
			<ellipse transform="matrix(0.9995 -3.209702e-02 3.209702e-02 0.9995 -7.4222 19.0516)" class="st4" cx="589.7" cy="240.7" rx="3.9" ry="3.9"/>
		<circle class="st2" cx="385.2" cy="285.5" r="3.9"/>
		<circle class="st2" cx="409.6" cy="114.5" r="3.9"/>
		<ellipse class="st3" cx="170.4" cy="428.4" rx="3.9" ry="3.9"/>
		
			<ellipse transform="matrix(0.8453 -0.5342 0.5342 0.8453 -271.8132 203.9194)" class="st1" cx="216.3" cy="571.4" rx="3.9" ry="3.9"/>
		<ellipse class="st5" cx="354.6" cy="832.7" rx="3.9" ry="3.9"/>
		<circle class="st6" cx="578" cy="437.3" r="2"/>
		<circle class="st2" cx="631.4" cy="311" r="2"/>
		<circle class="st4" cx="280.3" cy="890.7" r="2"/>
		<ellipse class="st5" cx="121.3" cy="759.1" rx="2" ry="2"/>
		<ellipse class="st6" cx="209.7" cy="778.6" rx="2" ry="2"/>
		<ellipse class="st1" cx="179.2" cy="521.9" rx="2" ry="2"/>
		<ellipse class="st4" cx="186.5" cy="602.6" rx="2" ry="2"/>
		
			<ellipse transform="matrix(0.8308 -0.5566 0.5566 0.8308 -295.6307 123.787)" class="st4" cx="55.8" cy="548.1" rx="3.9" ry="3.9"/>
		<ellipse class="st1" cx="432.3" cy="878.3" rx="2" ry="2"/>
		<circle class="st1" cx="417" cy="954" r="2"/>
		<ellipse class="st6" cx="523.5" cy="949.5" rx="2" ry="2"/>
		<circle class="st6" cx="407.3" cy="314.2" r="2"/>
		<circle class="st2" cx="299.6" cy="399.2" r="2"/>
		<polygon class="st7" points="391.3,229.6 394.7,225 392.8,219.7 398.3,221.4 402.7,217.9 402.8,223.6 407.5,226.8 402.1,228.6 
			400.6,234.2 397.1,229.6 		"/>
		<polygon class="st7" points="162.3,307.4 165.6,302.8 163.6,297.3 169.2,299.1 173.7,295.6 173.7,301.3 178.5,304.5 173.1,306.3 
			171.4,311.8 168,307.2 		"/>
		<polygon class="st7" points="500.9,370.4 504.2,365.8 502.3,360.4 507.7,362.1 512.3,358.6 512.3,364.3 517.1,367.5 511.6,369.3 
			510,374.8 506.6,370.2 		"/>
		<circle class="st6" cx="285.4" cy="514.6" r="2"/>
		<ellipse class="st2" cx="716.2" cy="591.7" rx="3.2" ry="3.2"/>
		<polygon class="st7" points="138,763.4 143.2,765.5 148,762.3 147.7,768 152.1,771.5 146.6,772.9 144.7,778.3 141.6,773.6 
			136,773.4 139.6,768.9 		"/>
		<polygon class="st7" points="264.8,608.4 270.1,610.4 274.8,607.2 274.5,612.9 279,616.4 273.5,617.9 271.6,623.2 268.5,618.4 
			262.7,618.3 266.3,613.8 		"/>
		<path class="st6" d="M1708.7,2207.4c-0.7-0.8-0.6-2.1,0.3-2.8c0.8-0.7,2.1-0.6,2.8,0.3c0.7,0.8,0.6,2.1-0.3,2.8
			S1709.4,2208.2,1708.7,2207.4z"/>
		<circle class="st1" cx="1490.4" cy="2342" r="2"/>
		<circle class="st4" cx="1558" cy="2297.5" r="2"/>
		<circle class="st5" cx="1640" cy="2149.1" r="2"/>
		<circle class="st6" cx="1550.8" cy="2429.7" r="2"/>
		
			<ellipse transform="matrix(0.9999 -1.335038e-02 1.335038e-02 0.9999 -32.7582 20.7092)" class="st4" cx="1534.8" cy="2464" rx="3.9" ry="3.9"/>
		
			<ellipse transform="matrix(0.9999 -1.335037e-02 1.335037e-02 0.9999 -32.1129 23.574)" class="st2" cx="1749.7" cy="2417.1" rx="3.9" ry="3.9"/>
		<circle class="st2" cx="1312.9" cy="2650.7" r="2"/>
		<polygon class="st7" points="1716.7,2528.1 1711.8,2531 1712.5,2525.3 1708.2,2521.5 1713.9,2520.4 1716,2515.2 1718.8,2520.2 
			1724.6,2520.6 1720.8,2524.8 1722,2530.4 		"/>
		<path class="st6" d="M1013.8,2683.5c1-0.5,2.2-0.2,2.7,0.8s0.2,2.2-0.8,2.7s-2.2,0.2-2.7-0.8
			C1012.5,2685.3,1012.8,2684.1,1013.8,2683.5z"/>
		
			<ellipse transform="matrix(0.9999 -1.567523e-02 1.567523e-02 0.9999 -41.3345 7.7888)" class="st2" cx="476.2" cy="2640.7" rx="3.9" ry="3.9"/>
		
			<ellipse transform="matrix(0.9999 -1.335037e-02 1.335037e-02 0.9999 -34.2291 11.3641)" class="st2" cx="834.1" cy="2569.5" rx="3.9" ry="3.9"/>
		
			<ellipse transform="matrix(0.8822 -0.4709 0.4709 0.8822 -1104.0316 441.8032)" class="st3" cx="330.9" cy="2427.2" rx="3.9" ry="3.9"/>
		
			<ellipse transform="matrix(0.8822 -0.4709 0.4709 0.8822 -1143.1903 380.2953)" class="st1" cx="188.4" cy="2474.7" rx="3.9" ry="3.9"/>
		<ellipse class="st1" cx="237.5" cy="2437.1" rx="2" ry="2"/>
		<ellipse class="st4" cx="156.8" cy="2445.3" rx="2" ry="2"/>
		
			<ellipse transform="matrix(0.9141 -0.4055 0.4055 0.9141 -920.3546 283.7393)" class="st4" cx="209.5" cy="2314.2" rx="3.9" ry="3.9"/>
		<ellipse class="st6" cx="447.8" cy="2662.7" rx="2" ry="2"/>
		<ellipse class="st2" cx="361.5" cy="2556" rx="2" ry="2"/>
		<polygon class="st7" points="718.6,2552.7 723.3,2556 728.6,2554.1 727,2559.5 730.6,2563.9 724.8,2564.1 721.6,2568.8 
			719.8,2563.5 714.3,2562 718.8,2558.4 		"/>
		<polygon class="st7" points="451.6,2417.7 456.2,2420.9 461.7,2418.9 460,2424.4 463.6,2428.9 457.8,2429 454.7,2433.8 
			452.7,2428.4 447.3,2426.8 451.8,2423.4 		"/>
		<ellipse class="st6" cx="245.9" cy="2543.5" rx="2" ry="2"/>
		<polygon class="st7" points="151.9,2523.7 150,2529.1 153.1,2533.8 147.5,2533.6 144.1,2538.1 142.4,2532.7 137.1,2530.7 
			141.9,2527.7 141.9,2521.8 146.4,2525.4 		"/>
		
			<ellipse transform="matrix(0.5369 -0.8436 0.8436 0.5369 -1853.7924 1727.9391)" class="st2" cx="647.1" cy="2552.6" rx="3.9" ry="3.9"/>
		
			<ellipse transform="matrix(8.918757e-02 -0.996 0.996 8.918757e-02 -1496.4817 2893.8882)" class="st2" cx="834.1" cy="2265.2" rx="3.2" ry="3.2"/>
		
			<ellipse transform="matrix(0.2895 -0.9572 0.9572 0.2895 -1840.2971 2045.4895)" class="st4" cx="457.7" cy="2262.4" rx="1.6" ry="1.6"/>
		
			<ellipse transform="matrix(0.2897 -0.9571 0.9571 0.2897 -1835.9619 2192.1694)" class="st1" cx="559" cy="2333.1" rx="1.6" ry="1.6"/>
		
			<ellipse transform="matrix(0.2897 -0.9571 0.9571 0.2897 -1908.8444 2276.3904)" class="st6" cx="579.3" cy="2424.3" rx="1.6" ry="1.6"/>
		<circle class="st5" cx="1742.8" cy="1479.4" r="3.9"/>
		<circle class="st2" cx="1615.5" cy="1425.6" r="3.9"/>
		<circle class="st3" cx="1570.3" cy="1542.2" r="2"/>
		<polygon class="st7" points="1538.9,1731.9 1541.4,1737 1547.2,1737.8 1543.1,1741.8 1544.1,1747.4 1539,1744.8 1534,1747.5 
			1534.8,1741.8 1530.8,1737.9 1536.4,1737 		"/>
		<circle class="st1" cx="1448.3" cy="1776.5" r="1.6"/>
		<circle class="st3" cx="1533.3" cy="1709.6" r="3.2"/>
		<circle class="st2" cx="1585.3" cy="1494" r="3.2"/>
		<circle class="st1" cx="1482.8" cy="1618.4" r="3.2"/>
		<circle class="st3" cx="1361.8" cy="1606.8" r="3.2"/>
	</g>
</g>
<g id="Layer_8" class="st8">
	<path class="st9" d="M1097.5,889l-29.4-13.2c-21.5-9.7-31.1-34.9-21.4-56.4L1060,790c9.7-21.5,34.9-31.1,56.4-21.4l29.4,13.2
		c21.5,9.7,31.1,34.9,21.4,56.4l-13.2,29.4C1144.2,889.1,1119,898.7,1097.5,889z"/>
	<path class="st9" d="M951.3,1198.1l-17.9-8.1c-13.1-5.9-18.9-21.3-13-34.3l155.3-344.8c5.9-13.1,21.3-18.9,34.3-13l17.9,8.1
		c13.1,5.9,18.9,21.3,13,34.3l-155.3,344.8C979.8,1198.2,964.4,1204,951.3,1198.1z"/>
	<path class="st10" d="M1131.7,840c6.2-13.7,0.1-29.8-13.6-36h0c-13.7-6.2-29.8-0.1-36,13.6v0c0,0.1-0.1,0.2-0.1,0.2l0,0l-15.1,33.6
		c-0.1,0.1-0.1,0.2-0.2,0.3l-51.8,115c-1.3,2.8-0.7,5.8,1.2,6.7l0.1,0c1.9,0.9,4.5-0.7,5.8-3.5l34.9-77.5c1.3-2.8,3.9-4.4,5.8-3.5
		l0.1,0c1.9,0.9,2.5,3.9,1.2,6.7l-19.4,43c-1.3,2.8-0.7,5.8,1.2,6.7l0.1,0c1.9,0.9,4.5-0.7,5.8-3.5l8.5-18.8
		c1.3-2.8,3.9-4.4,5.8-3.5c1.9,0.9,4.5-0.7,5.8-3.5l6.3-14c1.3-2.8,3.9-4.4,5.8-3.5l0.1,0c1.9,0.9,2.5,3.9,1.2,6.7l-7.2,16
		c-1.3,2.8-0.7,5.8,1.2,6.7l0.1,0c1.9,0.9,2.5,3.9,1.2,6.7l-7.6,16.8c-1.3,2.8-0.7,5.8,1.2,6.7l0.1,0c1.9,0.9,4.5-0.7,5.8-3.5
		l29.2-64.9l0,0l22.3-49.6l0,0C1131.7,840.1,1131.7,840,1131.7,840L1131.7,840z"/>
</g>
<g id="Layer_9" class="st8">
	<path class="st11" d="M1060.7,686.3l36.3,16.3c2.3,1,5.3-0.2,6.6-2.7l49.5-92.4c2.1-3.8-3-7.3-6.3-4.4l-86.3,75.4
		C1057.7,681,1057.8,685,1060.7,686.3z"/>
	<path class="st11" d="M1246.4,770l-36.3-16.3c-2.3-1-3.4-4.1-2.4-6.7l36.4-98.3c1.5-4.1,7.4-2.6,7.5,1.9l0.7,114.6
		C1252.3,768.7,1249.3,771.3,1246.4,770z"/>
	
		<linearGradient id="SVGID_2_" gradientUnits="userSpaceOnUse" x1="-539.7971" y1="510.7606" x2="431.2042" y2="729.9102" gradientTransform="matrix(0.9118 0.4107 -0.4107 0.9118 1417.6967 -11.3457)">
		<stop  offset="0.1666" style="stop-color:#3F648C"/>
		<stop  offset="0.4289" style="stop-color:#41668C"/>
		<stop  offset="0.5792" style="stop-color:#4A6E8D"/>
		<stop  offset="0.7011" style="stop-color:#587B8F"/>
		<stop  offset="0.8078" style="stop-color:#6B8D91"/>
		<stop  offset="0.904" style="stop-color:#85A594"/>
		<stop  offset="0.9924" style="stop-color:#A4C298"/>
		<stop  offset="1" style="stop-color:#A7C598"/>
	</linearGradient>
	<path class="st12" d="M1193,640.6L1193,640.6c-85-38.3,5.3-76.4,20.4-77.1l4.6-0.2c2.6-0.1,6.1,0.8,8.8,2.1l0,0
		c2.7,1.2,5.8,3.2,7.4,5.2l2.9,3.6C1246.7,586,1277.9,678.8,1193,640.6z"/>
	
		<linearGradient id="SVGID_3_" gradientUnits="userSpaceOnUse" x1="-216.4491" y1="729.8561" x2="413.3575" y2="729.8561" gradientTransform="matrix(0.9118 0.4107 -0.4107 0.9118 1417.6967 -11.3457)">
		<stop  offset="0.1666" style="stop-color:#6A6BFF"/>
		<stop  offset="0.2353" style="stop-color:#6E72EB"/>
		<stop  offset="0.3749" style="stop-color:#7985B9"/>
		<stop  offset="0.4571" style="stop-color:#809198"/>
		<stop  offset="0.6024" style="stop-color:#A7C598"/>
	</linearGradient>
	<path class="st13" d="M1174.9,766.9l-64.6-29.1c-15.6-7-20.5-26.7-11.5-43.4l47.6-87.2c6.7-12.3,22.3-17.4,35-11.6l52.7,23.7
		c12.7,5.7,19.3,20.7,14.5,34l-33.7,93.4C1208.5,764.6,1190.5,773.9,1174.9,766.9z"/>
	<path class="st11" d="M1171.2,802l-84.8-38.2c-10-4.5-14.4-16.2-9.9-26.2l8.4-18.6c4.5-10,16.2-14.4,26.2-9.9l84.8,38.2
		c10,4.5,14.4,16.2,9.9,26.2l-8.4,18.6C1193,802.1,1181.2,806.5,1171.2,802z"/>
</g>
<g id="Layer_6" class="st8">
	
		<linearGradient id="SVGID_4_" gradientUnits="userSpaceOnUse" x1="29.1661" y1="1972.7469" x2="558.645" y2="1972.7469" gradientTransform="matrix(0.9118 0.4107 -0.4107 0.9118 1417.6967 -11.3457)">
		<stop  offset="0.1666" style="stop-color:#6A6BFF"/>
		<stop  offset="0.2353" style="stop-color:#6E72EB"/>
		<stop  offset="0.3749" style="stop-color:#7985B9"/>
		<stop  offset="0.4571" style="stop-color:#809198"/>
		<stop  offset="0.6024" style="stop-color:#A7C598"/>
	</linearGradient>
	<path class="st14" d="M838.7,2031.1l-54-24.3c-13-5.9-12.1-33.5,1.4-60.6l71-142.1c10.1-20.1,26.5-32,37.2-27.2l44,19.8
		c10.6,4.8,12.7,25,4.2,45.9l-59.4,147.3C871.8,2018,851.7,2037,838.7,2031.1z"/>
	
		<linearGradient id="SVGID_5_" gradientUnits="userSpaceOnUse" x1="168.13" y1="1972.7469" x2="697.6089" y2="1972.7469" gradientTransform="matrix(0.9118 0.4107 -0.4107 0.9118 1417.6967 -11.3457)">
		<stop  offset="0.1666" style="stop-color:#6A6BFF"/>
		<stop  offset="0.2353" style="stop-color:#6E72EB"/>
		<stop  offset="0.3749" style="stop-color:#7985B9"/>
		<stop  offset="0.4571" style="stop-color:#809198"/>
		<stop  offset="0.6024" style="stop-color:#A7C598"/>
	</linearGradient>
	<path class="st15" d="M965.4,2088.2l-54-24.3c-13-5.9-12.1-33.5,1.4-60.6l71-142.1c10.1-20.1,26.5-32,37.2-27.2l44,19.8
		c10.6,4.8,12.7,25,4.2,45.9l-59.4,147.3C998.5,2075.1,978.4,2094,965.4,2088.2z"/>
	
		<linearGradient id="SVGID_6_" gradientUnits="userSpaceOnUse" x1="287.6303" y1="2144.7629" x2="287.6303" y2="1881.6714" gradientTransform="matrix(0.9118 0.4107 -0.4107 0.9118 1417.6967 -11.3457)">
		<stop  offset="0.1666" style="stop-color:#3E3124"/>
		<stop  offset="0.2082" style="stop-color:#524214"/>
		<stop  offset="0.2507" style="stop-color:#6A5800"/>
		<stop  offset="0.2583" style="stop-color:#615006"/>
		<stop  offset="0.2785" style="stop-color:#504013"/>
		<stop  offset="0.3032" style="stop-color:#43351B"/>
		<stop  offset="0.3363" style="stop-color:#3C2F21"/>
		<stop  offset="0.4144" style="stop-color:#3A2D22"/>
	</linearGradient>
	<path class="st16" d="M838.5,2046.8l-54-24.3c-13-5.9-11-36.1,4-66.3l78.4-158.5c11.1-22.4,28.4-36.1,39-31.3l44,19.8
		c10.6,4.8,11.8,26.8,2.4,50l-66.8,163.7C872.8,2031.1,851.5,2052.7,838.5,2046.8z"/>
	
		<linearGradient id="SVGID_7_" gradientUnits="userSpaceOnUse" x1="413.9612" y1="2148.8262" x2="413.9612" y2="1885.7347" gradientTransform="matrix(0.9118 0.4107 -0.4107 0.9118 1417.6967 -11.3457)">
		<stop  offset="0.1666" style="stop-color:#3E3124"/>
		<stop  offset="0.2082" style="stop-color:#524214"/>
		<stop  offset="0.2507" style="stop-color:#6A5800"/>
		<stop  offset="0.2583" style="stop-color:#615006"/>
		<stop  offset="0.2785" style="stop-color:#504013"/>
		<stop  offset="0.3032" style="stop-color:#43351B"/>
		<stop  offset="0.3363" style="stop-color:#3C2F21"/>
		<stop  offset="0.4144" style="stop-color:#3A2D22"/>
	</linearGradient>
	<path class="st17" d="M953.7,2098.7l-54-24.3c-13-5.9-11-36.1,4-66.3l78.4-158.5c11.1-22.4,28.4-36.1,39-31.3l44,19.8
		c10.6,4.8,11.8,26.8,2.4,50l-66.8,163.7C988,2083,966.7,2104.6,953.7,2098.7z"/>
	<path class="st11" d="M1171.2,1503.2l-84.8-38.2c-10-4.5-14.4-16.2-9.9-26.2l8.4-18.6c4.5-10,16.2-14.4,26.2-9.9l84.8,38.2
		c10,4.5,14.4,16.2,9.9,26.2l-8.4,18.6C1193,1503.2,1181.2,1507.7,1171.2,1503.2z"/>
	<g class="st18">
		<defs>
			<path id="SVGID_8_" d="M1054.5,1815.6l136.4-322.3c4.9-11.6-0.3-25-11.7-30.1l-68.2-30.7c-11.3-5.1-24.9-0.1-30.3,11.2
				l-151.1,315.7c-7,14.7-2.2,31.5,10.9,37.4c-13.1-5.9-29.5,1.5-36.7,16.7l-217.7,455.1c-10,20.9-5.5,43.7,10,50.7l93.8,42.3
				c15.6,7,35.6-4.8,44.6-26.1l196.6-464.6c6.5-15.5,1.2-32.7-11.9-38.5h0C1032.4,1838.2,1048.2,1830.7,1054.5,1815.6z"/>
		</defs>
		
			<linearGradient id="SVGID_9_" gradientUnits="userSpaceOnUse" x1="81.9276" y1="1931.8357" x2="711.7302" y2="1931.8357" gradientTransform="matrix(0.9118 0.4107 -0.4107 0.9118 1417.6967 -11.3457)">
			<stop  offset="0.1666" style="stop-color:#6A6BFF"/>
			<stop  offset="0.2261" style="stop-color:#6E72EB"/>
			<stop  offset="0.3469" style="stop-color:#7985B9"/>
			<stop  offset="0.4181" style="stop-color:#809198"/>
			<stop  offset="0.6703" style="stop-color:#A7C598"/>
		</linearGradient>
		<use xlink:href="#SVGID_8_"  style="overflow:visible;fill:url(#SVGID_9_);"/>
		<clipPath id="SVGID_10_">
			<use xlink:href="#SVGID_8_"  style="overflow:visible;"/>
		</clipPath>
		
			<linearGradient id="SVGID_11_" gradientUnits="userSpaceOnUse" x1="256.0137" y1="2216.9434" x2="445.5768" y2="2216.9434" gradientTransform="matrix(0.9118 0.4107 -0.4107 0.9118 1417.6967 -11.3457)">
			<stop  offset="0.1666" style="stop-color:#3F648C"/>
			<stop  offset="0.4289" style="stop-color:#41668C"/>
			<stop  offset="0.5792" style="stop-color:#4A6E8D"/>
			<stop  offset="0.7011" style="stop-color:#587B8F"/>
			<stop  offset="0.8078" style="stop-color:#6B8D91"/>
			<stop  offset="0.904" style="stop-color:#85A594"/>
			<stop  offset="0.9924" style="stop-color:#A4C298"/>
			<stop  offset="1" style="stop-color:#A7C598"/>
		</linearGradient>
		<path class="st19" d="M817.4,2394l-163.8-73.8c-11.1-5,38.9-86.5,86-148.1L910,1948.8c0.5-0.7,1.6-0.9,2.4-0.6l12.2,5.5
			c0.8,0.4,1.4,1.3,1.2,2.2l-54.3,275.6C856.4,2307.6,828.6,2399.1,817.4,2394z"/>
		<path class="st20" d="M652.8,2759.6L489,2685.8c-11.1-5,2.2-44.1,26.7-82.4l258.1-403.5c2-3.1,5.9-4.6,8.8-3.3l42,18.9
			c2.9,1.3,4.4,5.1,3.3,8.7l-131.1,460.7C684.3,2728.7,663.9,2764.6,652.8,2759.6z"/>
	</g>
	<path class="st11" d="M1020.8,1833.9l-82.4-37.1c-19.9-9-32.9-19.2-29.3-22.8l19.1-18.7c2.7-2.7,18,1.2,34.2,8.5l67.2,30.3
		c16.2,7.3,29.2,16.2,29,20l-1.4,26.7C1057,1845.8,1040.7,1842.9,1020.8,1833.9z"/>
	<g class="st18">
		<path class="st21" d="M852.3,2475.2l-71.3-32.1c-6.5-2.9-9.8-9.7-7.3-15.2l73.1-162.3c5-11,24.5-5.6,24.3,6.8l-1.8,194.5
			C869.2,2474.6,860.5,2478.9,852.3,2475.2z"/>
		<path class="st21" d="M730.5,2213.1l-73.1,162.3c-2.5,5.5-9.7,7.5-16.2,4.6l-71.3-32.1c-8.2-3.7-10.8-13.1-5-18.3l144.5-130.2
			C718.4,2191.1,735.4,2202.1,730.5,2213.1z"/>
	</g>
	
		<radialGradient id="SVGID_12_" cx="290.9691" cy="2246.4641" r="497.5306" gradientTransform="matrix(0.6399 0.2883 -0.1907 0.4232 928.8724 1430.7238)" gradientUnits="userSpaceOnUse">
		<stop  offset="0" style="stop-color:#FFFB92"/>
		<stop  offset="2.081001e-02" style="stop-color:#F7EF8A"/>
		<stop  offset="0.1255" style="stop-color:#D2B866"/>
		<stop  offset="0.231" style="stop-color:#B28947"/>
		<stop  offset="0.335" style="stop-color:#98622D"/>
		<stop  offset="0.4374" style="stop-color:#844419"/>
		<stop  offset="0.5376" style="stop-color:#762E0B"/>
		<stop  offset="0.6346" style="stop-color:#6D2103"/>
		<stop  offset="0.7249" style="stop-color:#6A1D00"/>
	</radialGradient>
	<path class="st22" d="M654.5,2620.9l-62.9-28.3c-69.6-31.4-100.7-113.3-69.3-182.9l13.7-30.5c31.4-69.6,113.3-100.7,182.9-69.3
		l62.9,28.3c69.6,31.4,100.7,113.3,69.3,182.9l-13.7,30.5C806.1,2621.3,724.2,2652.3,654.5,2620.9z"/>
	<path class="st23" d="M652.9,2639.7l-74.2-33.4c-57.4-25.9-83-93.3-57.1-150.7l16.3-36.2c25.9-57.4,93.3-83,150.7-57.1l74.2,33.4
		c57.4,25.9,83,93.3,57.1,150.7l-16.3,36.2C777.8,2640,710.3,2665.5,652.9,2639.7z"/>
	
		<linearGradient id="SVGID_13_" gradientUnits="userSpaceOnUse" x1="350.7958" y1="2244.1487" x2="350.7958" y2="1849.8503" gradientTransform="matrix(0.9118 0.4107 -0.4107 0.9118 1417.6967 -11.3457)">
		<stop  offset="0.1666" style="stop-color:#3E3124"/>
		<stop  offset="0.2082" style="stop-color:#524214"/>
		<stop  offset="0.2507" style="stop-color:#6A5800"/>
		<stop  offset="0.2583" style="stop-color:#615006"/>
		<stop  offset="0.2785" style="stop-color:#504013"/>
		<stop  offset="0.3032" style="stop-color:#43351B"/>
		<stop  offset="0.3363" style="stop-color:#3C2F21"/>
		<stop  offset="0.4144" style="stop-color:#3A2D22"/>
	</linearGradient>
	<path class="st24" d="M881.3,2119.7l-64.6-29.1c-15.6-7-13.1-43.2,4.8-79.4l93.7-189.6c13.3-26.8,34-43.2,46.7-37.5l52.7,23.7
		c12.7,5.7,14.2,32.1,2.8,59.8l-79.8,195.8C922.4,2100.9,896.9,2126.7,881.3,2119.7z"/>
	
		<linearGradient id="SVGID_14_" gradientUnits="userSpaceOnUse" x1="98.648" y1="1972.7469" x2="628.127" y2="1972.7469" gradientTransform="matrix(0.9118 0.4107 -0.4107 0.9118 1417.6967 -11.3457)">
		<stop  offset="0.1666" style="stop-color:#6A6BFF"/>
		<stop  offset="0.2353" style="stop-color:#6E72EB"/>
		<stop  offset="0.3749" style="stop-color:#7985B9"/>
		<stop  offset="0.4571" style="stop-color:#809198"/>
		<stop  offset="0.6024" style="stop-color:#A7C598"/>
	</linearGradient>
	<path class="st25" d="M896.1,2072.8l-54-24.3c-13-5.9-11-36.1,4-66.3l78.4-158.5c11.1-22.4,28.4-36.1,39-31.3l44,19.8
		c10.6,4.8,11.8,26.8,2.4,50l-66.8,163.7C930.4,2057,909.1,2078.6,896.1,2072.8z"/>
	<path class="st26" d="M579.6,2715.9l-9.4-4.2c-80-36-115.6-130.1-79.6-210.1l4.2-9.4c36-80,130.1-115.6,210.1-79.6l9.4,4.2
		c80,36,115.6,130.1,79.6,210.1l-4.2,9.4C753.6,2716.3,659.6,2752,579.6,2715.9z"/>
	<path class="st26" d="M-752.9,5668.5l-5.4-2.4c-48.8-22-70.5-79.3-48.5-128.1l1352-3001.4c22-48.8,79.3-70.5,128.1-48.5l5.4,2.4
		c48.8,22,70.5,79.3,48.5,128.1L-624.8,5620C-646.7,5668.7-704.1,5690.5-752.9,5668.5z"/>
	<path class="st27" d="M711.5,2595.5c17.2-38.2,0.2-83.2-38-100.4h0c-38.2-17.2-83.2-0.2-100.4,38l0,0c-0.1,0.2-0.2,0.5-0.3,0.7l0,0
		l-42.2,93.8c-0.2,0.3-0.3,0.6-0.5,0.9l-144.6,321c-3.5,7.9-2,16.2,3.4,18.7l0.3,0.1c5.4,2.4,12.7-2,16.2-9.8l97.5-216.4
		c3.5-7.9,10.8-12.3,16.2-9.8l0.2,0.1c5.4,2.4,6.9,10.8,3.4,18.7l-54.1,120.1c-3.5,7.9-2,16.2,3.4,18.7l0.3,0.1
		c5.4,2.4,12.7-2,16.2-9.8l23.7-52.6c3.5-7.9,10.8-12.3,16.2-9.8c5.4,2.4,12.7-2,16.2-9.8l17.6-39c3.5-7.9,10.8-12.3,16.2-9.8
		l0.2,0.1c5.4,2.4,6.9,10.8,3.4,18.7l-20.2,44.8c-3.5,7.9-2,16.2,3.4,18.7l0.2,0.1c5.4,2.4,6.9,10.8,3.4,18.7l-21.1,46.8
		c-3.5,7.9-2,16.2,3.4,18.7l0.3,0.1c5.4,2.4,12.7-2,16.2-9.8l81.5-181l0,0l62.4-138.5l0,0C711.2,2595.9,711.4,2595.7,711.5,2595.5
		L711.5,2595.5z"/>
</g>
<g id="Layer_5" class="st8">
	<linearGradient id="SVGID_15_" gradientUnits="userSpaceOnUse" x1="-3641.1797" y1="-218.6889" x2="-2886.7563" y2="-218.6889">
		<stop  offset="0.1666" style="stop-color:#6A6BFF"/>
		<stop  offset="0.2353" style="stop-color:#6E72EB"/>
		<stop  offset="0.3749" style="stop-color:#7985B9"/>
		<stop  offset="0.4571" style="stop-color:#809198"/>
		<stop  offset="0.6024" style="stop-color:#A7C598"/>
	</linearGradient>
	<path class="st28" d="M-3239.7-37.3h-84.4c-20.3,0-35.4-36.4-33.7-79.5l9.1-226.1c1.3-32,15.7-57.1,32.3-57.1h68.8
		c16.6,0,31.1,25.1,32.3,57.1l9.1,226.1C-3204.3-73.7-3219.4-37.3-3239.7-37.3z"/>
	<linearGradient id="SVGID_16_" gradientUnits="userSpaceOnUse" x1="-3443.1782" y1="-218.6889" x2="-2688.7546" y2="-218.6889">
		<stop  offset="0.1666" style="stop-color:#6A6BFF"/>
		<stop  offset="0.2353" style="stop-color:#6E72EB"/>
		<stop  offset="0.3749" style="stop-color:#7985B9"/>
		<stop  offset="0.4571" style="stop-color:#809198"/>
		<stop  offset="0.6024" style="stop-color:#A7C598"/>
	</linearGradient>
	<path class="st29" d="M-3041.7-37.3h-84.4c-20.3,0-35.4-36.4-33.7-79.5l9.1-226.1c1.3-32,15.7-57.1,32.3-57.1h68.8
		c16.6,0,31.1,25.1,32.3,57.1l9.1,226.1C-3006.3-73.7-3021.4-37.3-3041.7-37.3z"/>
	<linearGradient id="SVGID_17_" gradientUnits="userSpaceOnUse" x1="-3272.9092" y1="26.4065" x2="-3272.9092" y2="-348.4572">
		<stop  offset="0.1666" style="stop-color:#3E3124"/>
		<stop  offset="0.2082" style="stop-color:#524214"/>
		<stop  offset="0.2507" style="stop-color:#6A5800"/>
		<stop  offset="0.2583" style="stop-color:#615006"/>
		<stop  offset="0.2785" style="stop-color:#504013"/>
		<stop  offset="0.3032" style="stop-color:#43351B"/>
		<stop  offset="0.3363" style="stop-color:#3C2F21"/>
		<stop  offset="0.4144" style="stop-color:#3A2D22"/>
	</linearGradient>
	<path class="st30" d="M-3230.7-16.8h-84.4c-20.3,0-35.4-40.5-33.7-88.5l9.1-251.7c1.3-35.6,15.7-63.6,32.3-63.6h68.8
		c16.6,0,31.1,27.9,32.3,63.6l9.1,251.7C-3195.3-57.3-3210.4-16.8-3230.7-16.8z"/>
	<linearGradient id="SVGID_18_" gradientUnits="userSpaceOnUse" x1="-3092.9077" y1="32.1961" x2="-3092.9077" y2="-342.6677">
		<stop  offset="0.1666" style="stop-color:#3E3124"/>
		<stop  offset="0.2082" style="stop-color:#524214"/>
		<stop  offset="0.2507" style="stop-color:#6A5800"/>
		<stop  offset="0.2583" style="stop-color:#615006"/>
		<stop  offset="0.2785" style="stop-color:#504013"/>
		<stop  offset="0.3032" style="stop-color:#43351B"/>
		<stop  offset="0.3363" style="stop-color:#3C2F21"/>
		<stop  offset="0.4144" style="stop-color:#3A2D22"/>
	</linearGradient>
	<path class="st31" d="M-3050.7-16.8h-84.4c-20.3,0-35.4-40.5-33.7-88.5l9.1-251.7c1.3-35.6,15.7-63.6,32.3-63.6h68.8
		c16.6,0,31.1,27.9,32.3,63.6l9.1,251.7C-3015.3-57.3-3030.4-16.8-3050.7-16.8z"/>
	<path class="st11" d="M-3328-1003.4h56.7c3.6,0,6.7-3.3,7-7.3l10.3-149c0.4-6.2-8.1-7.7-10.8-1.9l-68,148.4
		C-3335-1008.5-3332.5-1003.4-3328-1003.4z"/>
	<path class="st11" d="M-3037.8-1003.4l-56.7,0c-3.6,0-6.7-3.3-7-7.3l-10.3-149c-0.4-6.2,8.1-7.7,10.8-1.9l68,148.4
		C-3030.8-1008.5-3033.3-1003.4-3037.8-1003.4z"/>
	<linearGradient id="SVGID_19_" gradientUnits="userSpaceOnUse" x1="-4041.572" y1="-1390.9603" x2="-2658.0493" y2="-1078.707">
		<stop  offset="0.1666" style="stop-color:#3F648C"/>
		<stop  offset="0.4289" style="stop-color:#41668C"/>
		<stop  offset="0.5792" style="stop-color:#4A6E8D"/>
		<stop  offset="0.7011" style="stop-color:#587B8F"/>
		<stop  offset="0.8078" style="stop-color:#6B8D91"/>
		<stop  offset="0.904" style="stop-color:#85A594"/>
		<stop  offset="0.9924" style="stop-color:#A4C298"/>
		<stop  offset="1" style="stop-color:#A7C598"/>
	</linearGradient>
	<path class="st32" d="M-3182.9-1140.3L-3182.9-1140.3c-132.8,0-37.8-102.3-18.5-112.1l5.9-3c3.3-1.7,8.4-2.5,12.7-2.5l0,0
		c4.3,0,9.4,0.8,12.7,2.5l5.9,3C-3145.1-1242.6-3050.1-1140.3-3182.9-1140.3z"/>
	<linearGradient id="SVGID_20_" gradientUnits="userSpaceOnUse" x1="-3580.8525" y1="-1078.7839" x2="-2683.478" y2="-1078.7839">
		<stop  offset="0.1666" style="stop-color:#6A6BFF"/>
		<stop  offset="0.2353" style="stop-color:#6E72EB"/>
		<stop  offset="0.3749" style="stop-color:#7985B9"/>
		<stop  offset="0.4571" style="stop-color:#809198"/>
		<stop  offset="0.6024" style="stop-color:#A7C598"/>
	</linearGradient>
	<path class="st33" d="M-3132.5-965.6h-100.9c-24.3,0-42.3-22.7-40.3-49.6l10.9-141.1c1.5-20,18.8-35.6,38.7-35.6h82.3
		c19.9,0,37.2,15.6,38.7,35.6l10.9,141.1C-3090.1-988.3-3108.1-965.6-3132.5-965.6z"/>
	<path class="st11" d="M-3108.2-917.8h-149.4c-11,0-19.8-8.9-19.8-19.8v-45.9c0-11,8.9-19.8,19.8-19.8h149.4
		c11,0,19.8,8.9,19.8,19.8v45.9C-3088.4-926.7-3097.3-917.8-3108.2-917.8z"/>
	<g class="st18">
		<defs>
			<path id="SVGID_21_" d="M-3085.4-443.6l-11.5-498.6c-0.4-17.9-15.1-32.3-32.8-32.3h-106.5c-17.7,0-32.4,14.4-32.8,32.3
				l-11.5,498.6c-0.5,23.2,15.6,42.3,36,42.3c-20.4,0-37.4,19.2-38,43.1l-16.5,718.7c-0.8,32.9,18.4,60,42.7,60h146.6
				c24.3,0,43.5-27,42.7-60l-16.5-718.7c-0.6-23.9-17.5-43.1-38-43.1h0C-3101-401.3-3084.9-420.3-3085.4-443.6z"/>
		</defs>
		<linearGradient id="SVGID_22_" gradientUnits="userSpaceOnUse" x1="-3566.0029" y1="-276.981" x2="-2668.6343" y2="-276.981">
			<stop  offset="0.1666" style="stop-color:#6A6BFF"/>
			<stop  offset="0.2261" style="stop-color:#6E72EB"/>
			<stop  offset="0.3469" style="stop-color:#7985B9"/>
			<stop  offset="0.4181" style="stop-color:#809198"/>
			<stop  offset="0.6703" style="stop-color:#A7C598"/>
		</linearGradient>
		<use xlink:href="#SVGID_21_"  style="overflow:visible;fill:url(#SVGID_22_);"/>
		<clipPath id="SVGID_23_">
			<use xlink:href="#SVGID_21_"  style="overflow:visible;"/>
		</clipPath>
		<linearGradient id="SVGID_24_" gradientUnits="userSpaceOnUse" x1="-3317.9578" y1="129.2522" x2="-3047.8606" y2="129.2522">
			<stop  offset="0.1666" style="stop-color:#3F648C"/>
			<stop  offset="0.4289" style="stop-color:#41668C"/>
			<stop  offset="0.5792" style="stop-color:#4A6E8D"/>
			<stop  offset="0.7011" style="stop-color:#587B8F"/>
			<stop  offset="0.8078" style="stop-color:#6B8D91"/>
			<stop  offset="0.904" style="stop-color:#85A594"/>
			<stop  offset="0.9924" style="stop-color:#A4C298"/>
			<stop  offset="1" style="stop-color:#A7C598"/>
		</linearGradient>
		<path class="st34" d="M-3054.9,446.6h-256c-17.4,0-0.1-135.1,25-242.8l90.7-389.8c0.3-1.2,1.5-2.2,2.8-2.2h19
			c1.3,0,2.6,0.9,2.8,2.2l90.7,389.8C-3054.8,311.5-3037.5,446.6-3054.9,446.6z"/>
		<path class="st35" d="M-3054.9,1017.8h-256c-17.4,0-22.9-58.6-13.5-122.7l99.2-675.2c0.8-5.3,5-9.4,9.5-9.4h65.6
			c4.5,0,8.7,4.1,9.5,9.4l99.2,675.2C-3032,959.2-3037.5,1017.8-3054.9,1017.8z"/>
	</g>
	<path class="st11" d="M-3118.5-400h-128.8c-31.1,0-54-5.7-51.4-12.5l13.9-35.5c2-5,24.1-9,49.4-9h105.1c25.4,0,47.4,3.9,49.4,9
		l13.9,35.5C-3064.5-405.8-3087.4-400-3118.5-400z"/>
	<g class="st18">
		<path class="st21" d="M-2962.2,531.6h-111.5c-10.2,0-18.4-6.9-18.4-15.4V262.5c0-17.2,28.5-21.5,35.6-5.4l111.5,253.7
			C-2940.5,520.9-2949.4,531.6-2962.2,531.6z"/>
		<path class="st21" d="M-3273.7,262.5v253.7c0,8.5-8.2,15.4-18.4,15.4h-111.5c-12.8,0-21.7-10.7-17.2-20.8l111.5-253.7
			C-3302.3,241-3273.7,245.3-3273.7,262.5z"/>
	</g>
	
		<radialGradient id="SVGID_25_" cx="-3182.9106" cy="641.045" r="497.5309" gradientTransform="matrix(1 0 0 0.7371 0 168.5263)" gradientUnits="userSpaceOnUse">
		<stop  offset="0" style="stop-color:#FFFB92"/>
		<stop  offset="2.081001e-02" style="stop-color:#F7EF8A"/>
		<stop  offset="0.1255" style="stop-color:#D2B866"/>
		<stop  offset="0.231" style="stop-color:#B28947"/>
		<stop  offset="0.335" style="stop-color:#98622D"/>
		<stop  offset="0.4374" style="stop-color:#844419"/>
		<stop  offset="0.5376" style="stop-color:#762E0B"/>
		<stop  offset="0.6346" style="stop-color:#6D2103"/>
		<stop  offset="0.7249" style="stop-color:#6A1D00"/>
	</radialGradient>
	<path class="st36" d="M-3075,887.2l-215.8,0c-76.4,0-138.3-61.9-138.3-138.3l0-215.8c0-76.4,61.9-138.3,138.3-138.3l215.8,0
		c76.4,0,138.3,61.9,138.3,138.3l0,215.8C-2936.7,825.3-2998.6,887.2-3075,887.2z"/>
	<path class="st23" d="M-3076.5,862l-212.8,0c-62.9,0-114-51-114-114l0-153.4c0-62.9,51-114,114-114l212.8,0c62.9,0,114,51,114,114
		l0,153.4C-2962.5,811-3013.6,862-3076.5,862z"/>
	<linearGradient id="SVGID_26_" gradientUnits="userSpaceOnUse" x1="-3182.9084" y1="168.0156" x2="-3182.9084" y2="-393.7971">
		<stop  offset="0.1666" style="stop-color:#3E3124"/>
		<stop  offset="0.2082" style="stop-color:#524214"/>
		<stop  offset="0.2507" style="stop-color:#6A5800"/>
		<stop  offset="0.2583" style="stop-color:#615006"/>
		<stop  offset="0.2785" style="stop-color:#504013"/>
		<stop  offset="0.3032" style="stop-color:#43351B"/>
		<stop  offset="0.3363" style="stop-color:#3C2F21"/>
		<stop  offset="0.4144" style="stop-color:#3A2D22"/>
	</linearGradient>
	<path class="st37" d="M-3132.5,52.8h-100.9c-24.3,0-42.3-48.5-40.3-105.9l10.9-301.1c1.5-42.6,18.8-76,38.7-76h82.3
		c19.9,0,37.2,33.4,38.7,76l10.9,301.1C-3090.1,4.3-3108.1,52.8-3132.5,52.8z"/>
	<linearGradient id="SVGID_27_" gradientUnits="userSpaceOnUse" x1="-3542.179" y1="-218.6889" x2="-2787.7554" y2="-218.6889">
		<stop  offset="0.1666" style="stop-color:#6A6BFF"/>
		<stop  offset="0.2353" style="stop-color:#6E72EB"/>
		<stop  offset="0.3749" style="stop-color:#7985B9"/>
		<stop  offset="0.4571" style="stop-color:#809198"/>
		<stop  offset="0.6024" style="stop-color:#A7C598"/>
	</linearGradient>
	<path class="st38" d="M-3140.7-16.8h-84.4c-20.3,0-35.4-40.5-33.7-88.5l9.1-251.7c1.3-35.6,15.7-63.6,32.3-63.6h68.8
		c16.6,0,31.1,27.9,32.3,63.6l9.1,251.7C-3105.3-57.3-3120.4-16.8-3140.7-16.8z"/>
</g>
<g id="Layer_3" class="st8">
	<path class="st26" d="M-3160.8,974l-44.1,0c-116.9,0-211.6-94.8-211.6-211.6v-44.1c0-116.9,94.8-211.6,211.6-211.6l44.1,0
		c116.9,0,211.6,94.8,211.6,211.6v44.1C-2949.2,879.2-3044,974-3160.8,974z"/>
	<path class="st26" d="M-3137.6,5589.5l-90.7,0c-53.5,0-96.8-43.4-96.8-96.8l0-4772.6c0-53.5,43.4-96.8,96.8-96.8l90.7,0
		c53.5,0,96.8,43.4,96.8,96.8l0,4772.6C-3040.7,5546.1-3084.1,5589.5-3137.6,5589.5z"/>
	<path class="st27" d="M-3074.7,740.3c0-59.7-48.4-108.2-108.2-108.2h0c-59.7,0-108.2,48.4-108.2,108.2v0c0,0.4,0,0.7,0,1.1h0v146.6
		c0,0.5-0.1,1-0.1,1.5l0,501.7c0,12.3,6.9,22.3,15.3,22.3h0.4c8.5,0,15.3-10,15.3-22.3V1053c0-12.3,6.9-22.3,15.3-22.3h0.3
		c8.5,0,15.3,10,15.3,22.3v187.7c0,12.3,6.9,22.3,15.3,22.3h0.4c8.5,0,15.3-10,15.3-22.3v-82.2c0-12.3,6.9-22.3,15.3-22.3
		s15.3-10,15.3-22.3v-61c0-12.3,6.9-22.3,15.3-22.3h0.2c8.5,0,15.3,10,15.3,22.3v70c0,12.3,6.9,22.3,15.3,22.3h0.3
		c8.5,0,15.3,10,15.3,22.3v73.2c0,12.3,6.9,22.3,15.3,22.3h0.4c8.5,0,15.3-10,15.3-22.3l0-282.9h0.1V741.3h0
		C-3074.7,741-3074.7,740.6-3074.7,740.3L-3074.7,740.3z"/>
</g>
</svg>
