<?xml version="1.0" encoding="utf-8"?>
<!-- Generator: Adobe Illustrator 23.0.6, SVG Export Plug-In . SVG Version: 6.00 Build 0)  -->
<svg version="1.1" id="Layer_1" xmlns="http://www.w3.org/2000/svg" xmlns:xlink="http://www.w3.org/1999/xlink" x="0px" y="0px"
	 viewBox="0 0 1874.1 3170.8" style="enable-background:new 0 0 1874.1 3170.8;" xml:space="preserve">
<style type="text/css">
	.st0{fill:#00002A;}
	.st1{fill:#FF9F94;}
	.st2{fill:#FFAAB7;}
	.st3{fill:#897FFF;}
	.st4{fill:#FFA89B;}
	.st5{fill:#FFD3B1;}
	.st6{fill:#F0C6FF;}
	.st7{fill:#FFFFFF;}
	.st8{fill:url(#SVGID_1_);}
	.st9{fill:url(#SVGID_2_);}
	.st10{display:none;fill:url(#SVGID_3_);}
	.st11{display:none;}
	.st12{fill:url(#SVGID_4_);}
	.st13{fill:url(#SVGID_6_);}
	.st14{fill:url(#SVGID_7_);}
	.st15{display:inline;fill:url(#SVGID_8_);}
	.st16{display:inline;fill:url(#SVGID_9_);}
	.st17{display:inline;fill:url(#SVGID_10_);}
	.st18{display:inline;fill:url(#SVGID_11_);}
	.st19{display:none;fill:#BC6E33;}
</style>
<g id="atmosphere">
	<g id="space">
		<ellipse id="dark_sky" class="st0" cx="937" cy="1585.4" rx="1325.2" ry="2242.1"/>
		<g id="stars">
			<circle class="st1" cx="1557.7" cy="1016.4" r="3.9"/>
			<circle class="st2" cx="1419" cy="1159.7" r="3.9"/>
			<circle class="st3" cx="1395.8" cy="845.6" r="3.9"/>
			<ellipse class="st1" cx="1615.8" cy="825" rx="2" ry="2"/>
			<ellipse class="st4" cx="1696.3" cy="816.3" rx="2" ry="2"/>
			<circle class="st5" cx="1360.6" cy="636" r="3.9"/>
			<circle class="st3" cx="1705.6" cy="1042.6" r="3.9"/>
			<ellipse class="st6" cx="1606.7" cy="718.9" rx="2" ry="2"/>
			<circle class="st2" cx="1233.3" cy="582.1" r="3.9"/>
			<circle class="st4" cx="1572.6" cy="702.5" r="3.9"/>
			<circle class="st2" cx="1628.4" cy="500.8" r="3.9"/>
			<circle class="st2" cx="1768.3" cy="602.1" r="3.9"/>
			
				<ellipse transform="matrix(0.9995 -3.266811e-02 3.266811e-02 0.9995 -7.119 52.4892)" class="st3" cx="1602.8" cy="244.1" rx="3.9" ry="3.9"/>
			
				<ellipse transform="matrix(0.9995 -3.266833e-02 3.266833e-02 0.9995 -6.3424 47.6307)" class="st1" cx="1454.4" cy="217.9" rx="3.9" ry="3.9"/>
			
				<ellipse transform="matrix(0.9995 -3.266811e-02 3.266811e-02 0.9995 -6.5132 37.9736)" class="st5" cx="1158.8" cy="218.3" rx="3.9" ry="3.9"/>
			<ellipse class="st6" cx="1404.3" cy="600.4" rx="2" ry="2"/>
			<ellipse class="st2" cx="1491" cy="706.6" rx="2" ry="2"/>
			<ellipse class="st3" cx="1188.1" cy="698.8" rx="2" ry="2"/>
			<ellipse class="st4" cx="1142.2" cy="125.6" rx="2" ry="2"/>
			<ellipse class="st5" cx="1332.7" cy="46.3" rx="2" ry="2"/>
			<ellipse class="st6" cx="1274.2" cy="115.4" rx="2" ry="2"/>
			<ellipse class="st1" cx="1515.5" cy="208.2" rx="2" ry="2"/>
			<ellipse class="st4" cx="1440.8" cy="177" rx="2" ry="2"/>
			
				<ellipse transform="matrix(0.9992 -4.010254e-02 4.010254e-02 0.9992 -2.2381 62.2251)" class="st4" cx="1549.9" cy="86.9" rx="3.9" ry="3.9"/>
			<ellipse class="st1" cx="1082.1" cy="265.9" rx="2" ry="2"/>
			<path class="st1" d="M1022.3,214.9c1.1,0,2,0.9,2,2s-0.9,2-2,2s-2-0.9-2-2S1021.2,214.9,1022.3,214.9z"/>
			<circle class="st6" cx="976.6" cy="313.1" r="2"/>
			<ellipse class="st6" cx="1592.8" cy="506.9" rx="2" ry="2"/>
			<ellipse class="st2" cx="1567.9" cy="372" rx="2" ry="2"/>
			<polygon class="st7" points="1674.9,532.2 1677.5,537.3 1683.1,538.2 1679,542.2 1680.1,547.8 1675,545.2 1669.9,547.9 
				1670.9,542.2 1666.7,538.3 1672.4,537.4 			"/>
			<polygon class="st7" points="1713.1,293.4 1715.6,298.5 1721.4,299.3 1717.3,303.3 1718.3,309 1713.1,306.3 1708.1,309 
				1709,303.4 1704.9,299.4 1710.6,298.5 			"/>
			<polygon class="st7" points="1499.3,563.5 1501.9,568.6 1507.5,569.3 1503.5,573.4 1504.5,579 1499.4,576.4 1494.4,579.1 
				1495.3,573.4 1491.2,569.4 1496.9,568.6 			"/>
			<polygon class="st7" points="1156.7,888.4 1159.3,893.5 1165,894.4 1160.9,898.3 1161.9,904 1156.8,901.3 1151.8,904 
				1152.7,898.4 1148.6,894.5 1154.2,893.5 			"/>
			<ellipse class="st6" cx="1472.3" cy="305.6" rx="2" ry="2"/>
			<circle class="st2" cx="1076.7" cy="1195.1" r="3.2"/>
			<circle class="st2" cx="1299.1" cy="1068.1" r="3.2"/>
			<circle class="st4" cx="1001.7" cy="945.2" r="1.6"/>
			<ellipse class="st1" cx="1066.1" cy="933" rx="1.6" ry="1.6"/>
			<circle class="st3" cx="1151.1" cy="866.2" r="3.2"/>
			<circle class="st2" cx="1203.1" cy="650.6" r="3.2"/>
			<circle class="st1" cx="1100.6" cy="775" r="3.2"/>
			<circle class="st3" cx="979.6" cy="763.4" r="3.2"/>
			<circle class="st3" cx="834.5" cy="914.9" r="3.2"/>
			<circle class="st3" cx="941.4" cy="980" r="1.6"/>
			<circle class="st4" cx="1401.8" cy="1430.2" r="1.6"/>
			<circle class="st5" cx="1253.4" cy="1506.3" r="1.6"/>
			<circle class="st1" cx="1441.2" cy="1313.3" r="1.6"/>
			<circle class="st6" cx="1523.2" cy="1268.3" r="1.6"/>
			<circle class="st4" cx="1542.7" cy="1126.1" r="1.6"/>
			<polygon class="st7" points="1321.1,59.1 1316.8,62.8 1317.4,68.5 1312.5,65.6 1307.3,67.8 1308.7,62.3 1304.8,58.1 1310.4,57.6 
				1313.3,52.6 1315.5,57.9 			"/>
			<polygon class="st7" points="1399.1,243.5 1394.8,247.3 1395.4,253 1390.6,250 1385.4,252.4 1386.6,246.8 1382.8,242.6 
				1388.4,242.2 1391.3,237.1 1393.6,242.4 			"/>
			
				<ellipse transform="matrix(2.937325e-02 -0.9996 0.9996 2.937325e-02 -1238.9788 1932.3494)" class="st1" cx="375.5" cy="1604.1" rx="3.9" ry="3.9"/>
			<path class="st6" d="M218.2,1959.3c-1,0.5-2.2,0.3-2.7-0.7s-0.3-2.2,0.7-2.7s2.2-0.3,2.7,0.7S219.1,1958.8,218.2,1959.3z"/>
			
				<ellipse transform="matrix(2.937330e-02 -0.9996 0.9996 2.937330e-02 -999.1486 1792.0353)" class="st2" cx="423.2" cy="1410.5" rx="3.9" ry="3.9"/>
			<ellipse class="st3" cx="784.7" cy="1572.1" rx="3.9" ry="3.9"/>
			<ellipse class="st1" cx="421" cy="1798.9" rx="2" ry="2"/>
			<ellipse class="st4" cx="355.8" cy="1846.9" rx="2" ry="2"/>
			<ellipse class="st5" cx="920.5" cy="1735.7" rx="3.9" ry="3.9"/>
			
				<ellipse transform="matrix(2.937346e-02 -0.9996 0.9996 2.937346e-02 -1427.8475 1841.4327)" class="st3" cx="234.2" cy="1655.9" rx="3.9" ry="3.9"/>
			<ellipse class="st5" cx="188.2" cy="1872" rx="2" ry="2"/>
			<ellipse class="st6" cx="482.2" cy="1886" rx="2" ry="2"/>
			<ellipse class="st2" cx="1057.6" cy="1718.4" rx="3.9" ry="3.9"/>
			<ellipse class="st4" cx="520" cy="1883.1" rx="3.9" ry="3.9"/>
			<ellipse class="st2" cx="756.8" cy="1987.2" rx="3.9" ry="3.9"/>
			
				<ellipse transform="matrix(0.9999 -1.574481e-02 1.574481e-02 0.9999 -32.5145 6.5718)" class="st2" cx="401.1" cy="2068.2" rx="3.9" ry="3.9"/>
			
				<ellipse transform="matrix(0.8635 -0.5043 0.5043 0.8635 -983.4037 757.6514)" class="st3" cx="908.1" cy="2195.7" rx="3.9" ry="3.9"/>
			<ellipse class="st1" cx="1049.5" cy="2144.2" rx="3.9" ry="3.9"/>
			<ellipse class="st5" cx="1304.8" cy="1995.4" rx="3.9" ry="3.9"/>
			<ellipse class="st6" cx="900.6" cy="1788.4" rx="2" ry="2"/>
			<ellipse class="st2" cx="772.3" cy="1740.1" rx="2" ry="2"/>
			<circle class="st3" cx="1038" cy="1594.7" r="2"/>
			<circle class="st4" cx="1365.8" cy="2067.2" r="2"/>
			<ellipse class="st5" cx="1240.7" cy="2231.5" rx="2" ry="2"/>
			<ellipse class="st6" cx="1256.7" cy="2142.2" rx="2" ry="2"/>
			<ellipse class="st1" cx="1001.5" cy="2183.3" rx="2" ry="2"/>
			<ellipse class="st4" cx="1081.8" cy="2172.7" rx="2" ry="2"/>
			
				<ellipse transform="matrix(0.8624 -0.5062 0.5062 0.8624 -1024.9716 839.9076)" class="st4" cx="1032.6" cy="2305.5" rx="3.9" ry="3.9"/>
			<ellipse class="st1" cx="1347.2" cy="1915.8" rx="2" ry="2"/>
			<circle class="st1" cx="1423.4" cy="1928.1" r="2"/>
			<ellipse class="st6" cx="1414.6" cy="1821.9" rx="2" ry="2"/>
			<ellipse class="st6" cx="784.6" cy="1964" rx="2" ry="2"/>
			<ellipse class="st2" cx="873.8" cy="2068.1" rx="2" ry="2"/>
			<polygon class="st7" points="517,2081.7 512.2,2078.6 506.9,2080.7 508.5,2075.1 504.7,2070.8 510.4,2070.5 513.5,2065.7 
				515.5,2071.1 521,2072.4 516.7,2076 			"/>
			<polygon class="st7" points="787.8,2209 783.1,2205.8 777.7,2208.1 779.2,2202.5 775.5,2198.2 781.2,2197.9 784.2,2193 
				786.3,2198.3 791.8,2199.8 787.4,2203.3 			"/>
			<polygon class="st7" points="836.9,1868.1 832.1,1865 826.9,1867.2 828.3,1861.6 824.6,1857.2 830.4,1857 833.3,1852.1 
				835.4,1857.4 840.9,1858.8 836.5,1862.4 			"/>
			<polygon class="st7" points="969.9,1415 965.1,1411.9 959.7,1414 961.3,1408.5 957.6,1404.1 963.3,1403.8 966.3,1399 
				968.4,1404.4 973.8,1405.7 969.5,1409.4 			"/>
			<ellipse class="st6" cx="989.8" cy="2077.5" rx="2" ry="2"/>
			<ellipse class="st2" cx="884.9" cy="1109.8" rx="3.2" ry="3.2"/>
			<ellipse class="st2" cx="756.4" cy="1331.2" rx="3.2" ry="3.2"/>
			<ellipse class="st4" cx="1075.3" cy="1288" rx="1.6" ry="1.6"/>
			<ellipse class="st1" cx="1025.7" cy="1330.9" rx="1.6" ry="1.6"/>
			<ellipse class="st3" cx="985.9" cy="1431.5" rx="3.2" ry="3.2"/>
			<ellipse class="st2" cx="1049.2" cy="1644" rx="3.2" ry="3.2"/>
			<ellipse class="st1" cx="1075.4" cy="1484.9" rx="3.2" ry="3.2"/>
			<ellipse class="st3" cx="1185.8" cy="1434.1" rx="3.2" ry="3.2"/>
			<ellipse class="st3" cx="1235.1" cy="1230.2" rx="3.2" ry="3.2"/>
			<ellipse class="st3" cx="1110" cy="1227.7" rx="1.6" ry="1.6"/>
			
				<ellipse transform="matrix(0.8574 -0.5146 0.5146 0.8574 -481.2023 402.5053)" class="st4" cx="485.8" cy="1069.7" rx="1.6" ry="1.6"/>
			<ellipse class="st5" cx="575.8" cy="929.4" rx="1.6" ry="1.6"/>
			<path class="st1" d="M509.6,1189.2c0.8-0.5,1.8-0.2,2.2,0.6c0.5,0.8,0.2,1.8-0.6,2.2c-0.8,0.5-1.8,0.2-2.2-0.6
				C508.6,1190.7,508.9,1189.7,509.6,1189.2z"/>
			
				<ellipse transform="matrix(0.8574 -0.5146 0.5146 0.8574 -587.9498 419.0039)" class="st6" cx="462.2" cy="1270.6" rx="1.6" ry="1.6"/>
			
				<ellipse transform="matrix(0.857 -0.5154 0.5154 0.857 -726.474 386.5572)" class="st4" cx="333.2" cy="1502.1" rx="1.6" ry="1.6"/>
			<polygon class="st7" points="1244.4,2214.7 1246.3,2209.3 1242.9,2204.7 1248.6,2204.7 1251.9,2200.1 1253.6,2205.7 1259,2207.3 
				1254.4,2210.6 1254.4,2216.3 1249.8,2212.9 			"/>
			<polygon class="st7" points="1084.3,2094.3 1086.1,2088.9 1082.8,2084.3 1088.4,2084.4 1091.7,2079.8 1093.4,2085.2 
				1098.8,2086.9 1094.2,2090.2 1094.3,2096 1089.7,2092.5 			"/>
			<ellipse class="st1" cx="724.1" cy="112.8" rx="2" ry="2"/>
			<ellipse class="st4" cx="678.8" cy="45.6" rx="2" ry="2"/>
			<ellipse class="st5" cx="676" cy="426.7" rx="3.9" ry="3.9"/>
			<ellipse class="st6" cx="634.4" cy="170.4" rx="2" ry="2"/>
			<ellipse class="st2" cx="687.8" cy="564.4" rx="3.9" ry="3.9"/>
			
				<ellipse transform="matrix(0.9995 -3.266845e-02 3.266845e-02 0.9995 -6.4591 20.8856)" class="st4" cx="635.9" cy="208.1" rx="3.9" ry="3.9"/>
			<circle class="st2" cx="431.4" cy="252.9" r="3.9"/>
			<circle class="st2" cx="455.8" cy="81.9" r="3.9"/>
			<ellipse class="st3" cx="216.6" cy="395.8" rx="3.9" ry="3.9"/>
			
				<ellipse transform="matrix(0.8496 -0.5274 0.5274 0.8496 -244.6878 219.4694)" class="st1" cx="262.5" cy="538.8" rx="3.9" ry="3.9"/>
			<ellipse class="st5" cx="400.8" cy="800.1" rx="3.9" ry="3.9"/>
			<circle class="st6" cx="624.2" cy="404.7" r="2"/>
			<circle class="st2" cx="677.6" cy="278.4" r="2"/>
			<circle class="st4" cx="326.5" cy="858.1" r="2"/>
			<ellipse class="st5" cx="167.5" cy="726.5" rx="2" ry="2"/>
			<ellipse class="st6" cx="255.9" cy="746" rx="2" ry="2"/>
			<ellipse class="st1" cx="225.4" cy="489.3" rx="2" ry="2"/>
			<ellipse class="st4" cx="232.7" cy="570" rx="2" ry="2"/>
			
				<ellipse transform="matrix(0.8399 -0.5428 0.5428 0.8399 -263.4781 137.9138)" class="st4" cx="102" cy="515.5" rx="3.9" ry="3.9"/>
			<ellipse class="st1" cx="478.5" cy="845.7" rx="2" ry="2"/>
			<circle class="st1" cx="463.2" cy="921.4" r="2"/>
			<ellipse class="st6" cx="569.7" cy="916.9" rx="2" ry="2"/>
			<circle class="st6" cx="453.5" cy="281.6" r="2"/>
			<circle class="st2" cx="345.8" cy="366.6" r="2"/>
			<polygon class="st7" points="437.5,197 440.9,192.4 439,187.1 444.5,188.8 448.9,185.3 449,191 453.7,194.2 448.3,196 
				446.8,201.6 443.3,197 			"/>
			<polygon class="st7" points="208.5,274.8 211.8,270.2 209.8,264.7 215.4,266.5 219.9,263 219.9,268.7 224.7,271.9 219.3,273.7 
				217.6,279.2 214.2,274.6 			"/>
			<polygon class="st7" points="547.1,337.8 550.4,333.2 548.5,327.8 553.9,329.5 558.5,326 558.5,331.7 563.3,334.9 557.8,336.7 
				556.2,342.2 552.8,337.6 			"/>
			<circle class="st6" cx="331.6" cy="482" r="2"/>
			<ellipse class="st2" cx="762.4" cy="559.1" rx="3.2" ry="3.2"/>
			<polygon class="st7" points="184.2,730.8 189.4,732.9 194.2,729.7 193.9,735.4 198.3,738.9 192.8,740.3 190.9,745.7 187.8,741 
				182.2,740.8 185.8,736.3 			"/>
			<polygon class="st7" points="311,575.8 316.3,577.8 321,574.6 320.7,580.3 325.2,583.8 319.7,585.3 317.8,590.6 314.7,585.8 
				308.9,585.7 312.5,581.2 			"/>
			<path class="st6" d="M1754.9,2174.8c-0.7-0.8-0.6-2.1,0.3-2.8c0.8-0.7,2.1-0.6,2.8,0.3c0.7,0.8,0.6,2.1-0.3,2.8
				S1755.6,2175.6,1754.9,2174.8z"/>
			<circle class="st1" cx="1536.6" cy="2309.4" r="2"/>
			<circle class="st4" cx="1604.2" cy="2264.9" r="2"/>
			<circle class="st5" cx="1686.2" cy="2116.5" r="2"/>
			<circle class="st6" cx="1597" cy="2397.1" r="2"/>
			
				<ellipse transform="matrix(0.9999 -1.341008e-02 1.341008e-02 0.9999 -32.4628 21.4198)" class="st4" cx="1581" cy="2431.4" rx="3.9" ry="3.9"/>
			
				<ellipse transform="matrix(0.9999 -1.341007e-02 1.341007e-02 0.9999 -31.8145 24.2973)" class="st2" cx="1795.9" cy="2384.5" rx="3.9" ry="3.9"/>
			<circle class="st2" cx="1359.1" cy="2618.1" r="2"/>
			<polygon class="st7" points="1762.9,2495.5 1758,2498.4 1758.7,2492.7 1754.4,2488.9 1760.1,2487.8 1762.2,2482.6 1765,2487.6 
				1770.8,2488 1767,2492.2 1768.2,2497.8 			"/>
			<path class="st6" d="M1060,2650.9c1-0.5,2.2-0.2,2.7,0.8s0.2,2.2-0.8,2.7s-2.2,0.2-2.7-0.8
				C1058.7,2652.7,1059,2651.5,1060,2650.9z"/>
			
				<ellipse transform="matrix(0.9999 -1.574480e-02 1.574480e-02 0.9999 -41.0003 8.5486)" class="st2" cx="522.4" cy="2608.2" rx="3.9" ry="3.9"/>
			
				<ellipse transform="matrix(0.9999 -1.341007e-02 1.341007e-02 0.9999 -33.9405 12.0329)" class="st2" cx="880.3" cy="2536.9" rx="3.9" ry="3.9"/>
			
				<ellipse transform="matrix(0.881 -0.4731 0.4731 0.881 -1088.0135 463.3457)" class="st3" cx="377.1" cy="2394.6" rx="3.9" ry="3.9"/>
			
				<ellipse transform="matrix(0.881 -0.4731 0.4731 0.881 -1127.443 401.5813)" class="st1" cx="234.6" cy="2442.1" rx="3.9" ry="3.9"/>
			<ellipse class="st1" cx="283.7" cy="2404.5" rx="2" ry="2"/>
			<ellipse class="st4" cx="203" cy="2412.7" rx="2" ry="2"/>
			
				<ellipse transform="matrix(0.9207 -0.3903 0.3903 0.9207 -870.2494 280.8514)" class="st4" cx="255.9" cy="2281.6" rx="3.9" ry="3.9"/>
			<ellipse class="st6" cx="494" cy="2630.1" rx="2" ry="2"/>
			<ellipse class="st2" cx="407.7" cy="2523.4" rx="2" ry="2"/>
			<polygon class="st7" points="764.8,2520.1 769.5,2523.4 774.8,2521.5 773.2,2526.9 776.8,2531.3 771,2531.5 767.8,2536.2 
				766,2530.9 760.5,2529.4 765,2525.8 			"/>
			<polygon class="st7" points="497.8,2385.1 502.4,2388.3 507.9,2386.3 506.2,2391.8 509.8,2396.3 504,2396.4 500.9,2401.2 
				498.9,2395.8 493.5,2394.2 498,2390.8 			"/>
			<ellipse class="st6" cx="292.1" cy="2510.9" rx="2" ry="2"/>
			<polygon class="st7" points="198.1,2491.1 196.2,2496.5 199.3,2501.2 193.7,2501 190.3,2505.5 188.6,2500.1 183.3,2498.1 
				188.1,2495.1 188.1,2489.2 192.6,2492.8 			"/>
			
				<ellipse transform="matrix(0.5352 -0.8447 0.8447 0.5352 -1806.4368 1756.8643)" class="st2" cx="693.3" cy="2520" rx="3.9" ry="3.9"/>
			
				<ellipse transform="matrix(8.853706e-02 -0.9961 0.9961 8.853706e-02 -1421.3502 2911.7834)" class="st2" cx="880.4" cy="2232.5" rx="3.2" ry="3.2"/>
			
				<ellipse transform="matrix(0.2902 -0.957 0.957 0.2902 -1776.0675 2065.0723)" class="st4" cx="504" cy="2229.8" rx="1.6" ry="1.6"/>
			
				<ellipse transform="matrix(0.2902 -0.957 0.957 0.2902 -1771.8182 2212.1763)" class="st1" cx="605.3" cy="2300.5" rx="1.6" ry="1.6"/>
			
				<ellipse transform="matrix(0.2902 -0.957 0.957 0.2902 -1844.7036 2296.3374)" class="st6" cx="625.6" cy="2391.7" rx="1.6" ry="1.6"/>
			<circle class="st5" cx="1789" cy="1446.8" r="3.9"/>
			<circle class="st2" cx="1661.7" cy="1393" r="3.9"/>
			<circle class="st3" cx="1616.5" cy="1509.6" r="2"/>
			<polygon class="st7" points="1585.1,1699.3 1587.6,1704.4 1593.4,1705.2 1589.3,1709.2 1590.3,1714.8 1585.2,1712.2 
				1580.2,1714.9 1581,1709.2 1577,1705.3 1582.6,1704.4 			"/>
			<circle class="st1" cx="1494.5" cy="1743.9" r="1.6"/>
			<circle class="st3" cx="1579.5" cy="1677" r="3.2"/>
			<circle class="st2" cx="1631.5" cy="1461.4" r="3.2"/>
			<circle class="st1" cx="1529" cy="1585.8" r="3.2"/>
			<circle class="st3" cx="1408" cy="1574.2" r="3.2"/>
		</g>
		
			<linearGradient id="SVGID_1_" gradientUnits="userSpaceOnUse" x1="937" y1="4252.0376" x2="937" y2="9723.8516" gradientTransform="matrix(1 0 0 -1 0 8893.5996)">
			<stop  offset="0.238" style="stop-color:#FFFF35;stop-opacity:0.5"/>
			<stop  offset="0.4202" style="stop-color:#DA8141;stop-opacity:0.41"/>
			<stop  offset="0.6747" style="stop-color:#A05B78;stop-opacity:0.308"/>
			<stop  offset="0.8932" style="stop-color:#AF69AD;stop-opacity:0.1012"/>
			<stop  offset="1" style="stop-color:#B56FC1;stop-opacity:0"/>
		</linearGradient>
		<ellipse class="st8" cx="937" cy="1585.4" rx="1325.2" ry="2242.1"/>
	</g>
</g>
<g>
	
		<linearGradient id="SVGID_2_" gradientUnits="userSpaceOnUse" x1="869.65" y1="4515.085" x2="869.65" y2="202.2808" gradientTransform="matrix(1 0 0 -1 0 3169.6001)">
		<stop  offset="0" style="stop-color:#FFFFFF;stop-opacity:0"/>
		<stop  offset="9.414855e-02" style="stop-color:#FEF9F3;stop-opacity:0.114"/>
		<stop  offset="0.2625" style="stop-color:#FAE9D5;stop-opacity:0.318"/>
		<stop  offset="0.4856" style="stop-color:#F4CFA3;stop-opacity:0.5882"/>
		<stop  offset="0.7521" style="stop-color:#EBAB5E;stop-opacity:0.911"/>
		<stop  offset="0.8256" style="stop-color:#E9A14A"/>
	</linearGradient>
	<rect x="-338.6" y="-217.8" class="st9" width="2416.5" height="3106.6"/>
</g>
<linearGradient id="SVGID_3_" gradientUnits="userSpaceOnUse" x1="225.25" y1="1820.2963" x2="225.25" y2="2540.3022">
	<stop  offset="0" style="stop-color:#B75900"/>
	<stop  offset="0.4395" style="stop-color:#B95B02;stop-opacity:0.5605"/>
	<stop  offset="0.6487" style="stop-color:#BE6309;stop-opacity:0.3513"/>
	<stop  offset="0.8092" style="stop-color:#C87014;stop-opacity:0.1908"/>
	<stop  offset="0.9442" style="stop-color:#D68225;stop-opacity:5.584484e-02"/>
	<stop  offset="1" style="stop-color:#DE8C2E;stop-opacity:0"/>
</linearGradient>
<path class="st10" d="M98.7,2027.4v185.3c0,10.1,7.8,18.2,17.5,18.2h8.1c9.7,0,17.5-8.2,17.5-18.2v-95.4c0-10.1,7.8-18.2,17.5-18.2
	h35c9.7,0,17.5,8.2,17.5,18.2v185.3c0,10.1,7.8,18.2,17.5,18.2h62c9.7,0,17.5,8.2,17.5,18.2v73c0,10.1,7.8,18.2,17.5,18.2h24.3
	c9.7,0,17.5-8.2,17.5-18.2v-98.2c0-10.1,7.8-18.2,17.5-18.2h45.8c9.7,0,17.5,8.2,17.5,18.2v33.7c0,10.1,7.8,18.2,17.5,18.2l0,0
	c9.7,0,17.5,8.2,17.5,18.2v230.2c0,10.1-7.8,18.2-17.5,18.2h-17.5h-37.7h-24.3H368h-59.3h-56.6h-40.4h-35h-35h-27h-16H20.5h-36.4
	c-9.7,0-17.5-8.2-17.5-18.2v-586.6c0-10.1,7.8-18.2,17.5-18.2h97C90.9,2009.2,98.7,2017.3,98.7,2027.4z"/>
<g id="topw-ib_1_" class="st11">
	<linearGradient id="SVGID_4_" gradientUnits="userSpaceOnUse" x1="1839.5995" y1="1473.6729" x2="1839.5995" y2="2464.4231">
		<stop  offset="0" style="stop-color:#B75900"/>
		<stop  offset="0.4395" style="stop-color:#B95B02;stop-opacity:0.5605"/>
		<stop  offset="0.6487" style="stop-color:#BE6309;stop-opacity:0.3513"/>
		<stop  offset="0.8092" style="stop-color:#C87014;stop-opacity:0.1908"/>
		<stop  offset="0.9442" style="stop-color:#D68225;stop-opacity:5.584484e-02"/>
		<stop  offset="1" style="stop-color:#DE8C2E;stop-opacity:0"/>
	</linearGradient>
	<path id="SVGID_5_" class="st12" d="M1335.9,2545v-152.7c0-18.2,11.3-33,25.2-33h66.6c13.9,0,25.2-14.8,25.2-33v-200
		c0-18.2,11.3-33,25.2-33h132.1c13.9,0,25.2-14.8,25.2-33v-177.8c0-18.2,11.3-33,25.2-33h15.1c13.9,0,25.2-14.8,25.2-33v-151
		c0-18.2,11.3-33,25.2-33h54.9c13.9,0,25.2,14.8,25.2,33v151c0,18.2,11.3,33,25.2,33c13.9,0,25.2,14.8,25.2,33v90.4
		c0,18.2,11.3,33,25.2,33h125.1c13.9,0,25.2,14.8,25.2,33v62.8c0,18.2,11.3,33,25.2,33h86.5c13.9,0,25.2,14.8,25.2,33v81.2
		c0,18.2,11.3,33,25.2,33h58.4c13.9,0,25.2,14.8,25.2,33v108c0,18.2,11.3,33,25.2,33h15.1c13.9,0,25.2,14.8,25.2,33v56.1v48.1v1.3
		c0,27.1-21.6,49.1-48.2,49.1h-910.4c-26.5,0-48-21.9-48-48.8L1335.9,2545L1335.9,2545z"/>
	
		<linearGradient id="SVGID_6_" gradientUnits="userSpaceOnUse" x1="1752" y1="2198.6877" x2="1752.0001" y2="226.1601" gradientTransform="matrix(1 0 0 -1 0 3169.6001)">
		<stop  offset="0" style="stop-color:#B75900"/>
		<stop  offset="0.4395" style="stop-color:#B95B02;stop-opacity:0.5605"/>
		<stop  offset="0.6487" style="stop-color:#BE6309;stop-opacity:0.3513"/>
		<stop  offset="0.8092" style="stop-color:#C87014;stop-opacity:0.1908"/>
		<stop  offset="0.9442" style="stop-color:#D68225;stop-opacity:5.584484e-02"/>
		<stop  offset="1" style="stop-color:#DE8C2E;stop-opacity:0"/>
	</linearGradient>
	<path class="st13" d="M1890.1,1881.1v235.4c0,12.8-8.6,23.2-19.1,23.2h-8.8c-10.6,0-19.1-10.4-19.1-23.2v-121.3
		c0-12.8-8.6-23.2-19.1-23.2h-38.2c-10.6,0-19.1,10.4-19.1,23.2v235.4c0,12.8-8.6,23.2-19.1,23.2H1680c-10.6,0-19.1,10.4-19.1,23.2
		v92.7c0,12.8-8.6,23.2-19.1,23.2h-26.5c-10.6,0-19.1-10.4-19.1-23.2v-124.8c0-12.8-8.6-23.2-19.1-23.2h-50
		c-10.6,0-19.1,10.4-19.1,23.2v42.8c0,12.8-8.6,23.2-19.1,23.2l0,0c-10.6,0-19.1,10.4-19.1,23.2v292.4c0,12.8,8.6,23.2,19.1,23.2
		h19.1h41.2h26.5h20.6h64.7h61.7h44.1h38.2h38.2h29.4h17.6h85.2h39.7c10.6,0,19.1-10.4,19.1-23.2v-745.4c0-12.8-8.6-23.2-19.1-23.2
		h-105.8C1898.6,1857.9,1890.1,1868.3,1890.1,1881.1z"/>
	<linearGradient id="SVGID_7_" gradientUnits="userSpaceOnUse" x1="2043.6" y1="2126.6838" x2="2043.6" y2="2635.3809">
		<stop  offset="0" style="stop-color:#B75900"/>
		<stop  offset="0.5149" style="stop-color:#B85B02;stop-opacity:0.4851"/>
		<stop  offset="0.7003" style="stop-color:#BE6208;stop-opacity:0.2997"/>
		<stop  offset="0.8325" style="stop-color:#C76D12;stop-opacity:0.1675"/>
		<stop  offset="0.9387" style="stop-color:#D37E22;stop-opacity:6.134146e-02"/>
		<stop  offset="1" style="stop-color:#DE8C2E;stop-opacity:0"/>
	</linearGradient>
	<path class="st14" d="M2295.3,2397.3v-105.8c0-17-9.6-30.9-21.5-30.9h-70.5c-11.9,0-21.5,13.8-21.5,30.9V2534
		c0,17-9.6,30.9-21.5,30.9l0,0c-11.9,0-21.5-13.8-21.5-30.9v-74.9c0-17-9.6-30.9-21.5-30.9h-147.2c-11.9,0-21.5,13.8-21.5,30.9v61.7
		c0,17-9.6,30.9-21.5,30.9h-36.8c-11.9,0-21.5-13.8-21.5-30.9v-101.4c0-17-9.6-30.9-21.5-30.9h-95c-11.9,0-21.5,13.8-21.5,30.9
		v251.3c0,17,9.6,30.9,21.5,30.9h85.8h30.7h79.7h79.7h61.3h49.1h42.9h21.5h27.6h64.4h39.9c11.9,0,21.5-13.8,21.5-30.9v-211.6
		c0-17-9.6-30.9-21.5-30.9h-18.4C2304.9,2428.1,2295.3,2414.3,2295.3,2397.3z"/>
</g>
<g id="space_shuttle" class="st11">
	
		<linearGradient id="SVGID_8_" gradientUnits="userSpaceOnUse" x1="761.85" y1="1030.1718" x2="761.85" y2="496.0573" gradientTransform="matrix(1 0 0 -1 0 3169.6001)">
		<stop  offset="0.2638" style="stop-color:#FFB855"/>
		<stop  offset="0.3902" style="stop-color:#F2A746"/>
		<stop  offset="0.548" style="stop-color:#DE8C2E"/>
		<stop  offset="0.6948" style="stop-color:#B75900"/>
	</linearGradient>
	<path class="st15" d="M772.6,2638.3h-21.5c-26.9,0-48.7-21.8-48.7-48.7v-121.1c0-26.9,21.8-48.7,48.7-48.7h21.5
		c26.9,0,48.7,21.8,48.7,48.7v121.1C821.2,2616.5,799.4,2638.3,772.6,2638.3z"/>
	
		<linearGradient id="SVGID_9_" gradientUnits="userSpaceOnUse" x1="-414.6589" y1="-750.6144" x2="866.8503" y2="-750.6144" gradientTransform="matrix(-1.260880e-07 1 1 1.117979e-07 1685.9646 2370.7017)">
		<stop  offset="0.3734" style="stop-color:#FFB855"/>
		<stop  offset="0.4356" style="stop-color:#D1853D"/>
		<stop  offset="0.4695" style="stop-color:#BC6E33"/>
	</linearGradient>
	<path class="st16" d="M773.7,2596.4v-144.1c0-34.8,32.5-60.4,70.9-57.5l201.5,15.5c28.5,2.2,50.9,26.9,50.9,55.3v117.5
		c0,28.4-22.3,53.1-50.9,55.3l-201.5,15.5C806.1,2656.8,773.7,2631.1,773.7,2596.4z"/>
	
		<linearGradient id="SVGID_10_" gradientUnits="userSpaceOnUse" x1="1107" y1="949.3502" x2="1107" y2="517.5944" gradientTransform="matrix(1 0 0 -1 0 3169.6001)">
		<stop  offset="0.2638" style="stop-color:#FFB855"/>
		<stop  offset="0.3902" style="stop-color:#F2A746"/>
		<stop  offset="0.548" style="stop-color:#DE8C2E"/>
		<stop  offset="0.6948" style="stop-color:#B75900"/>
	</linearGradient>
	<path class="st17" d="M1023.1,2524.3L1023.1,2524.3c0-189.6,146.1-54,160.1-26.5l4.2,8.4c2.4,4.7,3.5,12,3.5,18.1l0,0
		c0,6.1-1.2,13.4-3.5,18.1l-4.2,8.4C1169.3,2578.4,1023.1,2713.9,1023.1,2524.3z"/>
	
		<linearGradient id="SVGID_11_" gradientUnits="userSpaceOnUse" x1="813" y1="935.8798" x2="813" y2="628.2692" gradientTransform="matrix(1 0 0 -1 0 3169.6001)">
		<stop  offset="0.725" style="stop-color:#FFB855"/>
		<stop  offset="0.7707" style="stop-color:#EA9C3C"/>
		<stop  offset="0.8297" style="stop-color:#D47F22"/>
		<stop  offset="0.8882" style="stop-color:#C46A0F"/>
		<stop  offset="0.9455" style="stop-color:#BA5D04"/>
		<stop  offset="1" style="stop-color:#B75900"/>
	</linearGradient>
	<path class="st18" d="M940.6,2551.6l-274.8-12.1c-4.8-0.2-8.6-7.4-8.6-16.1l0,0c0-8.7,3.8-15.9,8.6-16.1l274.8-12.1
		c15.3-0.7,28.2,11.9,28.2,28.2l0,0C968.8,2539.7,955.9,2552.3,940.6,2551.6z"/>
</g>
<path class="st19" d="M-553.3,3184l2900.8-12.3l-14.8-551.2c-470.6-17.6-960.7-26.9-1464-26.9c-488.4,0-964.3,8.7-1422.1,25.3
	L-553.3,3184z"/>
</svg>
