<?xml version="1.0" encoding="utf-8"?>
<!-- Generator: Adobe Illustrator 23.0.6, SVG Export Plug-In . SVG Version: 6.00 Build 0)  -->
<svg version="1.1" id="Layer_1" xmlns="http://www.w3.org/2000/svg" xmlns:xlink="http://www.w3.org/1999/xlink" x="0px" y="0px"
	 viewBox="0 0 2114.1 1875.9" style="enable-background:new 0 0 2114.1 1875.9;" xml:space="preserve">
<style type="text/css">
	.st0{display:none;}
	.st1{display:inline;}
	.st2{fill:#00002A;}
	.st3{fill:#FF9F94;}
	.st4{fill:#FFAAB7;}
	.st5{fill:#897FFF;}
	.st6{fill:#FFA89B;}
	.st7{fill:#FFD3B1;}
	.st8{fill:#F0C6FF;}
	.st9{fill:#FFFFFF;}
	.st10{fill:url(#SVGID_1_);}
	.st11{display:none;opacity:0.6;fill:url(#SVGID_2_);enable-background:new    ;}
	.st12{display:inline;fill:url(#SVGID_3_);}
	.st13{display:none;opacity:0.6;fill:url(#SVGID_4_);enable-background:new    ;}
	.st14{display:none;opacity:0.6;}
	.st15{opacity:0.6;fill:url(#SVGID_6_);enable-background:new    ;}
	.st16{clip-path:url(#SVGID_8_);fill:url(#SVGID_9_);}
	.st17{clip-path:url(#SVGID_11_);fill:url(#SVGID_12_);}
	.st18{display:inline;fill:url(#SVGID_13_);}
	.st19{display:inline;fill:url(#SVGID_14_);}
	.st20{display:inline;fill:url(#SVGID_15_);}
	.st21{display:inline;fill:url(#SVGID_16_);}
	.st22{display:none;fill:#BC6E33;}
	.st23{fill:url(#SVGID_17_);}
</style>
<g id="atmosphere" class="st0">
	<g id="space" class="st1">
		<ellipse id="dark_sky" class="st2" cx="2365.7" cy="1664" rx="1325.2" ry="2242.1"/>
		<g id="stars">
			<circle class="st3" cx="2986.4" cy="1095" r="3.9"/>
			<circle class="st4" cx="2847.7" cy="1238.3" r="3.9"/>
			<circle class="st5" cx="2824.5" cy="924.2" r="3.9"/>
			<ellipse class="st3" cx="3044.5" cy="903.6" rx="2" ry="2"/>
			<ellipse class="st6" cx="3125" cy="894.9" rx="2" ry="2"/>
			<circle class="st7" cx="2789.3" cy="714.6" r="3.9"/>
			<circle class="st5" cx="3134.3" cy="1121.2" r="3.9"/>
			<ellipse class="st8" cx="3035.4" cy="797.5" rx="2" ry="2"/>
			<circle class="st4" cx="2662" cy="660.7" r="3.9"/>
			<circle class="st6" cx="3001.3" cy="781.1" r="3.9"/>
			<circle class="st4" cx="3057.1" cy="579.4" r="3.9"/>
			<circle class="st4" cx="3197" cy="680.7" r="3.9"/>
			
				<ellipse transform="matrix(0.9995 -3.266811e-02 3.266811e-02 0.9995 -8.9233 99.2055)" class="st5" cx="3031.5" cy="322.7" rx="3.9" ry="3.9"/>
			
				<ellipse transform="matrix(0.9995 -3.266833e-02 3.266833e-02 0.9995 -8.1466 94.3474)" class="st3" cx="2883.2" cy="296.5" rx="3.9" ry="3.9"/>
			
				<ellipse transform="matrix(0.9995 -3.266811e-02 3.266811e-02 0.9995 -8.3174 84.6899)" class="st7" cx="2587.6" cy="296.9" rx="3.9" ry="3.9"/>
			<ellipse class="st8" cx="2833" cy="679" rx="2" ry="2"/>
			<ellipse class="st4" cx="2919.7" cy="785.2" rx="2" ry="2"/>
			<ellipse class="st5" cx="2616.8" cy="777.4" rx="2" ry="2"/>
			<ellipse class="st6" cx="2570.9" cy="204.2" rx="2" ry="2"/>
			<ellipse class="st7" cx="2761.4" cy="124.9" rx="2" ry="2"/>
			<ellipse class="st8" cx="2702.9" cy="194" rx="2" ry="2"/>
			<ellipse class="st3" cx="2944.2" cy="286.8" rx="2" ry="2"/>
			<ellipse class="st6" cx="2869.5" cy="255.6" rx="2" ry="2"/>
			
				<ellipse transform="matrix(0.9992 -4.010254e-02 4.010254e-02 0.9992 -4.2398 119.5846)" class="st6" cx="2978.7" cy="165.5" rx="3.9" ry="3.9"/>
			<ellipse class="st3" cx="2510.8" cy="344.5" rx="2" ry="2"/>
			<path class="st3" d="M2451,293.5c1.1,0,2,0.9,2,2s-0.9,2-2,2c-1.1,0-2-0.9-2-2S2449.9,293.5,2451,293.5z"/>
			<circle class="st8" cx="2405.3" cy="391.7" r="2"/>
			<ellipse class="st8" cx="3021.5" cy="585.5" rx="2" ry="2"/>
			<ellipse class="st4" cx="2996.6" cy="450.6" rx="2" ry="2"/>
			<polygon class="st9" points="3103.6,610.8 3106.2,615.9 3111.8,616.8 3107.7,620.8 3108.8,626.4 3103.7,623.8 3098.6,626.5 
				3099.6,620.8 3095.4,616.9 3101.1,616 			"/>
			<polygon class="st9" points="3141.8,372 3144.3,377.1 3150.1,377.9 3146,381.9 3147,387.6 3141.8,384.9 3136.8,387.6 3137.7,382 
				3133.6,378 3139.3,377.1 			"/>
			<polygon class="st9" points="2928,642.1 2930.6,647.2 2936.2,647.9 2932.2,652 2933.2,657.6 2928.1,655 2923.1,657.7 2924,652 
				2919.9,648 2925.6,647.2 			"/>
			<polygon class="st9" points="2585.4,967 2588,972.1 2593.7,973 2589.6,976.9 2590.6,982.6 2585.5,979.9 2580.5,982.6 2581.4,977 
				2577.3,973.1 2582.9,972.1 			"/>
			<ellipse class="st8" cx="2901" cy="384.2" rx="2" ry="2"/>
			<circle class="st4" cx="2505.4" cy="1273.7" r="3.2"/>
			<circle class="st4" cx="2727.8" cy="1146.7" r="3.2"/>
			<circle class="st6" cx="2430.4" cy="1023.8" r="1.6"/>
			<ellipse class="st3" cx="2494.8" cy="1011.6" rx="1.6" ry="1.6"/>
			<circle class="st5" cx="2579.8" cy="944.8" r="3.2"/>
			<circle class="st4" cx="2631.8" cy="729.2" r="3.2"/>
			<circle class="st3" cx="2529.3" cy="853.6" r="3.2"/>
			<circle class="st5" cx="2408.3" cy="842" r="3.2"/>
			<circle class="st5" cx="2263.2" cy="993.5" r="3.2"/>
			<circle class="st5" cx="2370.1" cy="1058.6" r="1.6"/>
			<circle class="st6" cx="2830.5" cy="1508.8" r="1.6"/>
			<circle class="st7" cx="2682.1" cy="1584.9" r="1.6"/>
			<circle class="st3" cx="2869.9" cy="1391.9" r="1.6"/>
			<circle class="st8" cx="2951.9" cy="1346.9" r="1.6"/>
			<circle class="st6" cx="2971.4" cy="1204.7" r="1.6"/>
			<polygon class="st9" points="2749.8,137.7 2745.5,141.4 2746.1,147.1 2741.2,144.2 2736,146.4 2737.4,140.9 2733.5,136.7 
				2739.1,136.2 2742,131.2 2744.2,136.5 			"/>
			<polygon class="st9" points="2827.8,322.1 2823.5,325.9 2824.1,331.6 2819.3,328.6 2814.1,331 2815.3,325.4 2811.5,321.2 
				2817.1,320.8 2820,315.7 2822.3,321 			"/>
			
				<ellipse transform="matrix(2.937325e-02 -0.9996 0.9996 2.937325e-02 69.2599 3436.7417)" class="st3" cx="1804.2" cy="1682.7" rx="3.9" ry="3.9"/>
			<path class="st8" d="M1646.9,2037.9c-1,0.5-2.2,0.3-2.7-0.7s-0.3-2.2,0.7-2.7s2.2-0.3,2.7,0.7S1647.8,2037.4,1646.9,2037.9z"/>
			
				<ellipse transform="matrix(2.937330e-02 -0.9996 0.9996 2.937330e-02 309.0901 3296.4275)" class="st4" cx="1851.9" cy="1489.1" rx="3.9" ry="3.9"/>
			<ellipse class="st5" cx="2213.4" cy="1650.7" rx="3.9" ry="3.9"/>
			<ellipse class="st3" cx="1849.7" cy="1877.5" rx="2" ry="2"/>
			<ellipse class="st6" cx="1784.5" cy="1925.5" rx="2" ry="2"/>
			<ellipse class="st7" cx="2349.2" cy="1814.3" rx="3.9" ry="3.9"/>
			
				<ellipse transform="matrix(2.937346e-02 -0.9996 0.9996 2.937346e-02 -119.6091 3345.825)" class="st5" cx="1663" cy="1734.5" rx="3.9" ry="3.9"/>
			<ellipse class="st7" cx="1616.9" cy="1950.6" rx="2" ry="2"/>
			<ellipse class="st8" cx="1910.9" cy="1964.6" rx="2" ry="2"/>
			<ellipse class="st4" cx="2486.3" cy="1797" rx="3.9" ry="3.9"/>
			<ellipse class="st6" cx="1948.7" cy="1961.7" rx="3.9" ry="3.9"/>
			<ellipse class="st4" cx="2185.5" cy="2065.8" rx="3.9" ry="3.9"/>
			
				<ellipse transform="matrix(0.9999 -1.574481e-02 1.574481e-02 0.9999 -33.5745 29.0768)" class="st4" cx="1829.9" cy="2146.8" rx="3.9" ry="3.9"/>
			
				<ellipse transform="matrix(0.8635 -0.5043 0.5043 0.8635 -828.0356 1488.9083)" class="st5" cx="2336.9" cy="2274.3" rx="3.9" ry="3.9"/>
			<ellipse class="st3" cx="2478.2" cy="2222.8" rx="3.9" ry="3.9"/>
			<ellipse class="st7" cx="2733.5" cy="2074" rx="3.9" ry="3.9"/>
			<ellipse class="st8" cx="2329.3" cy="1867" rx="2" ry="2"/>
			<ellipse class="st4" cx="2201" cy="1818.7" rx="2" ry="2"/>
			<circle class="st5" cx="2466.7" cy="1673.3" r="2"/>
			<circle class="st6" cx="2794.5" cy="2145.8" r="2"/>
			<ellipse class="st7" cx="2669.4" cy="2310.1" rx="2" ry="2"/>
			<ellipse class="st8" cx="2685.4" cy="2220.8" rx="2" ry="2"/>
			<ellipse class="st3" cx="2430.2" cy="2261.9" rx="2" ry="2"/>
			<ellipse class="st6" cx="2510.5" cy="2251.3" rx="2" ry="2"/>
			
				<ellipse transform="matrix(0.8624 -0.5062 0.5062 0.8624 -868.1674 1573.9586)" class="st6" cx="2461.3" cy="2384" rx="3.9" ry="3.9"/>
			<ellipse class="st3" cx="2775.9" cy="1994.4" rx="2" ry="2"/>
			<circle class="st3" cx="2852.1" cy="2006.7" r="2"/>
			<ellipse class="st8" cx="2843.3" cy="1900.5" rx="2" ry="2"/>
			<ellipse class="st8" cx="2213.3" cy="2042.6" rx="2" ry="2"/>
			<ellipse class="st4" cx="2302.5" cy="2146.7" rx="2" ry="2"/>
			<polygon class="st9" points="1945.7,2160.3 1940.9,2157.2 1935.6,2159.3 1937.2,2153.7 1933.4,2149.4 1939.1,2149.1 
				1942.2,2144.3 1944.2,2149.7 1949.7,2151 1945.4,2154.6 			"/>
			<polygon class="st9" points="2216.5,2287.6 2211.8,2284.4 2206.4,2286.7 2207.9,2281.1 2204.2,2276.8 2209.9,2276.5 
				2212.9,2271.6 2215,2276.9 2220.5,2278.4 2216.1,2281.9 			"/>
			<polygon class="st9" points="2265.6,1946.7 2260.8,1943.6 2255.6,1945.8 2257,1940.2 2253.3,1935.8 2259.1,1935.6 2262,1930.7 
				2264.1,1936 2269.6,1937.4 2265.2,1941 			"/>
			<polygon class="st9" points="2398.6,1493.6 2393.8,1490.5 2388.4,1492.6 2390,1487.1 2386.3,1482.7 2392,1482.4 2395,1477.6 
				2397.1,1483 2402.5,1484.3 2398.2,1488 			"/>
			<ellipse class="st8" cx="2418.5" cy="2156.1" rx="2" ry="2"/>
			<ellipse class="st4" cx="2313.6" cy="1188.4" rx="3.2" ry="3.2"/>
			<ellipse class="st4" cx="2185.1" cy="1409.8" rx="3.2" ry="3.2"/>
			<ellipse class="st6" cx="2504" cy="1366.6" rx="1.6" ry="1.6"/>
			<ellipse class="st3" cx="2454.4" cy="1409.5" rx="1.6" ry="1.6"/>
			<ellipse class="st5" cx="2414.6" cy="1510.1" rx="3.2" ry="3.2"/>
			<ellipse class="st4" cx="2477.9" cy="1722.6" rx="3.2" ry="3.2"/>
			<ellipse class="st3" cx="2504.1" cy="1563.5" rx="3.2" ry="3.2"/>
			<ellipse class="st5" cx="2614.5" cy="1512.7" rx="3.2" ry="3.2"/>
			<ellipse class="st5" cx="2663.8" cy="1308.8" rx="3.2" ry="3.2"/>
			<ellipse class="st5" cx="2538.7" cy="1306.3" rx="1.6" ry="1.6"/>
			
				<ellipse transform="matrix(0.8574 -0.5146 0.5146 0.8574 -317.9297 1148.9589)" class="st6" cx="1914.5" cy="1148.2" rx="1.6" ry="1.6"/>
			<ellipse class="st7" cx="2004.5" cy="1008" rx="1.6" ry="1.6"/>
			<path class="st3" d="M1938.3,1267.8c0.8-0.5,1.8-0.2,2.2,0.6c0.5,0.8,0.2,1.8-0.6,2.2c-0.8,0.5-1.8,0.2-2.2-0.6
				C1937.3,1269.3,1937.6,1268.3,1938.3,1267.8z"/>
			
				<ellipse transform="matrix(0.8574 -0.5146 0.5146 0.8574 -424.6772 1165.4575)" class="st8" cx="1890.9" cy="1349.1" rx="1.6" ry="1.6"/>
			
				<ellipse transform="matrix(0.857 -0.5154 0.5154 0.857 -562.6053 1134.1389)" class="st6" cx="1761.9" cy="1580.6" rx="1.6" ry="1.6"/>
			<polygon class="st9" points="2673.1,2293.3 2675,2287.9 2671.6,2283.3 2677.3,2283.3 2680.6,2278.7 2682.3,2284.3 2687.7,2285.9 
				2683.1,2289.2 2683.1,2294.9 2678.5,2291.5 			"/>
			<polygon class="st9" points="2513,2172.9 2514.8,2167.5 2511.5,2162.9 2517.1,2163 2520.4,2158.4 2522.1,2163.8 2527.5,2165.5 
				2522.9,2168.8 2523,2174.6 2518.4,2171.1 			"/>
			<ellipse class="st3" cx="2152.8" cy="191.4" rx="2" ry="2"/>
			<ellipse class="st6" cx="2107.5" cy="124.2" rx="2" ry="2"/>
			<ellipse class="st7" cx="2104.7" cy="505.3" rx="3.9" ry="3.9"/>
			<ellipse class="st8" cx="2063.1" cy="249" rx="2" ry="2"/>
			<ellipse class="st4" cx="2116.5" cy="643" rx="3.9" ry="3.9"/>
			
				<ellipse transform="matrix(0.9995 -3.266845e-02 3.266845e-02 0.9995 -8.2634 67.6024)" class="st6" cx="2064.7" cy="286.7" rx="3.9" ry="3.9"/>
			<circle class="st4" cx="1860.1" cy="331.5" r="3.9"/>
			<circle class="st4" cx="1884.5" cy="160.5" r="3.9"/>
			<ellipse class="st5" cx="1645.3" cy="474.4" rx="3.9" ry="3.9"/>
			
				<ellipse transform="matrix(0.8496 -0.5274 0.5274 0.8496 -71.262 984.8165)" class="st3" cx="1691.2" cy="617.4" rx="3.9" ry="3.9"/>
			<ellipse class="st7" cx="1829.5" cy="878.7" rx="3.9" ry="3.9"/>
			<circle class="st8" cx="2052.9" cy="483.3" r="2"/>
			<circle class="st4" cx="2106.3" cy="357" r="2"/>
			<circle class="st6" cx="1755.2" cy="936.7" r="2"/>
			<ellipse class="st7" cx="1596.2" cy="805.1" rx="2" ry="2"/>
			<ellipse class="st8" cx="1684.6" cy="824.6" rx="2" ry="2"/>
			<ellipse class="st3" cx="1654.1" cy="567.9" rx="2" ry="2"/>
			<ellipse class="st6" cx="1661.4" cy="648.6" rx="2" ry="2"/>
			
				<ellipse transform="matrix(0.8399 -0.5428 0.5428 0.8399 -77.3456 925.9932)" class="st6" cx="1530.7" cy="594.1" rx="3.9" ry="3.9"/>
			<ellipse class="st3" cx="1907.2" cy="924.3" rx="2" ry="2"/>
			<circle class="st3" cx="1891.9" cy="1000" r="2"/>
			<ellipse class="st8" cx="1998.4" cy="995.5" rx="2" ry="2"/>
			<circle class="st8" cx="1882.2" cy="360.2" r="2"/>
			<circle class="st4" cx="1774.5" cy="445.2" r="2"/>
			<polygon class="st9" points="1866.2,275.6 1869.6,271 1867.7,265.7 1873.2,267.4 1877.6,263.9 1877.7,269.6 1882.4,272.8 
				1877,274.6 1875.5,280.2 1872,275.6 			"/>
			<polygon class="st9" points="1637.2,353.4 1640.5,348.8 1638.5,343.3 1644.1,345.1 1648.6,341.6 1648.6,347.3 1653.4,350.5 
				1648,352.3 1646.3,357.8 1642.9,353.2 			"/>
			<polygon class="st9" points="1975.8,416.4 1979.1,411.8 1977.2,406.4 1982.6,408.1 1987.2,404.6 1987.2,410.3 1992,413.5 
				1986.5,415.3 1984.9,420.8 1981.5,416.2 			"/>
			<circle class="st8" cx="1760.3" cy="560.6" r="2"/>
			<ellipse class="st4" cx="2191.1" cy="637.7" rx="3.2" ry="3.2"/>
			<polygon class="st9" points="1612.9,809.4 1618.1,811.5 1622.9,808.3 1622.6,814 1627,817.5 1621.5,818.9 1619.6,824.3 
				1616.5,819.6 1610.9,819.4 1614.5,814.9 			"/>
			<polygon class="st9" points="1739.7,654.4 1745,656.4 1749.7,653.2 1749.4,658.9 1753.9,662.4 1748.4,663.9 1746.5,669.2 
				1743.4,664.4 1737.6,664.3 1741.2,659.8 			"/>
			<path class="st8" d="M3183.6,2253.4c-0.7-0.8-0.6-2.1,0.3-2.8c0.8-0.7,2.1-0.6,2.8,0.3c0.7,0.8,0.6,2.1-0.3,2.8
				C3185.5,2254.4,3184.3,2254.2,3183.6,2253.4z"/>
			<circle class="st3" cx="2965.3" cy="2388" r="2"/>
			<circle class="st6" cx="3032.9" cy="2343.5" r="2"/>
			<circle class="st7" cx="3114.9" cy="2195.1" r="2"/>
			<circle class="st8" cx="3025.7" cy="2475.7" r="2"/>
			
				<ellipse transform="matrix(0.9999 -1.341008e-02 1.341008e-02 0.9999 -33.388 40.5864)" class="st6" cx="3009.7" cy="2509.9" rx="3.9" ry="3.9"/>
			
				<ellipse transform="matrix(0.9999 -1.341007e-02 1.341007e-02 0.9999 -32.7397 43.4639)" class="st4" cx="3224.6" cy="2463" rx="3.9" ry="3.9"/>
			<circle class="st4" cx="2787.8" cy="2696.7" r="2"/>
			<polygon class="st9" points="3191.6,2574.1 3186.7,2577 3187.4,2571.3 3183.1,2567.5 3188.8,2566.4 3190.9,2561.2 3193.7,2566.2 
				3199.5,2566.6 3195.7,2570.8 3196.9,2576.4 			"/>
			<path class="st8" d="M2488.7,2729.5c1-0.5,2.2-0.2,2.7,0.8s0.2,2.2-0.8,2.7s-2.2,0.2-2.7-0.8
				C2487.4,2731.3,2487.7,2730.1,2488.7,2729.5z"/>
			
				<ellipse transform="matrix(0.9999 -1.574480e-02 1.574480e-02 0.9999 -42.0603 31.0536)" class="st4" cx="1951.2" cy="2686.7" rx="3.9" ry="3.9"/>
			
				<ellipse transform="matrix(0.9999 -1.341007e-02 1.341007e-02 0.9999 -34.8657 31.1995)" class="st4" cx="2309" cy="2615.4" rx="3.9" ry="3.9"/>
			
				<ellipse transform="matrix(0.881 -0.4731 0.4731 0.881 -955.1757 1148.6394)" class="st5" cx="1805.8" cy="2473.2" rx="3.9" ry="3.9"/>
			
				<ellipse transform="matrix(0.881 -0.4731 0.4731 0.881 -994.605 1086.875)" class="st3" cx="1663.3" cy="2520.7" rx="3.9" ry="3.9"/>
			<ellipse class="st3" cx="1712.4" cy="2483.1" rx="2" ry="2"/>
			<ellipse class="st6" cx="1631.7" cy="2491.3" rx="2" ry="2"/>
			
				<ellipse transform="matrix(0.9207 -0.3903 0.3903 0.9207 -787.5865 844.7574)" class="st6" cx="1684.6" cy="2360.1" rx="3.9" ry="3.9"/>
			<ellipse class="st8" cx="1922.7" cy="2708.7" rx="2" ry="2"/>
			<ellipse class="st4" cx="1836.4" cy="2602" rx="2" ry="2"/>
			<polygon class="st9" points="2193.5,2598.7 2198.2,2602 2203.5,2600.1 2201.9,2605.5 2205.5,2609.9 2199.7,2610.1 2196.5,2614.8 
				2194.7,2609.5 2189.2,2608 2193.7,2604.4 			"/>
			<polygon class="st9" points="1926.5,2463.7 1931.1,2466.9 1936.6,2464.9 1934.9,2470.4 1938.5,2474.9 1932.7,2475 1929.6,2479.8 
				1927.6,2474.4 1922.2,2472.8 1926.7,2469.4 			"/>
			<ellipse class="st8" cx="1720.8" cy="2589.5" rx="2" ry="2"/>
			<polygon class="st9" points="1626.8,2569.7 1624.9,2575.1 1628,2579.8 1622.4,2579.6 1619,2584.1 1617.3,2578.7 1612,2576.7 
				1616.8,2573.7 1616.8,2567.8 1621.3,2571.4 			"/>
			
				<ellipse transform="matrix(0.5352 -0.8447 0.8447 0.5352 -1208.7444 3000.27)" class="st4" cx="2122" cy="2598.5" rx="3.9" ry="3.9"/>
			
				<ellipse transform="matrix(8.853706e-02 -0.9961 0.9961 8.853706e-02 -197.3668 4406.5327)" class="st4" cx="2309.1" cy="2311.1" rx="3.2" ry="3.2"/>
			
				<ellipse transform="matrix(0.2902 -0.957 0.957 0.2902 -837.1229 3488.1077)" class="st6" cx="1932.8" cy="2308.4" rx="1.6" ry="1.6"/>
			
				<ellipse transform="matrix(0.2902 -0.957 0.957 0.2902 -832.8736 3635.2114)" class="st3" cx="2034.1" cy="2379" rx="1.6" ry="1.6"/>
			
				<ellipse transform="matrix(0.2902 -0.957 0.957 0.2902 -905.7589 3719.3726)" class="st8" cx="2054.4" cy="2470.3" rx="1.6" ry="1.6"/>
			<circle class="st7" cx="3217.7" cy="1525.4" r="3.9"/>
			<circle class="st4" cx="3090.4" cy="1471.6" r="3.9"/>
			<circle class="st5" cx="3045.2" cy="1588.2" r="2"/>
			<polygon class="st9" points="3013.8,1777.9 3016.3,1783 3022.1,1783.8 3018,1787.8 3019,1793.4 3013.9,1790.8 3008.9,1793.5 
				3009.7,1787.8 3005.7,1783.9 3011.3,1783 			"/>
			<circle class="st3" cx="2923.2" cy="1822.5" r="1.6"/>
			<circle class="st5" cx="3008.2" cy="1755.6" r="3.2"/>
			<circle class="st4" cx="3060.2" cy="1540" r="3.2"/>
			<circle class="st3" cx="2957.7" cy="1664.4" r="3.2"/>
			<circle class="st5" cx="2836.7" cy="1652.8" r="3.2"/>
		</g>
		
			<linearGradient id="SVGID_1_" gradientUnits="userSpaceOnUse" x1="2365.7441" y1="4330.6104" x2="2365.7441" y2="9802.4238" gradientTransform="matrix(1 0 0 -1 0 9050.7451)">
			<stop  offset="0.238" style="stop-color:#FFFF35;stop-opacity:0.5"/>
			<stop  offset="0.4202" style="stop-color:#DA8141;stop-opacity:0.41"/>
			<stop  offset="0.6747" style="stop-color:#A05B78;stop-opacity:0.308"/>
			<stop  offset="0.8932" style="stop-color:#AF69AD;stop-opacity:0.1012"/>
			<stop  offset="1" style="stop-color:#B56FC1;stop-opacity:0"/>
		</linearGradient>
		<ellipse class="st10" cx="2365.7" cy="1664" rx="1325.2" ry="2242.1"/>
	</g>
</g>
<linearGradient id="SVGID_2_" gradientUnits="userSpaceOnUse" x1="1741.9943" y1="1264.5433" x2="1741.9943" y2="491.6269" gradientTransform="matrix(1 0 0 -1 0 3326.7451)">
	<stop  offset="0.2638" style="stop-color:#FFB855"/>
	<stop  offset="0.3253" style="stop-color:#F2A746"/>
	<stop  offset="0.4021" style="stop-color:#DE8C2E"/>
	<stop  offset="0.7507" style="stop-color:#B75900"/>
</linearGradient>
<path class="st11" d="M1906.1,2524.4v-69.2c0-11.2-6.3-20.2-14-20.2h-46.2c-7.8,0-14,9-14,20.2v158.7c0,11.2-6.3,20.2-14,20.2l0,0
	c-7.8,0-14-9-14-20.2v-49c0-11.2-6.3-20.2-14-20.2h-96.3c-7.8,0-14,9-14,20.2v40.4c0,11.2-6.3,20.2-14,20.2h-24.1
	c-7.8,0-14-9-14-20.2v-66.4c0-11.2-6.3-20.2-14-20.2h-62.2c-7.8,0-14,9-14,20.2v164.5c0,11.2,6.3,20.2,14,20.2h56.2h20.1h52.2h52.2
	h40.1h32.1h28.1h14h18.1h42.1h26.1c7.8,0,14-9,14-20.2v-138.5c0-11.2-6.3-20.2-14-20.2h-12
	C1912.4,2544.6,1906.1,2535.5,1906.1,2524.4z"/>
<g class="st0">
	
		<linearGradient id="SVGID_3_" gradientUnits="userSpaceOnUse" x1="2298.394" y1="4593.6577" x2="2298.394" y2="280.8533" gradientTransform="matrix(1 0 0 -1 0 3326.7451)">
		<stop  offset="0" style="stop-color:#FFFFFF;stop-opacity:0"/>
		<stop  offset="0.2591" style="stop-color:#F7DFC1;stop-opacity:0.2591"/>
		<stop  offset="0.5056" style="stop-color:#F1C48E;stop-opacity:0.5056"/>
		<stop  offset="0.719" style="stop-color:#EDB169;stop-opacity:0.719"/>
		<stop  offset="0.8909" style="stop-color:#EAA552;stop-opacity:0.8909"/>
		<stop  offset="1" style="stop-color:#E9A14A"/>
	</linearGradient>
	<rect x="1090.1" y="-139.2" class="st12" width="2416.5" height="3106.6"/>
</g>
<linearGradient id="SVGID_4_" gradientUnits="userSpaceOnUse" x1="2799.0872" y1="1937.123" x2="2799.0872" y2="384.6896" gradientTransform="matrix(-1 0 0 -1 4453.0815 3326.7451)">
	<stop  offset="0.2638" style="stop-color:#FFB855"/>
	<stop  offset="0.3253" style="stop-color:#F2A746"/>
	<stop  offset="0.4021" style="stop-color:#DE8C2E"/>
	<stop  offset="0.7507" style="stop-color:#B75900"/>
</linearGradient>
<path class="st13" d="M1527.4,2106v185.3c0,10.1,7.8,18.2,17.5,18.2h8.1c9.7,0,17.5-8.2,17.5-18.2v-95.4c0-10.1,7.8-18.2,17.5-18.2
	h35c9.7,0,17.5,8.2,17.5,18.2v185.3c0,10.1,7.8,18.2,17.5,18.2h62c9.7,0,17.5,8.2,17.5,18.2v73c0,10.1,7.8,18.2,17.5,18.2h24.3
	c9.7,0,17.5-8.2,17.5-18.2v-98.2c0-10.1,7.8-18.2,17.5-18.2h45.8c9.7,0,17.5,8.2,17.5,18.2v33.7c0,10.1,7.8,18.2,17.5,18.2l0,0
	c9.7,0,17.5,8.2,17.5,18.2v230.2c0,10.1-7.8,18.2-17.5,18.2h-17.5h-37.7h-24.3h-18.9h-59.3h-56.6h-40.4h-35h-35h-27h-16h-78.2h-36.4
	c-9.7,0-17.5-8.2-17.5-18.2v-586.6c0-10.1,7.8-18.2,17.5-18.2h97C1519.6,2087.8,1527.4,2095.9,1527.4,2106z"/>
<g id="topw-ib_1_" class="st14">
	<g class="st1">
		
			<linearGradient id="SVGID_6_" gradientUnits="userSpaceOnUse" x1="3268.3438" y1="2003.0415" x2="3268.3438" y2="1222.6359" gradientTransform="matrix(1 0 0 -1 0 3326.7451)">
			<stop  offset="0.2638" style="stop-color:#FFB855"/>
			<stop  offset="0.3253" style="stop-color:#F2A746"/>
			<stop  offset="0.4021" style="stop-color:#DE8C2E"/>
			<stop  offset="0.7507" style="stop-color:#B75900"/>
		</linearGradient>
		<path id="SVGID_5_" class="st15" d="M2764.6,2623.6v-152.7c0-18.2,11.3-33,25.2-33h66.6c13.9,0,25.2-14.8,25.2-33v-200
			c0-18.2,11.3-33,25.2-33h132.1c13.9,0,25.2-14.8,25.2-33v-177.8c0-18.2,11.3-33,25.2-33h15.1c13.9,0,25.2-14.8,25.2-33v-151
			c0-18.2,11.3-33,25.2-33h54.9c13.9,0,25.2,14.8,25.2,33v151c0,18.2,11.3,33,25.2,33s25.2,14.8,25.2,33v90.4
			c0,18.2,11.3,33,25.2,33h125.1c13.9,0,25.2,14.8,25.2,33v62.8c0,18.2,11.3,33,25.2,33h86.5c13.9,0,25.2,14.8,25.2,33v81.2
			c0,18.2,11.3,33,25.2,33h58.4c13.9,0,25.2,14.8,25.2,33v108c0,18.2,11.3,33,25.2,33h15.1c13.9,0,25.2,14.8,25.2,33v56.1v48.1v1.3
			c0,27.1-21.6,49.1-48.2,49.1h-910.4c-26.5,0-48-21.9-48-48.8L2764.6,2623.6L2764.6,2623.6z"/>
	</g>
	<g class="st1">
		<defs>
			<path id="SVGID_7_" d="M2764.6,2623.6v-152.7c0-18.2,11.3-33,25.2-33h66.6c13.9,0,25.2-14.8,25.2-33v-200c0-18.2,11.3-33,25.2-33
				h132.1c13.9,0,25.2-14.8,25.2-33v-177.8c0-18.2,11.3-33,25.2-33h15.1c13.9,0,25.2-14.8,25.2-33v-151c0-18.2,11.3-33,25.2-33h54.9
				c13.9,0,25.2,14.8,25.2,33v151c0,18.2,11.3,33,25.2,33s25.2,14.8,25.2,33v90.4c0,18.2,11.3,33,25.2,33h125.1
				c13.9,0,25.2,14.8,25.2,33v62.8c0,18.2,11.3,33,25.2,33h86.5c13.9,0,25.2,14.8,25.2,33v81.2c0,18.2,11.3,33,25.2,33h58.4
				c13.9,0,25.2,14.8,25.2,33v108c0,18.2,11.3,33,25.2,33h15.1c13.9,0,25.2,14.8,25.2,33v56.1v48.1v1.3c0,27.1-21.6,49.1-48.2,49.1
				h-910.4c-26.5,0-48-21.9-48-48.8L2764.6,2623.6L2764.6,2623.6z"/>
		</defs>
		<clipPath id="SVGID_8_">
			<use xlink:href="#SVGID_7_"  style="overflow:visible;"/>
		</clipPath>
		
			<linearGradient id="SVGID_9_" gradientUnits="userSpaceOnUse" x1="3180.7444" y1="2277.2603" x2="3180.7444" y2="304.7326" gradientTransform="matrix(1 0 0 -1 0 3326.7451)">
			<stop  offset="0.2638" style="stop-color:#FFB855"/>
			<stop  offset="0.3253" style="stop-color:#F2A746"/>
			<stop  offset="0.4021" style="stop-color:#DE8C2E"/>
			<stop  offset="0.7507" style="stop-color:#B75900"/>
		</linearGradient>
		<path class="st16" d="M3318.8,1959.7v235.4c0,12.8-8.6,23.2-19.1,23.2h-8.8c-10.6,0-19.1-10.4-19.1-23.2v-121.3
			c0-12.8-8.6-23.2-19.1-23.2h-38.2c-10.6,0-19.1,10.4-19.1,23.2v235.4c0,12.8-8.6,23.2-19.1,23.2h-67.6
			c-10.6,0-19.1,10.4-19.1,23.2v92.7c0,12.8-8.6,23.2-19.1,23.2H3044c-10.6,0-19.1-10.4-19.1-23.2v-124.8c0-12.8-8.6-23.2-19.1-23.2
			h-50c-10.6,0-19.1,10.4-19.1,23.2v42.8c0,12.8-8.6,23.2-19.1,23.2l0,0c-10.6,0-19.1,10.4-19.1,23.2v292.4
			c0,12.8,8.6,23.2,19.1,23.2h19.1h41.2h26.5h20.6h64.7h61.7h44.1h38.2h38.2h29.4h17.6h85.2h39.7c10.6,0,19.1-10.4,19.1-23.2v-745.4
			c0-12.8-8.6-23.2-19.1-23.2H3338C3327.3,1936.5,3318.8,1946.9,3318.8,1959.7z"/>
	</g>
	<g class="st1">
		<defs>
			<path id="SVGID_10_" d="M2764.6,2623.6v-152.7c0-18.2,11.3-33,25.2-33h66.6c13.9,0,25.2-14.8,25.2-33v-200
				c0-18.2,11.3-33,25.2-33h132.1c13.9,0,25.2-14.8,25.2-33v-177.8c0-18.2,11.3-33,25.2-33h15.1c13.9,0,25.2-14.8,25.2-33v-151
				c0-18.2,11.3-33,25.2-33h54.9c13.9,0,25.2,14.8,25.2,33v151c0,18.2,11.3,33,25.2,33s25.2,14.8,25.2,33v90.4
				c0,18.2,11.3,33,25.2,33h125.1c13.9,0,25.2,14.8,25.2,33v62.8c0,18.2,11.3,33,25.2,33h86.5c13.9,0,25.2,14.8,25.2,33v81.2
				c0,18.2,11.3,33,25.2,33h58.4c13.9,0,25.2,14.8,25.2,33v108c0,18.2,11.3,33,25.2,33h15.1c13.9,0,25.2,14.8,25.2,33v56.1v48.1v1.3
				c0,27.1-21.6,49.1-48.2,49.1h-910.4c-26.5,0-48-21.9-48-48.8L2764.6,2623.6L2764.6,2623.6z"/>
		</defs>
		<clipPath id="SVGID_11_">
			<use xlink:href="#SVGID_10_"  style="overflow:visible;"/>
		</clipPath>
		
			<linearGradient id="SVGID_12_" gradientUnits="userSpaceOnUse" x1="3472.3442" y1="1557.0232" x2="3472.3442" y2="376.0544" gradientTransform="matrix(1 0 0 -1 0 3326.7451)">
			<stop  offset="0.2638" style="stop-color:#FFB855"/>
			<stop  offset="0.3253" style="stop-color:#F2A746"/>
			<stop  offset="0.4021" style="stop-color:#DE8C2E"/>
			<stop  offset="0.7507" style="stop-color:#B75900"/>
		</linearGradient>
		<path class="st17" d="M3724,2475.9v-105.8c0-17-9.6-30.9-21.5-30.9H3632c-11.9,0-21.5,13.8-21.5,30.9v242.5
			c0,17-9.6,30.9-21.5,30.9l0,0c-11.9,0-21.5-13.8-21.5-30.9v-74.9c0-17-9.6-30.9-21.5-30.9h-147.2c-11.9,0-21.5,13.8-21.5,30.9
			v61.7c0,17-9.6,30.9-21.5,30.9H3319c-11.9,0-21.5-13.8-21.5-30.9V2498c0-17-9.6-30.9-21.5-30.9h-95c-11.9,0-21.5,13.8-21.5,30.9
			v251.3c0,17,9.6,30.9,21.5,30.9h85.8h30.7h79.7h79.7h61.3h49.1h42.9h21.5h27.6h64.4h39.9c11.9,0,21.5-13.8,21.5-30.9v-211.6
			c0-17-9.6-30.9-21.5-30.9h-18.4C3733.6,2506.7,3724,2492.9,3724,2475.9z"/>
	</g>
</g>
<g id="space_shuttle" class="st0">
	
		<linearGradient id="SVGID_13_" gradientUnits="userSpaceOnUse" x1="2190.5942" y1="1108.7443" x2="2190.5942" y2="574.6298" gradientTransform="matrix(1 0 0 -1 0 3326.7451)">
		<stop  offset="0.2638" style="stop-color:#FFB855"/>
		<stop  offset="0.3902" style="stop-color:#F2A746"/>
		<stop  offset="0.548" style="stop-color:#DE8C2E"/>
		<stop  offset="0.6948" style="stop-color:#B75900"/>
	</linearGradient>
	<path class="st18" d="M2201.3,2716.9h-21.5c-26.9,0-48.7-21.8-48.7-48.7v-121.1c0-26.9,21.8-48.7,48.7-48.7h21.5
		c26.9,0,48.7,21.8,48.7,48.7v121.1C2249.9,2695.1,2228.1,2716.9,2201.3,2716.9z"/>
	
		<linearGradient id="SVGID_14_" gradientUnits="userSpaceOnUse" x1="1014.0853" y1="-672.0419" x2="2295.5945" y2="-672.0419" gradientTransform="matrix(-1.260880e-07 1 1 1.117979e-07 3036.1365 1020.53)">
		<stop  offset="0.3734" style="stop-color:#FFB855"/>
		<stop  offset="0.4356" style="stop-color:#D1853D"/>
		<stop  offset="0.4695" style="stop-color:#BC6E33"/>
	</linearGradient>
	<path class="st19" d="M2202.4,2675v-144.1c0-34.8,32.5-60.4,70.9-57.5l201.5,15.5c28.5,2.2,50.9,26.9,50.9,55.3v117.5
		c0,28.4-22.3,53.1-50.9,55.3l-201.5,15.5C2234.8,2735.4,2202.4,2709.7,2202.4,2675z"/>
	
		<linearGradient id="SVGID_15_" gradientUnits="userSpaceOnUse" x1="2535.7441" y1="1027.9227" x2="2535.7441" y2="596.1669" gradientTransform="matrix(1 0 0 -1 0 3326.7451)">
		<stop  offset="0.2638" style="stop-color:#FFB855"/>
		<stop  offset="0.3902" style="stop-color:#F2A746"/>
		<stop  offset="0.548" style="stop-color:#DE8C2E"/>
		<stop  offset="0.6948" style="stop-color:#B75900"/>
	</linearGradient>
	<path class="st20" d="M2451.8,2602.9L2451.8,2602.9c0-189.6,146.1-54,160.1-26.5l4.2,8.4c2.4,4.7,3.5,12,3.5,18.1l0,0
		c0,6.1-1.2,13.4-3.5,18.1l-4.2,8.4C2598,2657,2451.8,2792.5,2451.8,2602.9z"/>
	
		<linearGradient id="SVGID_16_" gradientUnits="userSpaceOnUse" x1="2241.7441" y1="1014.4523" x2="2241.7441" y2="706.8417" gradientTransform="matrix(1 0 0 -1 0 3326.7451)">
		<stop  offset="0.725" style="stop-color:#FFB855"/>
		<stop  offset="0.7707" style="stop-color:#EA9C3C"/>
		<stop  offset="0.8297" style="stop-color:#D47F22"/>
		<stop  offset="0.8882" style="stop-color:#C46A0F"/>
		<stop  offset="0.9455" style="stop-color:#BA5D04"/>
		<stop  offset="1" style="stop-color:#B75900"/>
	</linearGradient>
	<path class="st21" d="M2369.3,2630.2l-274.8-12.1c-4.8-0.2-8.6-7.4-8.6-16.1l0,0c0-8.7,3.8-15.9,8.6-16.1l274.8-12.1
		c15.3-0.7,28.2,11.9,28.2,28.2l0,0C2397.5,2618.3,2384.6,2630.9,2369.3,2630.2z"/>
</g>
<path class="st22" d="M875.4,3262.6l2900.8-12.3l-14.8-551.2c-470.6-17.6-960.7-26.9-1464-26.9c-488.4,0-964.3,8.7-1422.1,25.3
	L875.4,3262.6z"/>
<linearGradient id="SVGID_17_" gradientUnits="userSpaceOnUse" x1="207.2108" y1="1010.2807" x2="2616.009" y2="1010.2807" gradientTransform="matrix(0.7071 0.7071 -0.7071 0.7071 824.2913 -736.7653)">
	<stop  offset="0" style="stop-color:#FFFFFF;stop-opacity:0"/>
	<stop  offset="0.2591" style="stop-color:#F7DFC1;stop-opacity:0.2591"/>
	<stop  offset="0.5056" style="stop-color:#F1C48E;stop-opacity:0.5056"/>
	<stop  offset="0.719" style="stop-color:#EDB169;stop-opacity:0.719"/>
	<stop  offset="0.8909" style="stop-color:#EAA552;stop-opacity:0.8909"/>
	<stop  offset="1" style="stop-color:#E9A14A"/>
</linearGradient>
<path class="st23" d="M256.4,124.1L256.4,124.1c-3.5,3.5-3.5,9.2,0,12.8L1947,1827.4c3.5,3.5,9.2,3.5,12.8,0l0,0
	c3.5-3.5,3.5-9.2,0-12.8L269.2,124.1C265.7,120.6,260,120.6,256.4,124.1z"/>
</svg>
