<?xml version="1.0" encoding="utf-8"?>
<!-- Generator: Adobe Illustrator 23.0.6, SVG Export Plug-In . SVG Version: 6.00 Build 0)  -->
<svg version="1.1" id="Layer_1" xmlns="http://www.w3.org/2000/svg" xmlns:xlink="http://www.w3.org/1999/xlink" x="0px" y="0px"
	 viewBox="0 0 512 512" style="enable-background:new 0 0 512 512;" xml:space="preserve">
<style type="text/css">
	.st0{fill:#00002A;}
</style>
<path class="st0" d="M387.5,501.1c-8.8,0-17.6-2.8-25.3-8.4l-98.5-71.6c-4.6-3.3-10.8-3.3-15.4,0l-98.5,71.6
	c-15.4,11.2-35.3,11.2-50.7,0c-15.4-11.2-21.5-30.1-15.7-48.2l37.6-115.8c1.8-5.4-0.2-11.3-4.8-14.6l-98.5-71.6
	C2.5,231.4-3.7,212.5,2.2,194.4c5.9-18.1,22-29.8,41-29.8h121.8c5.7,0,10.7-3.6,12.5-9.1L215,39.8c5.9-18.1,22-29.8,41-29.8
	s35.1,11.7,41,29.8l37.6,115.8c1.8,5.4,6.8,9.1,12.5,9.1h121.8c19,0,35.1,11.7,41,29.8c5.9,18.1-0.3,37-15.7,48.2l-98.5,71.6
	c-4.6,3.3-6.5,9.2-4.8,14.6l37.6,115.8c5.9,18.1-0.3,37-15.7,48.2C405.2,498.4,396.3,501.1,387.5,501.1z M256,388.7
	c8.9,0,17.8,2.8,25.3,8.3l98.5,71.6c7.1,5.2,13.6,1.3,15.4,0c1.8-1.3,7.5-6.2,4.8-14.6l-37.6-115.8c-5.8-17.8,0.5-37.2,15.7-48.2
	l98.5-71.6c7.1-5.2,5.4-12.5,4.8-14.6c-0.7-2.1-3.6-9.1-12.5-9.1H347.1c-18.7,0-35.2-12-41-29.8L268.5,49
	c-2.7-8.4-10.2-9.1-12.5-9.1s-9.7,0.7-12.5,9.1l-37.6,115.8c-5.8,17.8-22.3,29.8-41,29.8H43.2c-8.8,0-11.8,6.9-12.5,9.1
	c-0.7,2.1-2.4,9.5,4.8,14.6l98.5,71.6c15.1,11,21.4,30.4,15.7,48.2L112,453.9c-2.7,8.4,3,13.3,4.8,14.6c1.8,1.3,8.3,5.2,15.4,0
	l98.5-71.6C238.2,391.4,247.1,388.7,256,388.7z"/>
</svg>
