<?xml version="1.0"?>
<svg xmlns="http://www.w3.org/2000/svg" xmlns:xlink="http://www.w3.org/1999/xlink" version="1.1" id="Capa_1" x="0px" y="0px" viewBox="0 0 512 512" style="enable-background:new 0 0 512 512;" xml:space="preserve" width="512px" height="512px" class=""><g><g>
	<g>
		<path d="M464,128h-16v-16c0-26.51-21.49-48-48-48h-16V48c0-26.51-21.49-48-48-48H48C21.49,0,0,21.49,0,48v288    c0,26.51,21.49,48,48,48h16v16c0,26.51,21.49,48,48,48h16v16c0,26.51,21.49,48,48,48h288c26.51,0,48-21.49,48-48V176    C512,149.49,490.51,128,464,128z M32,265.44V48c0-8.837,7.163-16,16-16h288c8.837,0,16,7.163,16,16v153.44l-36.64-36.64    c-6.241-6.204-16.319-6.204-22.56,0L224,233.44l-68.64-68.8c-6.241-6.204-16.319-6.204-22.56,0L32,265.44z M112,416    c-8.837,0-16-7.163-16-16v-16h240c26.51,0,48-21.49,48-48V96h16c8.837,0,16,7.163,16,16v288c0,8.837-7.163,16-16,16H112z M480,464    c0,8.837-7.163,16-16,16H176c-8.837,0-16-7.163-16-16v-16h240c26.51,0,48-21.49,48-48V160h16c8.837,0,16,7.163,16,16V464z" data-original="#000000" class="active-path" data-old_color="#000000" fill="#007BFF"/>
	</g>
</g></g> </svg>
